<svg xmlns="http://www.w3.org/2000/svg" xmlns:xlink="http://www.w3.org/1999/xlink" viewBox="0 0 66 65" fill="#fff" fill-rule="evenodd" stroke="#000" stroke-linecap="round" stroke-linejoin="round"><use xlink:href="#A" x=".5" y=".5"/><symbol id="A" overflow="visible"><path d="M32 52.375c-11.253 0-20.376-9.12-20.376-20.376S20.748 11.625 32 11.625 52.374 20.748 52.377 32 43.257 52.375 32 52.375zM64 32c0 17.672-14.328 32-32 32S0 49.672 0 32 14.325 0 32 0s32 14.327 32 32zM32 7.784C18.627 7.787 7.788 18.628 7.786 32S18.626 56.216 32 56.216 56.216 45.376 56.216 32 45.37 7.784 32 7.784z" stroke="none" fill="#772953" fill-rule="nonzero"/></symbol></svg>