<?xml version="1.0" encoding="UTF-8" standalone="no"?>
<svg
   xmlns:dc="http://purl.org/dc/elements/1.1/"
   xmlns:cc="http://creativecommons.org/ns#"
   xmlns:rdf="http://www.w3.org/1999/02/22-rdf-syntax-ns#"
   xmlns:svg="http://www.w3.org/2000/svg"
   xmlns="http://www.w3.org/2000/svg"
   xmlns:sodipodi="http://sodipodi.sourceforge.net/DTD/sodipodi-0.dtd"
   xmlns:inkscape="http://www.inkscape.org/namespaces/inkscape"
   inkscape:version="1.0 (4035a4fb49, 2020-05-01)"
   sodipodi:docname="ki_ocp.svg"
   id="svg45453"
   viewBox="-1.7338671 -1.7338671 61.2633042 65.4082292"
   height="768"
   width="719"
   version="1.1">
  <metadata
     id="metadata13">
    <rdf:RDF>
      <cc:Work
         rdf:about="">
        <dc:format>image/svg+xml</dc:format>
        <dc:type
           rdf:resource="http://purl.org/dc/dcmitype/StillImage" />
      </cc:Work>
    </rdf:RDF>
  </metadata>
  <sodipodi:namedview
     inkscape:current-layer="svg45453"
     inkscape:window-maximized="0"
     inkscape:window-y="0"
     inkscape:window-x="-7"
     inkscape:cy="101.10732"
     inkscape:cx="209.15291"
     inkscape:zoom="0.33836164"
     inkscape:snap-global="true"
     inkscape:snap-bbox-midpoints="true"
     inkscape:snap-bbox-edge-midpoints="true"
     inkscape:bbox-nodes="true"
     inkscape:bbox-paths="true"
     inkscape:snap-bbox="true"
     showgrid="false"
     id="namedview11"
     inkscape:window-height="1528"
     inkscape:window-width="1918"
     inkscape:pageshadow="2"
     inkscape:pageopacity="0"
     guidetolerance="10"
     gridtolerance="10"
     objecttolerance="10"
     borderopacity="1"
     bordercolor="#666666"
     pagecolor="#ffffff" />
  <defs
     id="defs45455" />
  <rect
     inkscape:export-ydpi="100.095"
     inkscape:export-xdpi="100.095"
     y="-6.3826146"
     x="-37.568382"
     height="72.568962"
     width="136.03906"
     id="rect901"
     style="fill:#ffffff;stroke:#000000;stroke-width:0.212388;stop-color:#000000" />
  <g
     inkscape:export-ydpi="100.095"
     inkscape:export-xdpi="100.095"
     transform="matrix(2.4926296,0,0,2.4926296,-70.668343,3.7221329)"
     id="g954">
    <g
       id="g881"
       transform="matrix(0.19194612,0,0,0.19194612,50.704828,4.9934616)">
      <path
         style="fill:#c22133;fill-opacity:1;fill-rule:nonzero;stroke:none"
         id="path44560"
         d="m 54.22782,11.986615 c -0.5725,-1.1825 -1.235,-2.3237504 -2.00375,-3.4000004 l -8.2125,2.9887504 c 0.955,0.9775 1.7575,2.07625 2.41375,3.25125 z m -36.30287,9.08338 -8.215,2.98875 c 0.105,1.3175 0.3325,2.61875 0.65125,3.89375 l 7.80375,-2.84125 c -0.25375,-1.32 -0.34375,-2.68 -0.24,-4.04125" />
      <path
         style="fill:#db212e;fill-opacity:1;fill-rule:nonzero;stroke:none"
         id="path44564"
         d="m 36.1562,9.6601146 c 1.70875,0.7975004 3.18875,1.8850004 4.4375,3.1600004 l 8.2125,-2.9887504 c -2.275,-3.1925 -5.37375,-5.86 -9.17,-7.63125 -11.74125,-5.475 -25.74875,-0.3775 -31.2225,11.3625004 -1.7725,3.79875 -2.43125,7.83375 -2.12125,11.74125 l 8.21375,-2.98875 c 0.13625,-1.78 0.57,-3.56375 1.36625,-5.27375 C 19.42995,9.4138646 28.5287,6.1038646 36.1562,9.6601146" />
      <path
         style="fill:#db212e;fill-opacity:1;fill-rule:nonzero;stroke:none"
         id="path44572"
         d="m 44.91582,24.668245 c -0.13125,1.77875 -0.58,3.5625 -1.37875,5.27375 -3.55625,7.62875 -12.65625,10.93875 -20.2825,7.3825 -1.71125,-0.79875 -3.2025,-1.8775 -4.44625,-3.155 l -8.19625,2.9825 c 2.27,3.1925 5.365,5.86125 9.16375,7.63375 11.74125,5.47375 25.74625,0.37625 31.22125,-11.365 1.77375,-3.79625 2.4275,-7.83125 2.115,-11.735 z" />
      <path
         style="fill:#eb2126;fill-opacity:1;fill-rule:nonzero;stroke:none"
         id="path44576"
         d="m 46.93545,14.641115 -7.80375,2.84 c 1.45,2.5975 2.135,5.5875 1.91,8.595 l 8.19625,-2.98125 c -0.235,-2.94125 -1.01875,-5.8125 -2.3025,-8.45375 m -36.06275,13.124 -7.80375,2.8425 c 0.71625,2.845 1.96,5.54875 3.67,7.955 l 8.195,-2.98375 c -2.10375,-2.16 -3.5025,-4.89375 -4.06125,-7.81375" />
      <path
         style="fill:#ad213b;fill-opacity:1;fill-rule:nonzero;stroke:none"
         id="path44584"
         d="m 53.03832,9.8229946 c -0.25875,-0.42 -0.5275,-0.83375 -0.81375,-1.23625 l -8.2125,2.9887504 c 0.36125,0.37 0.69375,0.7625 1.01125,1.165 z M 17.89357,22.719365 c -0.02,-0.5475 -0.0113,-1.0975 0.0312,-1.64875 l -8.215,2.98875 c 0.0425,0.52625 0.10875,1.04875 0.1875,1.57 l 7.99625,-2.91 z" />
      <path
         style="fill:#ba2133;fill-opacity:1;fill-rule:nonzero;stroke:none"
         id="path44588"
         d="m 53.11157,21.685615 -8.19625,2.9825 c -0.0863,1.18 -0.31625,2.3625 -0.6925,3.525 l 8.92125,-3.2525 c 0.0638,-1.09 0.0537,-2.1775 -0.0325,-3.255 m -42.49875,15.4675 c 0.63125,0.88875 1.33,1.73625 2.08875,2.53625 l 8.9225,-3.25375 c -1.0425,-0.6525 -1.985,-1.41375 -2.81625,-2.26625 z" />
      <path
         style="fill:#241f21;fill-opacity:1;fill-rule:nonzero;stroke:none"
         id="path44622"
         d="m 52.68932,54.532115 v 0.74 h 2.14625 v 6.55375 h 0.8125 v -6.55375 h 2.1475 v -0.74 z m -4.9285,0.73938 v 2.4175 h 2 v 0.74 h -2 v 3.39625 h -0.8125 v -7.2925 h 4.2825 v 0.73875 z m -3.71775,-0.7385 h 0.8125 v 7.29375 h -0.8125 z m -2.90425,7.29287 v -3.43875 h -3.62625 v 3.43875 h -0.8125 v -7.29375 h 0.8125 v 3.11625 h 3.62625 v -3.11625 h 0.8125 v 7.29375 z m -8.66675,0.11463 c -0.99,0 -1.87625,-0.4275 -2.44875,-1.01 l 0.5425,-0.605 c 0.55125,0.53125 1.1875,0.87625 1.9375,0.87625 0.96875,0 1.57375,-0.48 1.57375,-1.25125 0,-0.6775 -0.40625,-1.0625 -1.74,-1.5425 -1.57375,-0.5625 -2.105,-1.0725 -2.105,-2.125 0,-1.1675 0.91625,-1.86625 2.28125,-1.86625 0.98,0 1.605,0.2925 2.22,0.7825 l -0.52125,0.635 c -0.53125,-0.4375 -1.02125,-0.6775 -1.75,-0.6775 -1.00125,0 -1.4175,0.5 -1.4175,1.07375 0,0.605 0.27125,0.9475 1.73,1.47 1.615,0.5825 2.115,1.125 2.115,2.20875 0,1.14625 -0.89625,2.03125 -2.4175,2.03125 m -5.7415,-0.11463 -2.6775,-3.98 c -0.1775,-0.27125 -0.4175,-0.63625 -0.51125,-0.82375 0,0.27125 0.0212,1.1875 0.0212,1.59375 v 3.21 h -1.43875 v -7.29375 h 1.39625 l 2.585,3.855 c 0.1775,0.27125 0.41625,0.63625 0.51,0.82375 0,-0.27125 -0.02,-1.1875 -0.02,-1.595 v -3.08375 h 1.4375 v 7.29375 h -1.3025 z m -11.50112,0 v -7.29375 h 5.06375 v 1.4275 h -3.605 v 1.26125 h 2.095 v 1.41625 h -2.095 v 1.76125 h 3.76125 v 1.4275 z m -4.14475,-2.58362 h -1.605 v 2.58375 H 8.02095 v -7.29375 h 3.18875 c 1.375,0 2.51125,0.76125 2.51125,2.3125 0,1.68875 -1.125,2.3975 -2.63625,2.3975 m 0.0738,-3.2925 H 9.47975 v 1.875 h 1.69875 c 0.6775,0 1.0425,-0.31375 1.0425,-0.94875 0,-0.635 -0.4175,-0.92625 -1.0625,-0.92625 M 3.21,61.940495 c -1.9075,0 -3.21,-1.39625 -3.21,-3.75125 0,-2.355 1.32375,-3.7725 3.23125,-3.7725 1.89625,0 3.19875,1.3975 3.19875,3.7525 0,2.355 -1.32375,3.77125 -3.22,3.77125 m -0.01,-6.075 c -1.02125,0 -1.69875,0.82375 -1.69875,2.30375 0,1.48 0.70875,2.3225 1.73,2.3225 1.02125,0 1.6975,-0.8225 1.6975,-2.3025 0,-1.48 -0.7075,-2.32375 -1.72875,-2.32375" />
    </g>
    <path
       style="vector-effect:none;fill:#fc624d;fill-opacity:1;stroke:#fc624d;stroke-width:0.00602527;stroke-linecap:round;stroke-linejoin:miter;stroke-miterlimit:4;stroke-dasharray:none;stroke-dashoffset:0;stroke-opacity:1"
       d="m 26.224956,5.285433 v 8.78e-5 c -0.08192,0.00258 -0.16464,0.024634 -0.24096,0.068707 l -2.993262,1.7281757 c -0.0085,0.00472 -0.01631,0.01041 -0.02441,0.01565 -0.146511,0.089014 -0.244431,0.2501897 -0.244431,0.4355184 v 3.4563411 c 0,0.194052 0.10704,0.362003 0.265159,0.447933 0.0011,3.41e-4 0.0018,0.0011 0.0029,0.0015 l 2.993156,1.728173 c 0.0022,0.0011 0.0043,0.0022 0.0065,0.0033 0.01063,0.006 0.02163,0.01147 0.03273,0.01671 0.0033,0.0015 0.0063,0.0033 0.0096,0.0047 0.01312,0.0059 0.02661,0.01103 0.0403,0.01576 0.0022,0.0011 0.0044,0.0015 0.0066,0.0026 0.01382,0.0047 0.02789,0.0085 0.04219,0.01187 0.0022,3.41e-4 0.0042,0.0011 0.0062,0.0015 0.0125,0.0026 0.02518,0.0047 0.03798,0.0068 0.0043,3.41e-4 0.0087,0.0015 0.01304,0.0015 0.011,0.0011 0.02218,0.0022 0.03335,0.0026 0.0057,1.76e-4 0.01144,0.0011 0.01715,0.0011 0.0033,6.6e-5 0.0067,3.41e-4 0.01008,3.41e-4 0.0076,0 0.01499,-0.0011 0.0225,-0.0011 0.0058,-1.76e-4 0.01158,-3.42e-4 0.01737,-0.0011 0.01096,-0.0011 0.02174,-0.0022 0.03251,-0.0037 0.0055,-0.0011 0.01104,-0.0015 0.01653,-0.0026 0.01107,-0.0022 0.02192,-0.0042 0.03273,-0.0069 0.005,-0.0011 0.0099,-0.0026 0.01484,-0.0037 0.01093,-0.0033 0.0217,-0.0065 0.03229,-0.01019 0.0047,-0.0015 0.0092,-0.0033 0.01389,-0.0053 0.01056,-0.0042 0.02093,-0.0085 0.03115,-0.01324 0.0047,-0.0022 0.0093,-0.0042 0.01389,-0.0067 0.0097,-0.0047 0.01917,-0.01019 0.02852,-0.01566 0.0053,-0.0033 0.01052,-0.0062 0.01569,-0.0095 0.0075,-0.0047 0.01477,-0.0098 0.02199,-0.01492 0.0069,-0.0047 0.0136,-0.0099 0.0202,-0.01514 0.006,-0.0047 0.01187,-0.0098 0.01767,-0.01481 0.0067,-0.0058 0.01338,-0.01177 0.01979,-0.01804 0.005,-0.0047 0.0098,-0.0099 0.01462,-0.01491 0.0066,-0.007 0.01312,-0.01397 0.01936,-0.02141 0.0048,-0.0057 0.0094,-0.01166 0.014,-0.01756 0.0051,-0.0067 0.01029,-0.01341 0.01514,-0.02037 0.0051,-0.0074 0.01004,-0.01503 0.01484,-0.02277 0.0029,-0.0047 0.006,-0.0088 0.0087,-0.0136 0.0011,-0.0022 0.0022,-0.0042 0.0033,-0.0064 0.0043,-0.0078 0.0083,-0.0158 0.01221,-0.0239 0.0037,-0.0074 0.0074,-0.0147 0.01063,-0.02221 0.0029,-0.0065 0.0051,-0.01308 0.0077,-0.01965 0.0037,-0.0096 0.0073,-0.01925 0.01041,-0.02896 0.0015,-0.0047 0.0026,-0.0092 0.0039,-0.01378 0.0033,-0.01177 0.0066,-0.0236 0.0091,-0.03548 7.13e-4,-0.0037 0.0011,-0.0079 0.0018,-0.01177 0.0022,-0.01239 0.0043,-0.02482 0.0057,-0.03726 7.14e-4,-0.0063 7.14e-4,-0.01283 0.0015,-0.01924 7.13e-4,-0.0093 0.0015,-0.01869 0.0015,-0.02801 5.2e-5,-0.0033 3.41e-4,-0.0062 3.41e-4,-0.0092 V 9.5480353 l 0.630806,-0.364177 C 27.62018,9.0428536 27.703848,8.733737 27.563558,8.4907573 27.423275,8.247782 27.113745,8.1657186 26.869511,8.3067232 l -0.881658,0.5090701 c -0.16791,0.096939 -0.259944,0.2733412 -0.25548,0.4530868 -6e-6,0.0011 -8.7e-5,0.00148 -8.7e-5,0.00219 v 2.5818509 l -1.99778,-1.153202 V 7.8217835 l 2.504714,-1.4460705 2.575632,1.4869 v 2.877095 l -0.630809,0.364173 c -0.244226,0.141008 -0.327997,0.450129 -0.187714,0.693104 0.140285,0.24298 0.449927,0.325036 0.694152,0.184035 l 0.881659,-0.508964 c 0.0043,-0.0026 0.0081,-0.0054 0.01231,-0.008 0.0095,-0.0058 0.01884,-0.01162 0.02789,-0.01804 0.0043,-0.0033 0.0082,-0.0063 0.01242,-0.0094 0.0089,-0.0067 0.01759,-0.01352 0.02599,-0.02075 0.0054,-0.0047 0.01052,-0.0095 0.01569,-0.01433 0.0067,-0.0063 0.01353,-0.01261 0.01987,-0.01924 0.005,-0.0053 0.0097,-0.01071 0.01451,-0.01624 0.0062,-0.007 0.01231,-0.01408 0.01811,-0.02148 0.0046,-0.0058 0.0089,-0.01173 0.01316,-0.01767 0.005,-0.0069 0.0098,-0.01386 0.01441,-0.02101 0.0045,-0.007 0.0088,-0.01422 0.01294,-0.02148 0.004,-0.0069 0.0078,-0.01378 0.01147,-0.02082 0.004,-0.0078 0.0078,-0.01573 0.01137,-0.02368 0.0029,-0.0066 0.0058,-0.0132 0.0085,-0.0199 0.0037,-0.0093 0.007,-0.0187 0.01023,-0.02823 0.0022,-0.0058 0.004,-0.01165 0.0057,-0.01756 0.0029,-0.0098 0.0054,-0.01975 0.0077,-0.0298 0.0015,-0.0063 0.0029,-0.01258 0.0041,-0.01892 0.0022,-0.01107 0.0037,-0.02221 0.005,-0.03347 7.13e-4,-0.0053 0.0011,-0.0099 0.0018,-0.01492 0.0011,-0.01162 0.0015,-0.02324 0.0018,-0.03493 8.7e-5,-0.0042 7.13e-4,-0.0086 7.13e-4,-0.01304 V 7.5729876 c 0,-0.1964794 -0.109771,-0.3660642 -0.27116,-0.4509862 -0.0037,-0.0022 -0.0071,-0.00472 -0.01096,-0.00704 L 26.552599,5.3868005 c -0.0099,-0.00571 -0.02008,-0.010448 -0.0302,-0.015502 -0.08771,-0.05902 -0.191801,-0.089469 -0.297463,-0.08639 z m 1.5595,4.3737755 a 0.50603189,0.50603189 0 0 0 -0.241066,0.067658 0.50603189,0.50603189 0 0 0 -0.185295,0.6913085 0.50603189,0.50603189 0 0 0 0.691311,0.1852 0.50603189,0.50603189 0 0 0 0.18519,-0.6912133 0.50603189,0.50603189 0 0 0 -0.45014,-0.2529532 z"
       id="path1036-2-6-8-8"
       inkscape:connector-curvature="0"
       inkscape:export-xdpi="100.095"
       inkscape:export-ydpi="100.095"
       inkscape:export-filename="C:\Users\strix\Dropbox\kubeinit\docs\src\white_text_logo.png" />
    <path
       inkscape:connector-curvature="0"
       id="path879-45-6"
       style="font-style:normal;font-variant:normal;font-weight:bold;font-stretch:normal;font-size:medium;line-height:1.25;font-family:Quicksand;-inkscape-font-specification:'Quicksand Bold';letter-spacing:-2.62202px;word-spacing:0px;fill:#000000;fill-opacity:1;stroke:none;stroke-width:0.109548"
       d="m 19.577345,16.594478 c 0.13584,0 0.241005,-0.109548 0.241005,-0.241004 v -0.622232 l 0.455718,-0.464479 0.946491,1.240076 c 0.0482,0.05697 0.113931,0.08764 0.179657,0.08764 0.05697,0 0.109548,-0.01752 0.153369,-0.05696 0.105163,-0.08326 0.122692,-0.236624 0.03504,-0.337407 l -0.972782,-1.275137 0.96402,-0.959636 c 0.09202,-0.0964 0.09202,-0.249767 0,-0.341787 -0.0964,-0.0964 -0.245388,-0.0964 -0.341791,0 l -1.419734,1.424118 v -1.257608 c 0,-0.127073 -0.105167,-0.241 -0.241004,-0.241 -0.13584,0 -0.241007,0.113927 -0.241007,0.241 v 2.563415 c 0,0.131456 0.105167,0.241004 0.241007,0.241004 z"
       inkscape:export-xdpi="100.095"
       inkscape:export-ydpi="100.095"
       inkscape:export-filename="C:\Users\strix\Dropbox\kubeinit\docs\src\white_text_logo.png" />
    <path
       inkscape:connector-curvature="0"
       id="path881-6-3"
       style="font-style:normal;font-variant:normal;font-weight:bold;font-stretch:normal;font-size:medium;line-height:1.25;font-family:Quicksand;-inkscape-font-specification:'Quicksand Bold';letter-spacing:-2.62202px;word-spacing:0px;fill:#000000;fill-opacity:1;stroke:none;stroke-width:0.109548"
       d="m 23.560142,15.683044 v -1.047277 c 0,-0.122693 -0.113931,-0.23224 -0.236623,-0.23224 -0.131456,0 -0.227859,0.109547 -0.227859,0.23224 v 1.047277 c -0.0043,0.249764 -0.205947,0.446954 -0.4601,0.446954 -0.249768,0 -0.446954,-0.19719 -0.446954,-0.446954 v -1.047277 c 0,-0.122693 -0.100783,-0.23224 -0.23224,-0.23224 -0.127075,0 -0.232239,0.109547 -0.232239,0.23224 v 1.047277 c 0,0.499537 0.411898,0.911434 0.911433,0.911434 0.50392,0 0.924582,-0.411897 0.924582,-0.911434 z"
       inkscape:export-xdpi="100.095"
       inkscape:export-ydpi="100.095"
       inkscape:export-filename="C:\Users\strix\Dropbox\kubeinit\docs\src\white_text_logo.png" />
    <path
       inkscape:connector-curvature="0"
       id="path883-3-7"
       style="font-style:normal;font-variant:normal;font-weight:bold;font-stretch:normal;font-size:medium;line-height:1.25;font-family:Quicksand;-inkscape-font-specification:'Quicksand Bold';letter-spacing:-2.62202px;word-spacing:0px;fill:#000000;fill-opacity:1;stroke:none;stroke-width:0.109548"
       d="m 23.817017,16.357854 c 0,0.127076 0.105168,0.236624 0.236624,0.236624 0.118312,0 0.210331,-0.08325 0.23224,-0.188422 0.166513,0.113931 0.376844,0.188422 0.595939,0.188422 0.591559,0 1.064802,-0.499537 1.064802,-1.091092 0,-0.600323 -0.473243,-1.099859 -1.064802,-1.099859 -0.21471,0 -0.425042,0.07011 -0.587175,0.184038 V 13.76377 c 0,-0.127076 -0.105163,-0.236624 -0.241004,-0.236624 -0.131456,0 -0.236624,0.109548 -0.236624,0.236624 v 1.735232 c 0,0 0,0 0,0.0043 0,0 0,0 0,0 z m 0.652906,-1.297041 c 0.109548,-0.113928 0.249767,-0.179659 0.411897,-0.179659 0.15775,0 0.302354,0.06573 0.411902,0.179659 0.109547,0.109547 0.175273,0.267295 0.175273,0.442573 0,0.166509 -0.06573,0.324259 -0.175273,0.433807 -0.109548,0.113931 -0.254152,0.179657 -0.411902,0.179657 -0.16213,0 -0.302349,-0.06573 -0.411897,-0.179657 -0.109548,-0.109548 -0.175278,-0.267298 -0.175278,-0.433807 0,-0.175278 0.06573,-0.333026 0.175278,-0.442573 z"
       inkscape:export-xdpi="100.095"
       inkscape:export-ydpi="100.095"
       inkscape:export-filename="C:\Users\strix\Dropbox\kubeinit\docs\src\white_text_logo.png" />
    <path
       inkscape:connector-curvature="0"
       id="path885-92-6"
       style="font-style:normal;font-variant:normal;font-weight:bold;font-stretch:normal;font-size:medium;line-height:1.25;font-family:Quicksand;-inkscape-font-specification:'Quicksand Bold';letter-spacing:-2.62202px;word-spacing:0px;fill:#000000;fill-opacity:1;stroke:none;stroke-width:0.109548"
       d="m 27.201138,16.594478 c 0.311113,0 0.569646,-0.09202 0.784361,-0.289206 0.100783,-0.09202 0.05697,-0.223475 0,-0.284821 -0.05697,-0.07011 -0.236624,-0.08326 -0.328642,0.01312 -0.109548,0.08326 -0.297971,0.122692 -0.455719,0.109548 -0.153365,-0.01312 -0.328643,-0.09202 -0.420662,-0.197187 -0.07888,-0.07449 -0.127076,-0.188421 -0.148985,-0.289205 h 1.393444 c 0.122697,0 0.214713,-0.07011 0.227861,-0.175278 0.0043,-0.0088 0.0043,-0.03068 0.0043,-0.03944 0,0 0,0 0,0 0,0 0,0 0,0 0,-0.0088 0,-0.01752 0,-0.02192 -0.03504,-0.591556 -0.486392,-1.016601 -1.056042,-1.016601 -0.60032,0 -1.064803,0.499536 -1.069182,1.095476 0.0043,0.595939 0.468862,1.091095 1.069182,1.095474 z m 0,-1.77467 c 0.381227,0.03068 0.604703,0.289205 0.648521,0.46448 h -1.240077 c 0.03504,-0.179654 0.219096,-0.446951 0.591556,-0.46448 z"
       inkscape:export-xdpi="100.095"
       inkscape:export-ydpi="100.095"
       inkscape:export-filename="C:\Users\strix\Dropbox\kubeinit\docs\src\white_text_logo.png" />
    <path
       inkscape:connector-curvature="0"
       id="path889-4-5"
       style="font-style:normal;font-variant:normal;font-weight:bold;font-stretch:normal;font-size:medium;line-height:1.25;font-family:Quicksand;-inkscape-font-specification:'Quicksand Bold';letter-spacing:-2.62202px;word-spacing:0px;fill:#000000;fill-opacity:1;stroke:none;stroke-width:0.109548"
       d="m 30.210664,14.403527 c -0.170897,0 -0.333027,0.05259 -0.464484,0.13584 -0.03944,-0.08325 -0.122692,-0.13584 -0.214714,-0.13584 -0.131457,0 -0.23224,0.105167 -0.23224,0.23224 v 0.679197 c 0,0 0,0 0,0 v 1.047274 c 0,0.127077 0.100783,0.23224 0.23224,0.23224 0.113931,0 0.210335,-0.08325 0.232239,-0.188422 0.0088,-0.01752 0.0088,-0.03068 0.0088,-0.04382 v -1.047275 c 0,-0.245387 0.192805,-0.442573 0.438193,-0.442573 0.249768,0 0.455718,0.197186 0.455718,0.442573 v 1.047275 c 0,0.127076 0.109548,0.232239 0.23224,0.232239 0.127073,0 0.227859,-0.105163 0.227859,-0.232239 v -1.047275 c 0,-0.495155 -0.407516,-0.911437 -0.915817,-0.911437 z"
       inkscape:export-xdpi="100.095"
       inkscape:export-ydpi="100.095"
       inkscape:export-filename="C:\Users\strix\Dropbox\kubeinit\docs\src\white_text_logo.png" />
    <path
       id="path891-9-9"
       style="font-style:normal;font-variant:normal;font-weight:bold;font-stretch:normal;font-size:medium;line-height:1.25;font-family:Quicksand;-inkscape-font-specification:'Quicksand Bold';letter-spacing:-2.62202px;word-spacing:0px;fill:#000000;fill-opacity:1;stroke:none;stroke-width:0.109548"
       d="m 31.589322,14.407896 c -0.131457,0 -0.23665,0.100805 -0.23665,0.241025 v 1.70897 c 0,0.13146 0.105193,0.23658 0.23665,0.23658 0.13584,0 0.23658,-0.10512 0.23658,-0.23658 v -1.70897 c 0,-0.14022 -0.10074,-0.241025 -0.23658,-0.241025 z"
       inkscape:export-xdpi="100.095"
       inkscape:export-ydpi="100.095"
       inkscape:export-filename="C:\Users\strix\Dropbox\kubeinit\docs\src\white_text_logo.png" />
    <path
       inkscape:connector-curvature="0"
       id="path893-5-7"
       style="font-style:normal;font-variant:normal;font-weight:bold;font-stretch:normal;font-size:medium;line-height:1.25;font-family:Quicksand;-inkscape-font-specification:'Quicksand Bold';letter-spacing:-2.62202px;word-spacing:0px;fill:#000000;fill-opacity:1;stroke:none;stroke-width:0.109548"
       d="M 32.96809,14.403527 H 32.858539 V 13.76815 c 0,-0.13584 -0.105163,-0.241004 -0.241004,-0.241004 -0.13584,0 -0.245388,0.105164 -0.245388,0.241004 v 0.635377 h -0.127072 c -0.13584,0 -0.241008,0.105167 -0.241008,0.241004 0,0.131457 0.105168,0.241004 0.241008,0.241004 h 0.127072 v 1.222555 c 0,0.267293 0.219095,0.486388 0.486392,0.486388 0.135841,0 0.241007,-0.105163 0.241007,-0.241004 0,-0.135837 -0.105166,-0.245384 -0.241007,-0.245384 0,0 0,0 0,0 v -1.222555 h 0.109551 c 0.131456,0 0.245384,-0.109547 0.245384,-0.241004 0,-0.135837 -0.113928,-0.241004 -0.245384,-0.241004 z"
       inkscape:export-xdpi="100.095"
       inkscape:export-ydpi="100.095"
       inkscape:export-filename="C:\Users\strix\Dropbox\kubeinit\docs\src\white_text_logo.png" />
    <path
       style="font-style:normal;font-variant:normal;font-weight:bold;font-stretch:normal;font-size:medium;line-height:1.25;font-family:Quicksand;-inkscape-font-specification:'Quicksand Bold';letter-spacing:-2.62202px;word-spacing:0px;fill:#000000;fill-opacity:1;stroke:none;stroke-width:0.109548"
       d="m 28.801515,14.040733 c -0.131456,0 -0.236649,0.100801 -0.236649,0.241022 v 0.367166 1.341807 0.367163 c 0,0.13146 0.105193,0.23658 0.236649,0.23658 0.13584,0 0.236581,-0.10512 0.236581,-0.23658 v -0.367163 -1.341807 -0.367166 c 0,-0.140221 -0.100741,-0.241022 -0.236581,-0.241022 z"
       id="path891-4-6-2"
       inkscape:export-xdpi="100.095"
       inkscape:export-ydpi="100.095"
       inkscape:export-filename="C:\Users\strix\Dropbox\kubeinit\docs\src\white_text_logo.png" />
    <circle
       style="vector-effect:none;fill:#fc624d;fill-opacity:1;stroke:#fc624d;stroke-width:0.00327497;stroke-linecap:round;stroke-linejoin:miter;stroke-miterlimit:4;stroke-dasharray:none;stroke-dashoffset:0;stroke-opacity:1"
       id="path886-5-8-5"
       cx="28.801506"
       cy="13.546927"
       r="0.34529084"
       inkscape:export-xdpi="100.095"
       inkscape:export-ydpi="100.095"
       inkscape:export-filename="C:\Users\strix\Dropbox\kubeinit\docs\src\white_text_logo.png" />
  </g>
  <text
     inkscape:export-ydpi="100.095"
     inkscape:export-xdpi="100.095"
     xml:space="preserve"
     style="font-style:normal;font-weight:normal;font-size:5.69294px;line-height:1.25;font-family:sans-serif;letter-spacing:0px;word-spacing:0px;fill:#000000;fill-opacity:1;stroke:none;stroke-width:0.142324"
     x="30.369133"
     y="1.2482966"
     id="text885-5"><tspan
       sodipodi:role="line"
       x="30.369129"
       y="1.2482966"
       style="font-style:normal;font-variant:normal;font-weight:bold;font-stretch:normal;font-family:'The Bold Font';-inkscape-font-specification:'The Bold Font Bold';text-align:center;text-anchor:middle;stroke-width:0.142324"
       id="tspan887-5">lEARN HOW TO DEPLOY OPENSHIFT USING KUBEINIT</tspan></text>
  <text
     inkscape:export-ydpi="100.095"
     inkscape:export-xdpi="100.095"
     id="text885-5-7"
     y="36.67865"
     x="30.45142"
     style="font-style:normal;font-weight:normal;font-size:17.6639px;line-height:1.25;font-family:sans-serif;letter-spacing:0px;word-spacing:0px;fill:#000000;fill-opacity:1;stroke:none;stroke-width:0.441599"
     xml:space="preserve"><tspan
       id="tspan887-5-3"
       style="font-style:normal;font-variant:normal;font-weight:bold;font-stretch:normal;font-family:'The Bold Font';-inkscape-font-specification:'The Bold Font Bold';text-align:center;text-anchor:middle;stroke-width:0.441599"
       y="36.67865"
       x="30.45142"
       sodipodi:role="line">+</tspan></text>
</svg>
