<?xml version="1.0" encoding="UTF-8" standalone="no"?>
<svg
   xmlns:dc="http://purl.org/dc/elements/1.1/"
   xmlns:cc="http://creativecommons.org/ns#"
   xmlns:rdf="http://www.w3.org/1999/02/22-rdf-syntax-ns#"
   xmlns:svg="http://www.w3.org/2000/svg"
   xmlns="http://www.w3.org/2000/svg"
   xmlns:xlink="http://www.w3.org/1999/xlink"
   xmlns:sodipodi="http://sodipodi.sourceforge.net/DTD/sodipodi-0.dtd"
   xmlns:inkscape="http://www.inkscape.org/namespaces/inkscape"
   width="390mm"
   height="240mm"
   viewBox="0 0 390 240"
   version="1.1"
   id="svg8"
   inkscape:version="1.0 (4035a4fb49, 2020-05-01)"
   sodipodi:docname="kubeinit_distros.svg">
  <defs
     id="defs2">
    <inkscape:path-effect
       only_selected="false"
       apply_with_weight="true"
       apply_no_weight="true"
       helper_size="0"
       steps="2"
       weight="33.333333"
       lpeversion="1"
       is_visible="true"
       id="path-effect952"
       effect="bspline" />
    <style
       id="style958">.a{fill:#f22b29;}</style>
  </defs>
  <sodipodi:namedview
     id="base"
     pagecolor="#ffffff"
     bordercolor="#666666"
     borderopacity="1.0"
     inkscape:pageopacity="0.0"
     inkscape:pageshadow="2"
     inkscape:zoom="1"
     inkscape:cx="728.33866"
     inkscape:cy="564.88928"
     inkscape:document-units="mm"
     inkscape:current-layer="layer1"
     showgrid="false"
     inkscape:snap-bbox="true"
     inkscape:bbox-paths="true"
     inkscape:snap-bbox-edge-midpoints="true"
     inkscape:bbox-nodes="true"
     inkscape:snap-bbox-midpoints="true"
     inkscape:window-width="3840"
     inkscape:window-height="1537"
     inkscape:window-x="-8"
     inkscape:window-y="-8"
     inkscape:window-maximized="1"
     inkscape:object-nodes="true"
     inkscape:snap-intersection-paths="true"
     inkscape:snap-smooth-nodes="true"
     inkscape:document-rotation="0"
     units="mm" />
  <metadata
     id="metadata5">
    <rdf:RDF>
      <cc:Work
         rdf:about="">
        <dc:format>image/svg+xml</dc:format>
        <dc:type
           rdf:resource="http://purl.org/dc/dcmitype/StillImage" />
        <dc:title />
      </cc:Work>
    </rdf:RDF>
  </metadata>
  <g
     inkscape:label="Layer 1"
     inkscape:groupmode="layer"
     id="layer1"
     transform="translate(0,-257)">
    <g
       inkscape:export-ydpi="100.095"
       inkscape:export-xdpi="100.095"
       id="g1062">
      <rect
         y="257.00009"
         x="-0.00034085938"
         height="240"
         width="390"
         id="rect1265"
         style="fill:#000000;fill-opacity:0.990164;stroke:none;stroke-width:1.03041;stroke-linecap:round" />
      <g
         id="g1024">
        <g
           id="g988">
          <g
             transform="translate(887.46025,3.4243529)"
             id="g1300">
            <path
               style="vector-effect:none;fill:#fc624d;fill-opacity:1;stroke:#fc624d;stroke-width:0.0806534;stroke-linecap:round;stroke-linejoin:miter;stroke-miterlimit:4;stroke-dasharray:none;stroke-dashoffset:0;stroke-opacity:1"
               d="m -693.13017,265.07441 v 10e-4 c -1.0966,0.0319 -2.20382,0.32987 -3.22547,0.91975 l -40.06766,23.13324 c -0.11366,0.0658 -0.21853,0.13902 -0.32678,0.20985 -1.96116,1.19153 -3.27195,3.34903 -3.27195,5.82981 v 46.26649 c 0,2.59753 1.43282,4.84569 3.54943,5.99598 0.0136,0.008 0.0245,0.016 0.0394,0.024 l 40.06627,23.13327 c 0.0286,0.016 0.0587,0.029 0.0873,0.045 0.14229,0.0807 0.28947,0.15339 0.43804,0.22396 0.0428,0.0186 0.0851,0.0429 0.12817,0.0618 0.17553,0.0788 0.35627,0.14753 0.53946,0.21118 0.0297,0.0106 0.059,0.0213 0.0887,0.0325 0.18506,0.0615 0.37315,0.11345 0.56481,0.15925 0.0278,0.005 0.0553,0.0133 0.0831,0.0213 0.16709,0.0376 0.33689,0.0666 0.50847,0.0916 0.0583,0.008 0.11633,0.0186 0.17465,0.024 0.14719,0.016 0.29665,0.0272 0.4465,0.0352 0.0766,0.003 0.15326,0.0106 0.22958,0.0106 0.0455,9.1e-4 0.0897,0.008 0.13523,0.008 0.10195,0 0.20059,-0.0106 0.30142,-0.016 0.0774,-0.003 0.15502,-0.005 0.23241,-0.0106 0.1469,-0.0106 0.2912,-0.0301 0.43522,-0.0506 0.0739,-0.0106 0.14781,-0.0213 0.22115,-0.0338 0.14799,-0.0272 0.29362,-0.0573 0.43805,-0.0929 0.0665,-0.016 0.13262,-0.0338 0.19859,-0.0522 0.14636,-0.0407 0.29026,-0.0863 0.43241,-0.13662 0.0627,-0.0213 0.12378,-0.045 0.18591,-0.069 0.14146,-0.0549 0.28033,-0.11371 0.41691,-0.17736 0.0624,-0.029 0.12432,-0.0591 0.18594,-0.0903 0.13001,-0.0658 0.25648,-0.13608 0.3817,-0.20985 0.0706,-0.0416 0.14064,-0.0828 0.20988,-0.12677 0.10002,-0.0642 0.19784,-0.13075 0.29437,-0.19999 0.0916,-0.0655 0.18186,-0.13263 0.27044,-0.20267 0.0807,-0.0642 0.15896,-0.13075 0.23664,-0.19866 0.0897,-0.0783 0.17893,-0.15766 0.26479,-0.24101 0.0671,-0.0652 0.13145,-0.13209 0.19579,-0.2 0.0883,-0.0932 0.17547,-0.18695 0.25915,-0.28596 0.0649,-0.0767 0.12602,-0.1558 0.18732,-0.23516 0.0692,-0.0897 0.13771,-0.17949 0.20282,-0.27326 0.0692,-0.0993 0.13454,-0.20106 0.19859,-0.30423 0.0382,-0.0612 0.0804,-0.11851 0.11691,-0.18189 0.0162,-0.028 0.0279,-0.0578 0.0437,-0.0857 0.0583,-0.10439 0.11076,-0.21198 0.16339,-0.31976 0.0488,-0.0988 0.0986,-0.19707 0.14226,-0.2972 0.0373,-0.0863 0.069,-0.17523 0.10282,-0.26338 0.0496,-0.12863 0.0983,-0.25725 0.13944,-0.38732 0.0192,-0.0607 0.0347,-0.12303 0.0521,-0.18455 0.045,-0.15766 0.0881,-0.31563 0.12111,-0.47467 0.0109,-0.0519 0.0157,-0.10546 0.0267,-0.15792 0.0305,-0.16591 0.0583,-0.33188 0.0761,-0.49859 0.008,-0.0849 0.0114,-0.17177 0.0197,-0.25779 0.008,-0.12489 0.0184,-0.25006 0.0184,-0.37467 7e-4,-0.0418 0.006,-0.082 0.006,-0.1241 v -42.5565 l 8.44397,-4.87482 c 3.26927,-1.8875 4.38926,-6.02533 2.51136,-9.27782 -1.87782,-3.2525 -6.02121,-4.35094 -9.29048,-2.46347 l -11.80184,6.81435 c -2.24763,1.29765 -3.47962,3.65896 -3.41985,6.06501 -8e-5,0.0107 -10e-4,0.0186 -10e-4,0.028 v 34.56042 l -26.74195,-15.43692 v -38.52394 l 33.52799,-19.35703 34.47732,19.90355 v 38.51267 l -8.44397,4.87482 c -3.26922,1.88747 -4.39058,6.02534 -2.51277,9.2778 1.87789,3.25252 6.0227,4.35097 9.29189,2.46347 l 11.80184,-6.81291 c 0.0575,-0.033 0.10865,-0.0724 0.16479,-0.10706 0.12647,-0.0775 0.25244,-0.15553 0.37325,-0.24101 0.057,-0.0402 0.1106,-0.0836 0.1662,-0.12543 0.11883,-0.0895 0.23553,-0.18083 0.34791,-0.27747 0.0722,-0.062 0.14064,-0.12703 0.20988,-0.19174 0.0899,-0.0842 0.1809,-0.16858 0.2662,-0.25779 0.0679,-0.0706 0.13004,-0.14381 0.19435,-0.21704 0.0826,-0.094 0.16485,-0.18882 0.24227,-0.28735 0.061,-0.0778 0.11882,-0.15686 0.17608,-0.23648 0.0665,-0.0927 0.1311,-0.18562 0.19297,-0.28171 0.0608,-0.0943 0.11763,-0.19041 0.17323,-0.28734 0.0529,-0.0919 0.10501,-0.18429 0.15353,-0.27888 0.054,-0.1044 0.10386,-0.21012 0.15212,-0.31691 0.0398,-0.0881 0.0778,-0.1763 0.11408,-0.26631 0.0499,-0.12437 0.0944,-0.2506 0.13665,-0.37747 0.0272,-0.0783 0.0526,-0.15579 0.076,-0.23515 0.0387,-0.13182 0.072,-0.26471 0.10282,-0.39861 0.0192,-0.0842 0.0386,-0.16804 0.0549,-0.25353 0.0281,-0.1486 0.0494,-0.29779 0.0676,-0.44791 0.008,-0.0668 0.017,-0.13288 0.0253,-0.19999 0.0136,-0.15526 0.0213,-0.31111 0.024,-0.46762 10e-4,-0.0586 0.009,-0.11557 0.009,-0.1747 v -46.26507 c 0,-2.63007 -1.46935,-4.90009 -3.6297,-6.03684 -0.0499,-0.0306 -0.0958,-0.065 -0.14647,-0.0943 l -40.0676,-23.13308 c -0.13273,-0.0767 -0.26878,-0.14008 -0.40425,-0.20719 -1.17408,-0.79006 -2.56742,-1.19762 -3.98183,-1.15637 z m 20.87541,58.54722 a 6.7737193,6.7737193 0 0 0 -3.22688,0.90567 6.7737193,6.7737193 0 0 0 -2.48037,9.25385 6.7737193,6.7737193 0 0 0 9.25386,2.47897 6.7737193,6.7737193 0 0 0 2.47897,-9.25247 6.7737193,6.7737193 0 0 0 -6.02558,-3.38602 z"
               id="path1036-2-6"
               inkscape:connector-curvature="0"
               inkscape:export-xdpi="100.095"
               inkscape:export-ydpi="100.095"
               inkscape:export-filename="C:\Users\strix\Dropbox\kubeinit\docs\src\white_text_logo.png" />
            <g
               id="g1061"
               transform="matrix(1.0911402,0,0,1.0911402,-504.03386,66.792769)"
               style="fill:#ffffff">
              <path
                 inkscape:export-filename="C:\Users\strix\Dropbox\kubeinit\docs\src\white_text_logo.png"
                 inkscape:export-ydpi="100.095"
                 inkscape:export-xdpi="100.095"
                 d="m -301.21767,339.78517 c 2.60682,0 4.62501,-2.10227 4.62501,-4.62499 v -11.94095 l 8.74546,-8.91365 18.16367,23.79777 c 0.925,1.09317 2.18636,1.68182 3.44773,1.68182 1.09318,0 2.10227,-0.33637 2.94318,-1.09317 2.01819,-1.59775 2.35455,-4.54092 0.67273,-6.47502 l -18.66821,-24.47049 18.50003,-18.41592 c 1.76591,-1.85003 1.76591,-4.7932 0,-6.5591 -1.85,-1.85002 -4.7091,-1.85002 -6.5591,0 l -27.24549,27.32957 v -24.13415 c 0,-2.43862 -2.01819,-4.62497 -4.62501,-4.62497 -2.60682,0 -4.62501,2.18635 -4.62501,4.62497 v 49.19329 c 0,2.52272 2.01819,4.62499 4.62501,4.62499 z"
                 style="font-style:normal;font-variant:normal;font-weight:bold;font-stretch:normal;font-size:medium;line-height:1.25;font-family:Quicksand;-inkscape-font-specification:'Quicksand Bold';letter-spacing:-2.62202px;word-spacing:0px;fill:#ffffff;fill-opacity:1;stroke:none;stroke-width:2.10228"
                 id="path879"
                 inkscape:connector-curvature="0" />
              <path
                 inkscape:export-filename="C:\Users\strix\Dropbox\kubeinit\docs\src\white_text_logo.png"
                 inkscape:export-ydpi="100.095"
                 inkscape:export-xdpi="100.095"
                 d="m -224.78571,322.29423 v -20.09777 c 0,-2.35455 -2.18638,-4.45682 -4.54093,-4.45682 -2.5227,0 -4.37271,2.10227 -4.37271,4.45682 v 20.09777 c -0.084,4.79317 -3.95227,8.5773 -8.82955,8.5773 -4.79319,0 -8.57729,-3.78413 -8.57729,-8.5773 v -20.09777 c 0,-2.35455 -1.93409,-4.45682 -4.45682,-4.45682 -2.43864,0 -4.45682,2.10227 -4.45682,4.45682 v 20.09777 c 0,9.5864 7.90455,17.49094 17.49093,17.49094 9.67045,0 17.74319,-7.90454 17.74319,-17.49094 z"
                 style="font-style:normal;font-variant:normal;font-weight:bold;font-stretch:normal;font-size:medium;line-height:1.25;font-family:Quicksand;-inkscape-font-specification:'Quicksand Bold';letter-spacing:-2.62202px;word-spacing:0px;fill:#ffffff;fill-opacity:1;stroke:none;stroke-width:2.10228"
                 id="path881"
                 inkscape:connector-curvature="0" />
              <path
                 inkscape:export-filename="C:\Users\strix\Dropbox\kubeinit\docs\src\white_text_logo.png"
                 inkscape:export-ydpi="100.095"
                 inkscape:export-xdpi="100.095"
                 d="m -219.8561,335.24425 c 0,2.43865 2.01816,4.54092 4.54091,4.54092 2.27046,0 4.03638,-1.59772 4.45682,-3.61592 3.19547,2.18637 7.23185,3.61592 11.43639,3.61592 11.35228,0 20.43412,-9.58637 20.43412,-20.93866 0,-11.52047 -9.08184,-21.10687 -20.43412,-21.10687 -4.12046,0 -8.15684,1.34548 -11.26819,3.53182 v -15.80909 c 0,-2.43865 -2.01819,-4.54092 -4.62502,-4.54092 -2.52275,0 -4.54091,2.10227 -4.54091,4.54092 v 33.30004 c 0,0 0,0 0,0.0839 0,0 0,0 0,0 z m 12.52956,-24.89094 c 2.10227,-2.18637 4.79318,-3.44775 7.90456,-3.44775 3.02727,0 5.80226,1.26138 7.90454,3.44775 2.1023,2.10227 3.36366,5.12955 3.36366,8.4932 0,3.19544 -1.26136,6.22274 -3.36366,8.32502 -2.10228,2.18635 -4.87727,3.44772 -7.90454,3.44772 -3.11138,0 -5.80229,-1.26137 -7.90456,-3.44772 -2.10228,-2.10228 -3.36363,-5.12958 -3.36363,-8.32502 0,-3.36365 1.26135,-6.39093 3.36363,-8.4932 z"
                 style="font-style:normal;font-variant:normal;font-weight:bold;font-stretch:normal;font-size:medium;line-height:1.25;font-family:Quicksand;-inkscape-font-specification:'Quicksand Bold';letter-spacing:-2.62202px;word-spacing:0px;fill:#ffffff;fill-opacity:1;stroke:none;stroke-width:2.10228"
                 id="path883"
                 inkscape:connector-curvature="0" />
              <path
                 inkscape:export-filename="C:\Users\strix\Dropbox\kubeinit\docs\src\white_text_logo.png"
                 inkscape:export-ydpi="100.095"
                 inkscape:export-xdpi="100.095"
                 d="m -154.91308,339.78517 c 5.97046,0 10.93184,-1.76592 15.05231,-5.54999 1.9341,-1.76593 1.09318,-4.28865 0,-5.46593 -1.0932,-1.34545 -4.54092,-1.59772 -6.30683,0.2522 -2.10227,1.59772 -5.7182,2.35455 -8.74548,2.10227 -2.94318,-0.25219 -6.30681,-1.76592 -8.07273,-3.7841 -1.51363,-1.42957 -2.43863,-3.61592 -2.8591,-5.54999 h 26.74097 c 2.35455,0 4.12042,-1.34548 4.37269,-3.36365 0.0839,-0.16831 0.0839,-0.58865 0.0839,-0.75683 0,0 0,0 0,0 0,0 0,0 0,0 0,-0.16831 0,-0.33637 0,-0.42045 -0.67275,-11.35229 -9.33412,-19.50914 -20.26595,-19.50914 -11.52047,0 -20.43412,9.5864 -20.5182,21.02277 0.084,11.43639 8.99773,20.93866 20.5182,21.02276 z m 0,-34.05688 c 7.31593,0.58865 11.60456,5.55002 12.44546,8.91364 h -23.79774 c 0.67273,-3.44769 4.20455,-8.57727 11.35228,-8.91364 z"
                 style="font-style:normal;font-variant:normal;font-weight:bold;font-stretch:normal;font-size:medium;line-height:1.25;font-family:Quicksand;-inkscape-font-specification:'Quicksand Bold';letter-spacing:-2.62202px;word-spacing:0px;fill:#ffffff;fill-opacity:1;stroke:none;stroke-width:2.10228"
                 id="path885"
                 inkscape:connector-curvature="0" />
              <path
                 inkscape:export-filename="C:\Users\strix\Dropbox\kubeinit\docs\src\white_text_logo.png"
                 inkscape:export-ydpi="100.095"
                 inkscape:export-xdpi="100.095"
                 d="m -97.158727,297.73964 c -3.279553,0 -6.390923,1.00913 -8.913643,2.60685 -0.75683,-1.59772 -2.35455,-2.60685 -4.12048,-2.60685 -2.52272,0 -4.45682,2.0182 -4.45682,4.45682 v 13.03412 c 0,0 0,0 0,0 v 20.09777 c 0,2.43865 1.9341,4.45682 4.45682,4.45682 2.18638,0 4.0364,-1.59772 4.45683,-3.61592 0.1683,-0.33635 0.1683,-0.58863 0.1683,-0.8409 v -20.09777 c 0,-4.7091 3.70003,-8.49317 8.409126,-8.49317 4.793172,0 8.745472,3.78407 8.745472,8.49317 v 20.09777 c 0,2.43865 2.102274,4.45682 4.456823,4.45682 2.438623,0 4.372722,-2.01817 4.372722,-4.45682 v -20.09777 c 0,-9.50229 -7.820472,-17.49094 -17.575017,-17.49094 z"
                 style="font-style:normal;font-variant:normal;font-weight:bold;font-stretch:normal;font-size:medium;line-height:1.25;font-family:Quicksand;-inkscape-font-specification:'Quicksand Bold';letter-spacing:-2.62202px;word-spacing:0px;fill:#ffffff;fill-opacity:1;stroke:none;stroke-width:2.10228"
                 id="path889"
                 inkscape:connector-curvature="0" />
              <path
                 inkscape:export-filename="C:\Users\strix\Dropbox\kubeinit\docs\src\white_text_logo.png"
                 inkscape:export-ydpi="100.095"
                 inkscape:export-xdpi="100.095"
                 d="m -70.701494,297.8235 c -2.522725,0 -4.541434,1.93448 -4.541434,4.62538 v 32.79605 c 0,2.52274 2.018709,4.54006 4.541434,4.54006 2.606826,0 4.54006,-2.01732 4.54006,-4.54006 v -32.79605 c 0,-2.6909 -1.933234,-4.62538 -4.54006,-4.62538 z"
                 style="font-style:normal;font-variant:normal;font-weight:bold;font-stretch:normal;font-size:medium;line-height:1.25;font-family:Quicksand;-inkscape-font-specification:'Quicksand Bold';letter-spacing:-2.62202px;word-spacing:0px;fill:#ffffff;fill-opacity:1;stroke:none;stroke-width:2.10228"
                 id="path891" />
              <path
                 inkscape:export-filename="C:\Users\strix\Dropbox\kubeinit\docs\src\white_text_logo.png"
                 inkscape:export-ydpi="100.095"
                 inkscape:export-xdpi="100.095"
                 d="m -44.242253,297.73964 h -2.102301 v -12.19319 c 0,-2.60683 -2.018173,-4.625 -4.624997,-4.625 -2.606824,0 -4.709098,2.01817 -4.709098,4.625 v 12.19319 h -2.438623 c -2.606824,0 -4.625024,2.0182 -4.625024,4.62502 0,2.52273 2.0182,4.625 4.625024,4.625 h 2.438623 v 23.46142 c 0,5.12954 4.204548,9.33409 9.334095,9.33409 2.606824,0 4.625024,-2.01817 4.625024,-4.62499 0,-2.60683 -2.0182,-4.7091 -4.625024,-4.7091 0,0 0,0 0,0 v -23.46142 h 2.102301 c 2.522723,0 4.709098,-2.10227 4.709098,-4.625 0,-2.60682 -2.186375,-4.62502 -4.709098,-4.62502 z"
                 style="font-style:normal;font-variant:normal;font-weight:bold;font-stretch:normal;font-size:medium;line-height:1.25;font-family:Quicksand;-inkscape-font-specification:'Quicksand Bold';letter-spacing:-2.62202px;word-spacing:0px;fill:#ffffff;fill-opacity:1;stroke:none;stroke-width:2.10228"
                 id="path893"
                 inkscape:connector-curvature="0" />
              <path
                 inkscape:export-filename="C:\Users\strix\Dropbox\kubeinit\docs\src\white_text_logo.png"
                 inkscape:export-ydpi="100.095"
                 inkscape:export-xdpi="100.095"
                 id="path891-4"
                 d="m -124.20098,290.77739 c -2.52272,0 -4.54144,1.93449 -4.54143,4.62539 v 7.0461 25.74994 7.04611 c 0,2.52274 2.01871,4.54006 4.54143,4.54006 2.60682,0 4.54006,-2.01732 4.54006,-4.54006 v -7.04611 -25.74994 -7.0461 c 0,-2.6909 -1.93324,-4.62539 -4.54006,-4.62539 z"
                 style="font-style:normal;font-variant:normal;font-weight:bold;font-stretch:normal;font-size:medium;line-height:1.25;font-family:Quicksand;-inkscape-font-specification:'Quicksand Bold';letter-spacing:-2.62202px;word-spacing:0px;fill:#ffffff;fill-opacity:1;stroke:none;stroke-width:2.10228" />
              <circle
                 inkscape:export-filename="C:\Users\strix\Dropbox\kubeinit\docs\src\white_text_logo.png"
                 inkscape:export-ydpi="100.095"
                 inkscape:export-xdpi="100.095"
                 r="6.6263132"
                 cy="281.30124"
                 cx="-124.2012"
                 id="path886-5"
                 style="vector-effect:none;fill:#ffffff;fill-opacity:1;stroke:#fc624d;stroke-width:0.0628488;stroke-linecap:round;stroke-linejoin:miter;stroke-miterlimit:4;stroke-dasharray:none;stroke-dashoffset:0;stroke-opacity:1" />
            </g>
          </g>
        </g>
        <g
           id="g974">
          <g
             id="g1306"
             transform="matrix(1.0190087,0,0,1.0190087,900.60106,-5.4037552)">
            <path
               class="a"
               d="m -737.96593,457.72951 a 11.653735,11.653735 0 0 1 8.46844,3.45464 11.288705,11.288705 0 0 1 3.51578,8.40729 11.923074,11.923074 0 0 1 -3.54635,8.59073 11.424139,11.424139 0 0 1 -8.46844,3.60749 c -3.21006,0 -5.99211,-1.1923 -8.34615,-3.60749 a 11.686447,11.686447 0 0 1 -3.51578,-8.49901 11.703567,11.703567 0 0 1 3.45464,-8.46844 11.492926,11.492926 0 0 1 8.43786,-3.48521 z m -7.64299,12.04537 a 7.8114476,7.8114476 0 0 0 2.2929,5.59467 c 1.5286,1.58974 3.33234,2.41519 5.38067,2.41519 a 7.3629566,7.3629566 0 0 0 5.44181,-2.35405 7.8695344,7.8695344 0 0 0 2.2929,-5.68639 8.0404318,8.0404318 0 0 0 -2.2929,-5.71696 c -1.5286,-1.62031 -3.33235,-2.44576 -5.44181,-2.44576 -1.98718,0 -3.79093,0.79488 -5.3501,2.44576 a 8.0902641,8.0902641 0 0 0 -2.32347,5.74601 z"
               id="path962"
               style="stroke-width:0.30572" />
            <polygon
               points="101.8,81.1 101.8,63.2 101.7,0 88.3,0 88.3,112.4 101.8,112.4 "
               id="polygon964"
               transform="matrix(0.30571984,0,0,0.30571984,-749.85843,447.05989)"
               style="fill:#ffffff" />
            <path
               d="m -703.32787,479.8942 a 10.881792,10.881792 0 0 0 -1.34517,-5.19724 c -0.88658,-1.65088 -1.71203,-2.81262 -2.47633,-3.45463 a 8.4491792,8.4491792 0 0 0 -1.77317,-1.25345 l -1.34517,-0.7643 c 3.8215,-1.95661 5.99211,-4.89152 6.57298,-8.77416 l 0.36686,-2.04832 h -4.31065 l -0.27515,1.55917 c -0.39743,2.10947 -1.5286,3.88264 -3.42406,5.31952 a 10.391112,10.391112 0 0 1 -4.86094,2.0789 v 3.88264 a 10.008045,10.008045 0 0 1 5.25838,2.10947 c 1.83432,1.46745 2.90434,3.54635 3.17948,6.20611 l 0.18344,1.86489 h 4.34122 z"
               id="path966"
               style="fill:#ffffff;stroke-width:0.30572" />
            <path
               d="m -681.13261,447.05989 v 22.0424 c 0,2.44576 -0.7643,4.52466 -2.32347,6.20611 a 7.4176805,7.4176805 0 0 1 -5.65582,2.53748 7.3699882,7.3699882 0 0 1 -5.50295,-2.32347 7.5179566,7.5179566 0 0 1 -2.2929,-5.44181 7.4069803,7.4069803 0 0 1 2.53747,-5.71697 8.8047314,8.8047314 0 0 1 6.14497,-2.29289 6.9548206,6.9548206 0 0 1 0.73373,0.0306 12.444632,12.444632 0 0 1 1.31459,0.214 21.386631,21.386631 0 0 1 2.47634,0.91716 v -4.28008 a 14.06831,14.06831 0 0 0 -2.72091,-0.7643 11.510658,11.510658 0 0 0 -2.23176,-0.18343 c -3.60749,0 -6.57297,1.10059 -8.86587,3.30178 -2.2929,2.20118 -3.45464,5.07494 -3.45464,8.59072 0,3.51578 1.13117,6.38955 3.39349,8.59073 2.26233,2.20118 5.16667,3.30177 8.77416,3.30177 3.11835,0 5.68639,-0.85601 7.67357,-2.53747 v 2.53747 h 4.15779 v -34.72977 z"
               id="path968"
               style="fill:#ffffff;stroke-width:0.30572" />
          </g>
          <g
             transform="matrix(0.78334807,0,0,0.78334807,112.81171,207.90687)"
             id="g1002">
            <path
               d="m 17.780153,319.29406 c -0.267235,-0.85515 -0.908598,-1.54996 -1.710302,-1.97753 l -16.30131365,-7.80326 c -0.42757544,-0.21378 -0.90859785,-0.26723 -1.33617325,-0.26723 -0.4275754,0 -0.9085978,0 -1.3361732,0.10689 l -16.3013139,7.8567 c -0.801704,0.37413 -1.38962,1.06894 -1.603408,1.97754 l -4.00852,17.58404 c -0.16034,0.9086 0.05345,1.81719 0.587917,2.56545 l 11.277302,13.94965 c 0.641363,0.64136 1.549961,1.06894 2.458559,1.12239 H 7.4648953 c 0.9620447,0.10689 1.8706425,-0.32069 2.4585588,-1.12239 L 21.200756,339.33666 c 0.53447,-0.74826 0.748257,-1.65685 0.641363,-2.56545 z"
               id="path10349"
               style="fill:#326de6;stroke-width:0.534469" />
            <path
               d="m 15.268147,336.0764 v 0 c -0.05345,0 -0.106894,0 -0.106894,-0.0534 0,-0.0534 -0.106894,-0.0534 -0.213788,-0.0534 -0.213787,-0.0534 -0.427575,-0.0534 -0.641363,-0.0534 -0.106894,0 -0.213787,0 -0.320681,-0.0534 h -0.05345 c -0.587916,-0.0534 -1.22928,-0.16034 -1.817196,-0.32068 -0.160341,-0.0534 -0.320681,-0.21379 -0.374128,-0.37413 0.05345,0 0,0 0,0 v 0 l -0.427576,-0.10689 c 0.213788,-1.54996 0.106894,-3.15337 -0.213787,-4.70333 -0.374129,-1.54996 -1.015492,-3.04648 -1.870643,-4.38265 l 0.3206815,-0.32068 v 0 -0.0534 c 0,-0.16034 0.053447,-0.37413 0.1603408,-0.48102 0.4810227,-0.42758 0.9620447,-0.74826 1.4965137,-1.06894 v 0 c 0.106894,-0.0534 0.213788,-0.10689 0.320682,-0.16034 0.213788,-0.1069 0.374128,-0.21379 0.587916,-0.32068 0.05345,-0.0534 0.106894,-0.0534 0.160341,-0.1069 0.05345,-0.0534 0,-0.0534 0,-0.10689 v 0 c 0.481022,-0.37413 0.587916,-1.01549 0.213788,-1.49651 -0.160341,-0.21379 -0.481023,-0.37413 -0.748257,-0.37413 -0.267235,0 -0.53447,0.10689 -0.748257,0.26723 v 0 l -0.05345,0.0534 c -0.05345,0.0534 -0.106894,0.10689 -0.160341,0.10689 -0.160341,0.16034 -0.320682,0.32068 -0.427576,0.48102 -0.05345,0.1069 -0.16034,0.16035 -0.213787,0.21379 v 0 c -0.3741287,0.42758 -0.8551511,0.85515 -1.3361735,1.17583 -0.1068938,0.0534 -0.2137877,0.1069 -0.3206816,0.1069 -0.053447,0 -0.1603407,0 -0.2137877,-0.0534 h -0.053447 l -0.4275754,0.26724 C 7.3580014,323.67671 6.876979,323.24914 6.4494036,322.82156 4.4718672,321.2716 2.0133084,320.30955 -0.4986973,320.04232 l -0.0534469,-0.42758 v 0 0.0534 c -0.16034079,-0.10689 -0.21378772,-0.26723 -0.26723465,-0.42757 0,-0.58792 0,-1.17584 0.10689386,-1.8172 v -0.0534 c 0,-0.10689 0.0534469,-0.21378 0.0534469,-0.32068 0.0534469,-0.21379 0.0534469,-0.42757 0.10689386,-0.64136 v -0.32068 0 c 0.0534469,-0.53447 -0.37412851,-1.06894 -0.90859777,-1.12239 -0.3206816,-0.0534 -0.6413632,0.1069 -0.9085978,0.37413 -0.2137878,0.21379 -0.3206816,0.48102 -0.3206816,0.74826 v 0 0.26723 c 0,0.21379 0.053447,0.42758 0.1068938,0.64136 0.053447,0.1069 0.053447,0.21379 0.053447,0.32069 v 0.0534 c 0.1068938,0.58792 0.1068938,1.17584 0.1068938,1.8172 -0.053447,0.16034 -0.1068938,0.32068 -0.2672346,0.42757 v 0.1069 0 l -0.053447,0.42757 c -0.5879162,0.0534 -1.1758324,0.16034 -1.8171956,0.26724 -2.5120057,0.53447 -4.8102237,1.87064 -6.573972,3.74128 l -0.320682,-0.21378 h -0.05345 c -0.05345,0 -0.106894,0.0534 -0.213788,0.0534 -0.106893,0 -0.213787,-0.0534 -0.320681,-0.10689 -0.481023,-0.37413 -0.962045,-0.80171 -1.336173,-1.22928 v 0 c -0.05345,-0.10689 -0.160341,-0.16034 -0.213788,-0.21379 -0.160341,-0.16034 -0.267235,-0.32068 -0.427576,-0.48102 -0.05345,-0.0534 -0.106893,-0.0534 -0.16034,-0.10689 -0.05345,-0.0534 -0.05345,-0.0534 -0.05345,-0.0534 v 0 c -0.213788,-0.16034 -0.481023,-0.26724 -0.748257,-0.26724 -0.320682,0 -0.587917,0.1069 -0.748257,0.37413 -0.320682,0.48102 -0.213788,1.12239 0.213787,1.49652 v 0 c 0.05345,0 0.05345,0.0534 0.05345,0.0534 0,0 0.106894,0.1069 0.160341,0.1069 0.160341,0.10689 0.374129,0.21378 0.587916,0.32068 0.106894,0.0534 0.213788,0.10689 0.320682,0.16034 v 0 c 0.534469,0.32068 1.068939,0.64136 1.496514,1.06894 0.106894,0.10689 0.213788,0.32068 0.160341,0.48102 v -0.0534 0 l 0.320681,0.32069 c -0.05345,0.10689 -0.106894,0.16034 -0.16034,0.26723 -1.656855,2.6189 -2.351665,5.71882 -1.870643,8.7653 l -0.427575,0.10689 v 0 c 0,0.0534 -0.05345,0.0534 -0.05345,0.0534 -0.05345,0.16034 -0.213788,0.26723 -0.374129,0.37413 -0.587916,0.16034 -1.175832,0.26723 -1.817196,0.32068 v 0 c -0.106893,0 -0.213787,0 -0.320681,0.0534 -0.213788,0 -0.427576,0.0534 -0.641363,0.0534 -0.05345,0 -0.106894,0.0534 -0.213788,0.0534 -0.05345,0 -0.05345,0 -0.106894,0.0534 v 0 c -0.587916,0.1069 -0.962045,0.64137 -0.855151,1.22928 0,0 0,0 0,0 0.106894,0.48103 0.587917,0.80171 1.068939,0.74826 0.106894,0 0.160341,0 0.267235,-0.0534 v 0 c 0.05345,0 0.05345,0 0.05345,-0.0534 0,-0.0534 0.160341,0 0.213788,0 0.213788,-0.0534 0.427576,-0.16034 0.587916,-0.21379 0.106894,-0.0534 0.213788,-0.10689 0.320682,-0.10689 h 0.05345 c 0.587916,-0.21379 1.122385,-0.37413 1.763749,-0.48103 h 0.05345 c 0.16034,0 0.320681,0.0534 0.427575,0.16034 0.05345,0 0.05345,0.0534 0.05345,0.0534 v 0 l 0.481022,-0.0534 c 0.801704,2.45856 2.298218,4.64989 4.3826485,6.2533 0.4810224,0.37412 0.9085978,0.69481 1.4430671,0.96204 l -0.2672346,0.37413 v 0 c 0,0.0534 0.053447,0.0534 0.053447,0.0534 0.1068939,0.16034 0.1068939,0.37412 0.053447,0.53446 -0.2137878,0.53447 -0.5344693,1.06894 -0.8551509,1.54997 v 0.0534 c -0.053447,0.1069 -0.1068939,0.16034 -0.2137877,0.26724 -0.1068939,0.10689 -0.2137878,0.32068 -0.3741286,0.53447 -0.053447,0.0534 -0.053447,0.10689 -0.1068938,0.16034 0,0 0,0.0534 -0.053447,0.0534 v 0 c -0.267235,0.53447 -0.053447,1.17584 0.4275754,1.44307 0.1068939,0.0534 0.2672346,0.1069 0.3741285,0.1069 0.4275754,0 0.801704,-0.26724 1.0154917,-0.64137 v 0 c 0,0 0,-0.0534 0.053447,-0.0534 0,-0.0534 0.053447,-0.1069 0.1068939,-0.16035 0.053447,-0.21378 0.1603408,-0.37412 0.2137877,-0.58791 l 0.1068938,-0.32068 v 0 c 0.1603408,-0.58792 0.4275755,-1.12239 0.6948101,-1.65686 0.1068939,-0.16034 0.2672347,-0.26723 0.4275755,-0.32068 0.053447,0 0.053447,0 0.053447,-0.0534 v 0 l 0.2137877,-0.42757 c 1.4965141,0.58791 3.046475,0.85515 4.6498829,0.85515 0.96204477,0 1.92408951,-0.1069 2.8861343,-0.37413 0.5879162,-0.10689 1.1758324,-0.32068 1.7103017,-0.48102 l 0.2137877,0.37413 v 0 c 0.053447,0 0.053447,0 0.053447,0.0534 0.1603408,0.0534 0.3206815,0.16034 0.4275754,0.32068 0.2672347,0.53447 0.5344693,1.06894 0.6948101,1.65686 v 0.0534 l 0.1068939,0.32068 c 0.053447,0.21379 0.1068938,0.42757 0.2137877,0.58791 0.053447,0.0534 0.053447,0.1069 0.1068938,0.16035 0,0 0,0.0534 0.053447,0.0534 v 0 c 0.2137877,0.37413 0.5879162,0.64137 1.0154916,0.64137 0.1603408,0 0.2672347,-0.0534 0.4275755,-0.1069 0.2137877,-0.10689 0.4275754,-0.32068 0.4810223,-0.58791 0.053447,-0.26724 0.053447,-0.53447 -0.053447,-0.80171 v 0 c 0,-0.0534 -0.053447,-0.0534 -0.053447,-0.0534 0,-0.0534 -0.053447,-0.10689 -0.1068939,-0.16034 -0.1068938,-0.21378 -0.2137877,-0.37413 -0.3741285,-0.53447 -0.053447,-0.10689 -0.1068938,-0.16034 -0.2137877,-0.26723 v -0.10689 c -0.3741285,-0.48103 -0.6413632,-1.0155 -0.8551509,-1.54997 -0.053447,-0.16034 -0.053447,-0.37412 0.053447,-0.53446 0,-0.0534 0.053447,-0.0534 0.053447,-0.0534 v 0 l -0.1603408,-0.42758 c 2.7257934,-1.65685 4.8102237,-4.2223 5.7722686,-7.26878 l 0.427575,0.0534 v 0 c 0.05345,0 0.05345,-0.0534 0.05345,-0.0534 0.106894,-0.10689 0.267235,-0.16034 0.427576,-0.16034 h 0.05345 c 0.587917,0.10689 1.175833,0.26723 1.710302,0.48102 h 0.05345 c 0.106894,0.0534 0.213788,0.1069 0.320682,0.1069 0.213787,0.10689 0.374128,0.21378 0.587916,0.26723 0.05345,0 0.106894,0.0534 0.213788,0.0534 0.05345,0 0.05345,0 0.106894,0.0534 v 0 c 0.106893,0.0534 0.16034,0.0534 0.267234,0.0534 0.481023,0 0.908598,-0.32068 1.068939,-0.74826 -0.05345,-0.58791 -0.481023,-1.01549 -0.962045,-1.12238 z m -15.44616272,-1.65686 -1.44306708,0.69481 -1.4430671,-0.69481 -0.3741285,-1.54996 1.0154916,-1.28272 h 1.60340792 l 1.01549167,1.28272 z m 8.71184962,-3.47405 c 0.2672346,1.12239 0.3206816,2.24477 0.2137877,3.36716 l -5.0774584,-1.44307 v 0 c -0.4810223,-0.10689 -0.748257,-0.58791 -0.6413631,-1.06894 0.053447,-0.16034 0.1068938,-0.26723 0.2137877,-0.37412 l 4.0085198,-3.6344 c 0.5879162,0.96205 1.0154916,2.03099 1.2827263,3.15337 z m -2.8861342,-5.1309 -4.3826483,3.09992 c -0.37412852,0.21379 -0.90859782,0.16034 -1.17583247,-0.21379 -0.10689386,-0.10689 -0.16034079,-0.21379 -0.16034079,-0.37413 l -0.32068158,-5.39814 c 2.35166494,0.26724 4.43609524,1.28273 6.03950314,2.88614 z m -9.6738944,-2.7258 1.0689386,-0.21378 -0.2672346,5.34469 v 0 c 0,0.48102 -0.4275755,0.85515 -0.9085978,0.85515 -0.1603408,0 -0.2672347,-0.0534 -0.4275755,-0.10689 l -4.4360952,-3.15337 c 1.3896202,-1.33617 3.099922,-2.29822 4.9705645,-2.7258 z m -6.5205253,4.70333 3.9550727,3.5275 v 0 c 0.3741285,0.32068 0.4275754,0.85515 0.1068938,1.22928 -0.1068938,0.16034 -0.2137877,0.21379 -0.4275754,0.26724 l -5.1843521,1.49651 c -0.160341,-2.24477 0.374128,-4.54299 1.549961,-6.52053 z m -0.908598,9.03254 5.2912461,-0.9086 c 0.4275755,0 0.8551509,0.26723 0.9085978,0.69481 0.053447,0.16034 0.053447,0.37413 -0.053447,0.53447 v 0 l -2.0309833,4.91712 c -1.8706426,-1.22928 -3.3671566,-3.09993 -4.1154136,-5.2378 z m 12.13245316,6.62742 c -0.74825702,0.16034 -1.49651404,0.26723 -2.29821796,0.26723 -1.1223856,0 -2.298218,-0.21379 -3.3671566,-0.53447 l 2.6188996,-4.75678 c 0.2672346,-0.32068 0.69481,-0.42757 1.0689386,-0.21378 0.1603407,0.10689 0.2672346,0.21378 0.42757539,0.37412 v 0 l 2.56545261,4.64989 c -0.3206815,0.0534 -0.6413631,0.10689 -1.01549164,0.21379 z m 6.52052544,-4.64989 c -0.8017039,1.28273 -1.9240895,2.40511 -3.2068158,3.20682 L 1.9064146,336.985 c -0.1068939,-0.42758 0.1068938,-0.85515 0.4810223,-1.0155 0.1603408,-0.0534 0.3206816,-0.10689 0.4810224,-0.10689 l 5.344693,0.9086 c -0.2672347,0.74826 -0.5879162,1.44307 -1.0154917,2.03098 z"
               id="path10351"
               style="fill:#ffffff;stroke-width:0.534469" />
          </g>
          <circle
             style="fill:#ffffff;fill-opacity:0.990164;stroke-width:1.14216;stroke-linecap:round"
             id="path899"
             cx="236.47368"
             cy="467.57306"
             r="14.419791" />
          <g
             transform="matrix(0.55298079,0,0,0.55298079,218.7783,449.87767)"
             id="g857"
             style="fill:#ffffff;fill-rule:evenodd;stroke:#000000;stroke-linecap:round;stroke-linejoin:round">
            <use
               height="100%"
               width="100%"
               xlink:href="#A"
               x="0.5"
               y="0.5"
               id="use841" />
            <symbol
               id="A"
               overflow="visible">
              <path
                 d="m 32,52.375 c -11.253,0 -20.376,-9.12 -20.376,-20.376 0,-11.256 9.124,-20.374 20.376,-20.374 11.252,0 20.374,9.123 20.377,20.375 C 52.38,43.252 43.257,52.375 32,52.375 Z M 64,32 C 64,49.672 49.672,64 32,64 14.328,64 0,49.672 0,32 0,14.328 14.325,0 32,0 49.675,0 64,14.327 64,32 Z M 32,7.784 C 18.627,7.787 7.788,18.628 7.786,32 7.784,45.372 18.626,56.216 32,56.216 45.374,56.216 56.216,45.376 56.216,32 56.216,18.624 45.37,7.784 32,7.784 Z"
                 stroke="none"
                 fill="#772953"
                 fill-rule="nonzero"
                 id="path843" />
            </symbol>
          </g>
          <path
             style="fill:#ffffff;stroke:none;stroke-width:0.264583px;stroke-linecap:butt;stroke-linejoin:miter;stroke-opacity:1"
             d="m 277.3908,483.65613 c -2.06911,-1.06523 -5.77431,-3.24441 -7.63047,-4.54194 -1.85616,-1.29753 -1.86296,-1.71346 -1.86362,-3.03768 -6.7e-4,-1.32421 0.005,-3.55659 -0.0283,-5.15511 -0.0331,-1.59852 -0.10474,-2.56313 0.0469,-3.15861 0.15162,-0.59548 0.52642,-0.82147 0.81851,-1.09978 0.2921,-0.27832 0.50155,-0.60903 0.8206,-1.61513 0.31905,-1.00609 0.75031,-2.69796 1.59095,-4.11194 0.84065,-1.41397 2.09188,-2.55496 3.53066,-3.33496 1.43878,-0.77999 3.06483,-1.19891 4.69099,-1.28429 1.62616,-0.0854 3.25221,0.16265 4.48142,0.62577 1.22921,0.46312 2.06153,1.14111 2.9462,2.15815 0.88467,1.01703 1.82171,2.37299 2.39214,3.69041 0.57043,1.31742 0.77438,2.59622 1.11902,3.41473 0.34464,0.81852 0.8297,1.1768 1.01971,1.77213 0.19,0.59532 0.0853,1.42764 0.055,2.67067 -0.0303,1.24303 0.0138,2.89664 -0.0496,4.33254 -0.0634,1.43591 -0.23429,2.65407 -0.6697,3.48077 -0.43542,0.82669 -1.13543,1.26213 -1.96501,1.73894 -0.82959,0.47681 -1.78867,0.99493 -3.20532,1.73908 -1.41664,0.74416 -3.29073,1.71427 -4.44428,2.22362 -1.15354,0.50934 -1.58663,0.55786 -3.65574,-0.50737 z"
             id="path950"
             inkscape:path-effect="#path-effect952"
             inkscape:original-d="m 279.02659,484.76991 c -3.70495,-2.17893 -7.41014,-4.35811 -11.11562,-6.53756 -0.007,-0.41569 -0.0132,-0.83163 -0.0204,-1.24785 0.006,-2.2322 0.0114,-4.46458 0.0164,-6.69726 -0.0714,-0.96438 -0.14306,-1.92899 -0.21497,-2.89388 0.3751,-0.22574 0.7499,-0.45173 1.12447,-0.678 0.20974,-0.33047 0.41918,-0.66119 0.62839,-0.99219 0.43021,-1.68097 0.86016,-3.37317 1.28984,-5.06015 1.25156,-1.14077 2.50278,-2.28177 3.75378,-3.42305 1.62639,-0.41866 3.25244,-0.83758 4.87825,-1.25677 1.6264,0.24832 3.25245,0.49636 4.87826,0.74414 0.83262,0.67827 1.66494,1.35626 2.49701,2.03399 0.93733,1.35628 1.87438,2.71224 2.81119,4.06796 0.20423,1.27911 0.40818,2.55791 0.61185,3.83646 0.48535,0.35857 0.97041,0.71685 1.45521,1.07487 -0.10446,0.83262 -0.20921,1.66494 -0.31419,2.49701 0.0444,1.65394 0.0885,3.30755 0.13229,4.96093 -0.1706,1.21848 -0.3415,2.43664 -0.51263,3.65456 -0.6998,0.43574 -1.39981,0.87118 -2.10013,1.30639 -0.95887,0.51841 -1.91795,1.03653 -2.87735,1.55442 -1.8739,0.97042 -3.74799,1.94054 -5.62239,2.91042 -0.43282,0.0488 -0.86591,0.0973 -1.29926,0.14556 z"
             sodipodi:nodetypes="cccccccccccccccccccccc" />
          <g
             transform="matrix(2.6752078,0,0,2.6752078,-55.363212,-170.15112)"
             id="g1038">
            <g
               id="g917"
               transform="matrix(0.26458333,0,0,0.26458333,111.82835,228.5169)">
              <path
                 class="st0"
                 d="m 45.532024,50.438942 h -0.870998 c -1.318268,0 -2.071564,-0.517891 -2.848396,-2.259888 -0.329567,-0.776836 -0.776841,-2.165725 -1.38889,-2.165725 h -0.635593 v 4.378532 h -2.730698 v -11.08757 h 4.566853 c 2.165726,0 3.625236,1.059322 3.625236,3.083805 0,1.647835 -1.129943,2.660076 -2.236347,3.013183 0.329567,0.282486 0.564972,0.659134 0.776837,1.059323 0.47081,0.94162 0.77684,1.977398 1.741997,1.977398 -10e-7,0 -10e-7,2.000942 -10e-7,2.000942 z m -5.720337,-9.133709 v 2.730698 h 0.988698 c 0.77684,0 1.71846,-0.235405 1.71846,-1.435971 0,-0.96516 -0.635594,-1.294727 -1.38889,-1.294727 z"
                 id="path909" />
              <path
                 class="st0"
                 d="m 46.450104,39.304291 h 2.730697 v 3.107345 c 0,0.353108 -0.04708,0.847458 -0.07062,1.224106 h 0.07062 c 0.188324,-0.282486 0.400185,-0.706215 0.682675,-1.035782 l 2.707153,-3.295669 h 2.966107 l -3.601696,4.354992 3.813556,6.732582 H 52.59417 l -2.565915,-4.637474 -0.823913,1.012241 v 3.648773 h -2.754238 z"
                 id="path911" />
              <path
                 class="st0"
                 d="m 56.643135,39.304291 h 7.344631 v 2.048023 h -4.590393 v 2.37759 h 3.860638 v 2.04802 h -3.860638 v 2.589454 h 4.755177 v 2.048024 h -7.509415 z"
                 id="path913" />
              <path
                 class="st0"
                 d="m 77.947281,36.667759 c -0.164787,-3.436913 -1.812622,-13.512241 -3.884186,-13.088512 -1.177025,0.235405 -1.177025,2.354047 -1.177025,6.826742 0,3.695856 -3.342743,4.496233 -4.496231,4.661016 H 66.71846 c -0.02354,-3.154424 -0.965157,-6.261768 -2.730697,-8.898304 l 0.447265,-0.400188 c -0.02354,-0.258946 0.07062,-0.517891 0.235405,-0.706215 0.564972,-0.49435 1.200569,-0.918079 1.859703,-1.294727 0.353104,-0.188324 0.706215,-0.376646 1.035774,-0.612051 0.07063,-0.07062 0.188332,-0.141243 0.282486,-0.211867 0.588517,-0.376646 0.776841,-1.129942 0.400193,-1.718454 -0.376648,-0.588513 -1.129944,-0.776837 -1.71846,-0.400189 -0.09416,0.04708 -0.16478,0.117703 -0.235405,0.188324 -0.09416,0.07062 -0.188324,0.164784 -0.282486,0.211865 -0.282486,0.282486 -0.564965,0.564972 -0.823914,0.870998 -0.494354,0.564972 -1.035782,1.082861 -1.624294,1.530131 -0.235405,0.09416 -0.494351,0.117702 -0.753292,0.07062 l -0.47081,0.329569 c -2.754231,-2.871942 -6.426548,-4.63748 -10.357811,-4.990587 0,-0.164784 -0.02354,-0.47081 -0.02354,-0.56497 -0.211868,-0.141243 -0.353107,-0.376648 -0.400188,-0.612053 -0.02354,-0.753296 0.02354,-1.506592 0.141243,-2.259888 0.07062,-0.400188 0.141243,-0.776836 0.164779,-1.177024 0,-0.09416 0,-0.235405 0,-0.353107 0.04708,-0.706215 -0.517887,-1.341808 -1.224102,-1.388889 h -0.02354 c -0.706215,0.04708 -1.271187,0.659134 -1.224106,1.388889 v 0.02354 c 0,0.09416 0,0.235405 0,0.329567 0.02354,0.400188 0.09416,0.800376 0.164784,1.177024 0.117702,0.753296 0.164783,1.506592 0.117702,2.259888 -0.07062,0.258946 -0.211864,0.47081 -0.400188,0.635593 l -0.02354,0.517891 c -0.753292,0.07062 -1.506592,0.188322 -2.236347,0.353108 -3.107342,0.706213 -5.932201,2.306967 -8.121468,4.637476 l -0.447269,-0.329567 c -0.235405,0.07062 -0.517891,0.04708 -0.729756,-0.07062 -0.612052,-0.447269 -1.177024,-0.96516 -1.671371,-1.506591 -0.258946,-0.306027 -0.517891,-0.588513 -0.823917,-0.870999 -0.07062,-0.07062 -0.188324,-0.164783 -0.282486,-0.211864 -0.235405,-0.188324 -0.541432,-0.306027 -0.870999,-0.329567 -0.376648,-0.02354 -0.753296,0.141241 -0.988701,0.447269 -0.423729,0.588512 -0.282486,1.412428 0.306027,1.836157 0.07062,0.07062 0.188324,0.141243 0.258945,0.211864 0.329567,0.211867 0.682675,0.423729 1.035782,0.612053 0.65913,0.376648 1.294724,0.800377 1.859696,1.294728 0.141243,0.211864 0.235405,0.470809 0.258945,0.706214 l 0.400189,0.353108 c -1.765538,2.660076 -2.707154,5.76742 -2.707154,8.921846 h -1.647835 c -1.153486,-0.164783 -4.496234,-0.96516 -4.496234,-4.661016 0,-4.472695 0,-6.591337 -1.177025,-6.826742 -2.095104,-0.423729 -3.742939,9.6516 -3.907723,13.088512 -0.117702,2.212807 1.294728,4.096043 4.119585,4.096043 h 5.414313 v 9.651603 c 0,1.671376 0.894539,3.248585 2.354049,4.072502 l 13.088513,7.5565 c 0.706215,0.423729 1.530132,0.635593 2.354046,0.635593 0.823917,0 1.647834,-0.211864 2.354049,-0.635593 l 13.088513,-7.5565 c 1.459511,-0.847457 2.354049,-2.401126 2.354049,-4.072502 v -9.651603 h 5.414315 c 2.848396,0 4.260826,-1.883236 4.143127,-4.096043 z M 63.493416,35.067005 h -4.825802 l -1.530129,-0.447269 v 0 c -0.588512,-0.164784 -0.918079,-0.77684 -0.77684,-1.365349 0.04708,-0.211868 0.164784,-0.400188 0.329567,-0.541435 l 4.849343,-4.354988 v -0.02354 c 1.271186,2.048023 1.930324,4.354992 1.953861,6.732581 z m -3.884182,-9.157251 -5.296608,3.766477 c -0.47081,0.376648 -1.153484,0.306027 -1.530132,-0.164783 -0.141243,-0.188324 -0.235405,-0.423729 -0.235405,-0.682675 L 52.170445,22.3316 c 2.801315,0.353108 5.41431,1.600752 7.438789,3.578154 z M 49.60453,33.066063 h 2.000942 l 1.224102,1.553673 -0.09416,0.447269 h -4.284367 l -0.09416,-0.447269 z M 47.721291,22.543465 c 0.447269,-0.09416 0.870998,-0.164784 1.318267,-0.211865 l -0.353107,6.520714 v 0 c -0.02354,0.612053 -0.564972,1.082863 -1.177025,1.059322 -0.211864,0 -0.423729,-0.07062 -0.588512,-0.211864 L 41.55368,25.886213 c 1.718457,-1.671375 3.837101,-2.824859 6.167611,-3.342748 z m -8.097927,5.814499 4.896419,4.354991 v 0 c 0.447269,0.400189 0.49435,1.129944 0.09416,1.577214 -0.141239,0.164779 -0.329567,0.306026 -0.541431,0.353103 v 0 l -1.435967,0.400189 h -4.919964 c 0,-2.330506 0.659134,-4.661015 1.906781,-6.685497 z m 25.258945,24.08192 -13.088516,7.556496 c -0.353108,0.211864 -0.776837,0.30603 -1.177025,0.30603 -0.400185,0 -0.823917,-0.09416 -1.177021,-0.30603 L 36.351235,52.439884 C 35.621479,52.016155 35.17421,51.239315 35.17421,50.391861 V 37.397514 h 30.885116 v 12.994347 c 8e-6,0.847458 -0.447266,1.624298 -1.177017,2.048023 z"
                 id="path915" />
            </g>
          </g>
        </g>
      </g>
    </g>
  </g>
  <style
     id="style859"
     type="text/css">
	.st0{fill:#326CE5;}
</style>
</svg>
