<?xml version="1.0" encoding="UTF-8" standalone="no"?>
<svg
   xmlns:dc="http://purl.org/dc/elements/1.1/"
   xmlns:cc="http://creativecommons.org/ns#"
   xmlns:rdf="http://www.w3.org/1999/02/22-rdf-syntax-ns#"
   xmlns:svg="http://www.w3.org/2000/svg"
   xmlns="http://www.w3.org/2000/svg"
   xmlns:sodipodi="http://sodipodi.sourceforge.net/DTD/sodipodi-0.dtd"
   xmlns:inkscape="http://www.inkscape.org/namespaces/inkscape"
   width="722.8457"
   height="701.96637"
   id="svg2"
   version="1.1"
   inkscape:version="1.0.2-2 (e86c870879, 2021-01-15)"
   sodipodi:docname="kubeinit_windows.svg"
   inkscape:export-filename="/home/thockin/src/kubernetes/new.png"
   inkscape:export-xdpi="460.95001"
   inkscape:export-ydpi="460.95001">
  <defs
     id="defs4" />
  <sodipodi:namedview
     id="base"
     pagecolor="#ffffff"
     bordercolor="#666666"
     borderopacity="1.0"
     inkscape:pageopacity="0.0"
     inkscape:pageshadow="2"
     inkscape:zoom="0.70710678"
     inkscape:cx="350.38545"
     inkscape:cy="482.32398"
     inkscape:document-units="px"
     inkscape:current-layer="g3052"
     showgrid="false"
     inkscape:window-width="1519"
     inkscape:window-height="822"
     inkscape:window-x="460"
     inkscape:window-y="104"
     inkscape:window-maximized="0"
     inkscape:snap-global="true"
     fit-margin-top="10"
     fit-margin-left="10"
     fit-margin-right="10"
     fit-margin-bottom="10"
     inkscape:document-rotation="0"
     inkscape:snap-bbox="true"
     inkscape:bbox-paths="true"
     inkscape:bbox-nodes="true"
     inkscape:snap-bbox-edge-midpoints="true"
     inkscape:snap-bbox-midpoints="true"
     inkscape:snap-nodes="true" />
  <metadata
     id="metadata7">
    <rdf:RDF>
      <cc:Work
         rdf:about="">
        <dc:format>image/svg+xml</dc:format>
        <dc:type
           rdf:resource="http://purl.org/dc/dcmitype/StillImage" />
        <dc:title></dc:title>
      </cc:Work>
    </rdf:RDF>
  </metadata>
  <g
     inkscape:label="Layer 1"
     inkscape:groupmode="layer"
     id="layer1"
     transform="translate(-6.3260942,-174.7524)">
    <g
       id="g3052">
      <path
         id="rect1108"
         style="fill:#263740;fill-opacity:1;stroke:none;stroke-width:0.0995683;stroke-miterlimit:4.3;stroke-opacity:1"
         d="m -58.410187,374.52851 v 367.4901 H 789.77571 v -367.4901 z"
         inkscape:export-xdpi="460.95001"
         inkscape:export-ydpi="460.95001" />
      <g
         id="g1491"
         transform="matrix(0.23940254,0,0,0.23940254,-140.71759,29.087909)">
        <path
           style="vector-effect:none;fill:#fc624d;fill-opacity:1;stroke:#fc624d;stroke-width:0.309884;stroke-linecap:round;stroke-linejoin:miter;stroke-miterlimit:4;stroke-dasharray:none;stroke-dashoffset:0;stroke-opacity:1"
           d="m 598.17563,2452.0561 v 0 c -4.21333,0.1229 -8.46748,1.2673 -12.39281,3.5338 l -153.94672,88.8817 c -0.43669,0.2529 -0.83963,0.5343 -1.25552,0.8064 -7.53512,4.578 -12.5714,12.8676 -12.5714,22.3991 v 177.7635 c 0,9.9803 5.50515,18.618 13.63752,23.0376 0.0523,0.031 0.0941,0.061 0.15145,0.092 l 153.94134,88.8819 c 0.11005,0.062 0.22551,0.1107 0.3355,0.1722 0.5467,0.31 1.11219,0.5893 1.68304,0.8605 0.16435,0.072 0.32701,0.1639 0.49247,0.2373 0.6744,0.3029 1.36883,0.5668 2.07266,0.8113 0.11415,0.041 0.22684,0.082 0.34095,0.125 0.71101,0.2363 1.43369,0.4357 2.17008,0.6118 0.10677,0.02 0.21251,0.051 0.31934,0.082 0.64196,0.1435 1.29436,0.2558 1.95361,0.3519 0.2241,0.031 0.44694,0.072 0.67104,0.092 0.56551,0.061 1.13976,0.1045 1.7155,0.1353 0.29428,0.021 0.58885,0.041 0.88211,0.041 0.17481,0 0.34462,0.031 0.51957,0.031 0.39169,0 0.77069,-0.041 1.15812,-0.062 0.29744,-0.02 0.5956,-0.02 0.89296,-0.041 0.56438,-0.041 1.11883,-0.1147 1.67219,-0.1947 0.28383,-0.041 0.56787,-0.082 0.84968,-0.1291 0.56858,-0.1045 1.12811,-0.2199 1.68305,-0.357 0.25549,-0.061 0.50957,-0.1291 0.76301,-0.2008 0.56236,-0.1557 1.11525,-0.3316 1.6614,-0.5248 0.24085,-0.082 0.47558,-0.1722 0.71429,-0.265 0.54353,-0.2109 1.07711,-0.4369 1.60186,-0.6816 0.23984,-0.1107 0.47764,-0.2271 0.7144,-0.3468 0.49955,-0.2528 0.98546,-0.5229 1.46657,-0.8064 0.27125,-0.1598 0.54034,-0.318 0.80639,-0.4869 0.38431,-0.2467 0.76014,-0.5025 1.13103,-0.7685 0.35187,-0.2517 0.69874,-0.5095 1.03905,-0.7787 0.30994,-0.2466 0.61076,-0.5023 0.90923,-0.7632 0.34451,-0.3009 0.68749,-0.6058 1.01737,-0.9261 0.25764,-0.2506 0.50506,-0.5074 0.75227,-0.7683 0.33929,-0.3582 0.67419,-0.7183 0.99567,-1.0989 0.24926,-0.2946 0.4842,-0.5986 0.71972,-0.9033 0.26605,-0.3449 0.5291,-0.6898 0.77928,-1.0501 0.26603,-0.3816 0.51693,-0.7724 0.76301,-1.1687 0.14653,-0.2355 0.3088,-0.4554 0.44918,-0.699 0.0625,-0.1066 0.10697,-0.222 0.16784,-0.3294 0.22407,-0.4012 0.42554,-0.8146 0.62773,-1.2285 0.18751,-0.3798 0.379,-0.7573 0.5466,-1.1419 0.14345,-0.3316 0.2652,-0.6734 0.39505,-1.012 0.19058,-0.4943 0.37767,-0.9884 0.53575,-1.4882 0.0736,-0.2332 0.13321,-0.4728 0.20022,-0.7091 0.17276,-0.6058 0.33868,-1.2126 0.46537,-1.8237 0.042,-0.1988 0.0604,-0.4052 0.10267,-0.6068 0.11722,-0.6376 0.2242,-1.2751 0.29223,-1.9157 0.0318,-0.3263 0.0441,-0.6599 0.0758,-0.9905 0.0318,-0.4797 0.0705,-0.9607 0.0705,-1.4394 0.002,-0.1599 0.0215,-0.3152 0.0215,-0.4769 v -163.5092 l 32.44318,-18.7299 c 12.56109,-7.2522 16.86428,-23.1503 9.64907,-35.6469 -7.21489,-12.4967 -23.13451,-16.7171 -35.69558,-9.4651 l -45.3447,26.1819 c -8.63575,4.9858 -13.36926,14.0582 -13.13961,23.3028 -3.1e-4,0.041 -0.006,0.072 -0.006,0.1065 v 132.7871 l -102.74707,-59.3113 v -148.0154 l 128.82018,-74.373 132.46768,76.4728 v 147.9721 l -32.44315,18.7299 c -12.56091,7.252 -16.86937,23.1503 -9.6545,35.647 7.21519,12.4966 23.14024,16.717 35.70102,9.465 l 45.34466,-26.1765 c 0.221,-0.1271 0.41745,-0.2783 0.63314,-0.4113 0.48594,-0.2978 0.96991,-0.5974 1.43411,-0.9259 0.21885,-0.1537 0.42493,-0.3214 0.63857,-0.482 0.45655,-0.3437 0.90492,-0.6947 1.33672,-1.0661 0.2775,-0.2383 0.54035,-0.4881 0.80639,-0.7367 0.34554,-0.3234 0.69505,-0.6476 1.02278,-0.9905 0.26072,-0.2711 0.49965,-0.5525 0.74674,-0.8338 0.3173,-0.3613 0.63337,-0.7255 0.93083,-1.104 0.2345,-0.2988 0.45655,-0.6027 0.67652,-0.9087 0.25552,-0.3562 0.50373,-0.7132 0.74143,-1.0824 0.23348,-0.3622 0.45194,-0.7315 0.66559,-1.104 0.20308,-0.3529 0.40345,-0.7081 0.58988,-1.0714 0.20741,-0.4013 0.39904,-0.8075 0.58447,-1.2177 0.15288,-0.3388 0.29908,-0.6773 0.43833,-1.0233 0.19161,-0.4777 0.36263,-0.9627 0.525,-1.4503 0.10472,-0.3008 0.20206,-0.5984 0.29213,-0.9033 0.14858,-0.5066 0.27668,-1.0171 0.39507,-1.5317 0.0736,-0.3232 0.14817,-0.6455 0.21108,-0.974 0.1078,-0.571 0.18956,-1.1442 0.2598,-1.7209 0.0318,-0.257 0.0654,-0.5107 0.0971,-0.7685 0.0523,-0.5965 0.0818,-1.1953 0.092,-1.7966 0.006,-0.225 0.0328,-0.4441 0.0328,-0.6712 v -177.7582 c 0,-10.1053 -5.64551,-18.827 -13.94595,-23.1946 -0.19161,-0.1168 -0.36793,-0.2496 -0.56276,-0.3623 l -153.94647,-88.8811 c -0.50996,-0.2947 -1.03266,-0.5381 -1.55317,-0.7961 -4.51104,-3.0355 -9.8645,-4.6014 -15.29886,-4.443 z m 80.20683,224.9482 a 26.02577,26.02577 0 0 0 -12.39821,3.4798 26.02577,26.02577 0 0 0 -9.52999,35.5549 26.02577,26.02577 0 0 0 35.55488,9.5245 26.02577,26.02577 0 0 0 9.52459,-35.5494 26.02577,26.02577 0 0 0 -23.15127,-13.0098 z"
           id="path1036-2-6"
           inkscape:connector-curvature="0" />
        <g
           id="g948"
           transform="matrix(9.931253,0,0,9.931253,123.62738,1328.8145)"
           style="fill:#ffffff">
          <path
             d="m 72.627228,145.04652 c 1.008518,0 1.789307,-0.81332 1.789307,-1.7893 v -4.61967 l 3.383415,-3.44848 7.027095,9.2068 c 0.357861,0.42292 0.845854,0.65065 1.333847,0.65065 0.422927,0 0.813321,-0.13013 1.138649,-0.42292 0.780788,-0.61813 0.91092,-1.75678 0.260263,-2.50503 l -7.222292,-9.46706 7.157226,-7.12469 c 0.68319,-0.71573 0.68319,-1.85437 0,-2.53756 -0.715722,-0.71573 -1.821839,-0.71573 -2.537562,0 l -10.540641,10.57317 v -9.33693 c 0,-0.94345 -0.780789,-1.7893 -1.789307,-1.7893 -1.008518,0 -1.789306,0.84585 -1.789306,1.7893 v 19.03172 c 0,0.97598 0.780788,1.7893 1.789306,1.7893 z"
             style="font-style:normal;font-variant:normal;font-weight:bold;font-stretch:normal;font-size:medium;line-height:1.25;font-family:Quicksand;-inkscape-font-specification:'Quicksand Bold';letter-spacing:-2.62202px;word-spacing:0px;fill:#ffffff;fill-opacity:1;stroke:none;stroke-width:0.813321"
             id="path879"
             inkscape:connector-curvature="0" />
          <path
             d="m 102.19696,138.27969 v -7.77535 c 0,-0.91092 -0.84586,-1.72424 -1.75678,-1.72424 -0.975974,0 -1.691701,0.81332 -1.691701,1.72424 v 7.77535 c -0.0325,1.85437 -1.529039,3.31835 -3.415944,3.31835 -1.854372,0 -3.31835,-1.46398 -3.31835,-3.31835 v -7.77535 c 0,-0.91092 -0.748256,-1.72424 -1.724241,-1.72424 -0.943452,0 -1.724241,0.81332 -1.724241,1.72424 v 7.77535 c 0,3.70875 3.058088,6.76683 6.766832,6.76683 3.741271,0 6.864425,-3.05808 6.864425,-6.76683 z"
             style="font-style:normal;font-variant:normal;font-weight:bold;font-stretch:normal;font-size:medium;line-height:1.25;font-family:Quicksand;-inkscape-font-specification:'Quicksand Bold';letter-spacing:-2.62202px;word-spacing:0px;fill:#ffffff;fill-opacity:1;stroke:none;stroke-width:0.813321"
             id="path881"
             inkscape:connector-curvature="0" />
          <path
             d="m 104.10411,143.28975 c 0,0.94345 0.78078,1.75677 1.75677,1.75677 0.87839,0 1.56158,-0.61812 1.72424,-1.39891 1.23625,0.84586 2.79783,1.39891 4.42447,1.39891 4.39193,0 7.90548,-3.70874 7.90548,-8.10067 0,-4.457 -3.51355,-8.16575 -7.90548,-8.16575 -1.59411,0 -3.15569,0.52053 -4.3594,1.36638 v -6.11617 c 0,-0.94346 -0.78079,-1.75678 -1.78931,-1.75678 -0.97599,0 -1.75677,0.81332 -1.75677,1.75678 v 12.883 c 0,0 0,0 0,0.0325 0,0 0,0 0,0 z m 4.84739,-9.62972 c 0.81332,-0.84586 1.85437,-1.33385 3.05809,-1.33385 1.17118,0 2.24476,0.48799 3.05808,1.33385 0.81333,0.81332 1.30132,1.9845 1.30132,3.28582 0,1.23624 -0.48799,2.40743 -1.30132,3.22075 -0.81332,0.84585 -1.8869,1.33384 -3.05808,1.33384 -1.20372,0 -2.24477,-0.48799 -3.05809,-1.33384 -0.81332,-0.81332 -1.30131,-1.98451 -1.30131,-3.22075 0,-1.30132 0.48799,-2.4725 1.30131,-3.28582 z"
             style="font-style:normal;font-variant:normal;font-weight:bold;font-stretch:normal;font-size:medium;line-height:1.25;font-family:Quicksand;-inkscape-font-specification:'Quicksand Bold';letter-spacing:-2.62202px;word-spacing:0px;fill:#ffffff;fill-opacity:1;stroke:none;stroke-width:0.813321"
             id="path883"
             inkscape:connector-curvature="0" />
          <path
             d="m 129.22904,145.04652 c 2.30983,0 4.22927,-0.68319 5.82338,-2.14716 0.74826,-0.68319 0.42293,-1.65918 0,-2.11464 -0.42293,-0.52052 -1.75677,-0.61812 -2.43996,0.0976 -0.81332,0.61812 -2.21224,0.91092 -3.38342,0.81332 -1.13865,-0.0976 -2.43996,-0.68319 -3.12315,-1.46398 -0.58559,-0.55306 -0.94345,-1.39891 -1.10612,-2.14716 h 10.34545 c 0.91092,0 1.5941,-0.52053 1.6917,-1.30132 0.0325,-0.0651 0.0325,-0.22773 0.0325,-0.29279 0,0 0,0 0,0 0,0 0,0 0,0 0,-0.0651 0,-0.13014 0,-0.16267 -0.26027,-4.39193 -3.61115,-7.54762 -7.84042,-7.54762 -4.457,0 -7.90548,3.70875 -7.93801,8.13321 0.0325,4.42447 3.48101,8.10068 7.93801,8.13321 z m 0,-13.1758 c 2.83036,0.22773 4.48953,2.14717 4.81486,3.44848 h -9.20679 c 0.26026,-1.33384 1.62664,-3.31835 4.39193,-3.44848 z"
             style="font-style:normal;font-variant:normal;font-weight:bold;font-stretch:normal;font-size:medium;line-height:1.25;font-family:Quicksand;-inkscape-font-specification:'Quicksand Bold';letter-spacing:-2.62202px;word-spacing:0px;fill:#ffffff;fill-opacity:1;stroke:none;stroke-width:0.813321"
             id="path885"
             inkscape:connector-curvature="0" />
          <path
             d="m 139.1596,143.25722 c 0,1.00852 0.78079,1.7893 1.78931,1.7893 0.97598,0 1.82184,-0.78078 1.82184,-1.7893 v -19.19438 c 0,-1.00852 -0.84586,-1.78931 -1.82184,-1.78931 -1.00852,0 -1.78931,0.78079 -1.78931,1.78931 z"
             style="font-style:normal;font-variant:normal;font-weight:bold;font-stretch:normal;font-size:medium;line-height:1.25;font-family:Quicksand;-inkscape-font-specification:'Quicksand Bold';letter-spacing:-2.62202px;word-spacing:0px;fill:#ffffff;fill-opacity:1;stroke:none;stroke-width:0.813321"
             id="path887"
             inkscape:connector-curvature="0" />
          <path
             d="m 151.57284,128.7801 c -1.26878,0 -2.4725,0.3904 -3.44848,1.00852 -0.2928,-0.61812 -0.91092,-1.00852 -1.59411,-1.00852 -0.97599,0 -1.72424,0.78079 -1.72424,1.72424 v 5.04259 c 0,0 0,0 0,0 v 7.77535 c 0,0.94346 0.74825,1.72424 1.72424,1.72424 0.84585,0 1.56158,-0.61812 1.72424,-1.39891 0.0651,-0.13013 0.0651,-0.22773 0.0651,-0.32533 v -7.77535 c 0,-1.82184 1.43145,-3.28581 3.25329,-3.28581 1.85437,0 3.38342,1.46397 3.38342,3.28581 v 7.77535 c 0,0.94346 0.81332,1.72424 1.72424,1.72424 0.94345,0 1.6917,-0.78078 1.6917,-1.72424 v -7.77535 c 0,-3.67621 -3.02555,-6.76683 -6.79936,-6.76683 z"
             style="font-style:normal;font-variant:normal;font-weight:bold;font-stretch:normal;font-size:medium;line-height:1.25;font-family:Quicksand;-inkscape-font-specification:'Quicksand Bold';letter-spacing:-2.62202px;word-spacing:0px;fill:#ffffff;fill-opacity:1;stroke:none;stroke-width:0.813321"
             id="path889"
             inkscape:connector-curvature="0" />
          <path
             d="m 161.80839,128.81263 c -0.97598,0 -1.75677,0.74826 -1.75677,1.78931 v 12.68781 c 0,0.97599 0.78079,1.75677 1.75677,1.75677 1.00852,0 1.75678,-0.78078 1.75678,-1.75677 v -12.68781 c 0,-1.04105 -0.74826,-1.78931 -1.75678,-1.78931 z m 1.75678,-4.78232 c 0,-0.97599 -0.74826,-1.75678 -1.75678,-1.75678 -0.97598,0 -1.75677,0.78079 -1.75677,1.75678 v 0.68319 c 0,0.97598 0.78079,1.7893 1.75677,1.7893 1.00852,0 1.75678,-0.81332 1.75678,-1.7893 z"
             style="font-style:normal;font-variant:normal;font-weight:bold;font-stretch:normal;font-size:medium;line-height:1.25;font-family:Quicksand;-inkscape-font-specification:'Quicksand Bold';letter-spacing:-2.62202px;word-spacing:0px;fill:#ffffff;fill-opacity:1;stroke:none;stroke-width:0.813321"
             id="path891"
             inkscape:connector-curvature="0" />
          <path
             d="m 172.04498,128.7801 h -0.81333 v -4.71726 c 0,-1.00852 -0.78078,-1.78931 -1.7893,-1.78931 -1.00852,0 -1.82184,0.78079 -1.82184,1.78931 v 4.71726 h -0.94345 c -1.00852,0 -1.78931,0.78079 -1.78931,1.78931 0,0.97598 0.78079,1.7893 1.78931,1.7893 h 0.94345 v 9.07667 c 0,1.9845 1.62664,3.61114 3.61114,3.61114 1.00852,0 1.78931,-0.78078 1.78931,-1.7893 0,-1.00852 -0.78079,-1.82184 -1.78931,-1.82184 0,0 0,0 0,0 v -9.07667 h 0.81333 c 0.97598,0 1.82184,-0.81332 1.82184,-1.7893 0,-1.00852 -0.84586,-1.78931 -1.82184,-1.78931 z"
             style="font-style:normal;font-variant:normal;font-weight:bold;font-stretch:normal;font-size:medium;line-height:1.25;font-family:Quicksand;-inkscape-font-specification:'Quicksand Bold';letter-spacing:-2.62202px;word-spacing:0px;fill:#ffffff;fill-opacity:1;stroke:none;stroke-width:0.813321"
             id="path893"
             inkscape:connector-curvature="0" />
        </g>
      </g>
      <g
         id="g1499"
         transform="matrix(0.18288745,0,0,0.18288745,-76.623987,172.63741)">
        <ellipse
           style="fill:#ffffff;fill-opacity:1;stroke:none;stroke-width:1.30719;stroke-miterlimit:4.3;stroke-opacity:1"
           id="path1131"
           cx="1134.0985"
           cy="1891.6885"
           rx="526.75543"
           ry="467.45941" />
        <g
           id="g927"
           transform="matrix(1.7111699,0,0,1.7111699,3762.5733,475.96921)">
          <path
             id="path3055"
             style="fill:#f25022;fill-opacity:1;stroke:#f25022;stroke-width:0;stroke-miterlimit:4;stroke-dasharray:none;stroke-opacity:1"
             d="m -1536.6446,472.7524 a 46.724621,46.342246 0 0 0 -2.043,0.0605 46.724621,46.342246 0 0 0 -17.9062,4.53125 l -244.3438,116.75 a 46.724621,46.342246 0 0 0 -25.2812,31.4375 l -46.3887,201.80859 h 146.416 c -0.3841,-38.63491 11.1263,-75.71466 31.7696,-106.78125 l -4.6875,-4.1875 c -0.299,-1.82458 -0.6915,-6.04333 -2.9375,-8.4375 -5.7517,-5.40039 -13.003,-9.87944 -21.75,-15.28125 -4.1518,-2.4423 -7.9582,-4.0172 -12.125,-7.09375 -0.8863,-0.65437 -2.0671,-1.65588 -3.0313,-2.4375 -0.072,-0.0555 -0.1475,-0.0996 -0.2187,-0.15625 -7.0169,-5.59445 -8.629,-15.24712 -3.5938,-21.5625 2.8323,-3.5524 7.1604,-5.31019 11.6563,-5.15625 3.4968,0.11973 7.1176,1.39618 10.1875,3.84375 0.9974,0.7892 2.3582,1.82668 3.25,2.59375 3.9266,3.37774 6.32,6.71456 9.625,10.21875 7.2128,7.32557 13.1738,13.40687 19.7187,17.8125 3.4373,2.00204 6.0763,1.19637 8.6875,0.84375 0.8403,0.62086 3.666,2.64807 5.2813,3.75 24.8924,-26.41068 57.5878,-45.97157 95.5625,-54.59375 8.8251,-2.00376 17.6606,-3.33533 26.4375,-4.0625 l 0.3437,-6.1875 c 1.9471,-1.88509 4.1313,-4.5971 4.75,-7.5625 0.6362,-7.86389 -0.3947,-16.32459 -1.625,-26.53125 -0.6791,-4.76876 -1.8074,-8.73025 -2,-13.90625 -0.04,-1.06164 0.019,-2.53064 0.031,-3.75 0,-0.13691 -0.031,-0.26852 -0.031,-0.40625 -10e-4,-8.97409 6.548,-16.24918 14.625,-16.25 0.067,-10e-6 0.1309,0.0107 0.1973,0.0117 V 472.7524 a 46.724621,46.342246 0 0 0 -0.5762,0 z m -17.9336,202.74414 c -5.1841,0.6284 -10.3878,1.50547 -15.5937,2.6875 -28.4996,6.47086 -53.2289,20.5201 -72.5625,39.53125 l 62.9062,44.59375 0.125,-0.0625 c 2.1308,1.55646 4.7529,2.46875 7.5938,2.46875 6.935,0 12.5836,-5.4804 12.875,-12.34375 l 0.3125,-0.15625 z m -110.9687,70.875 c -14.651,23.86761 -22.667,51.82769 -22.2539,80.96875 h 50.6835 l 23.8204,-6.875 0.062,-0.25 c 2.5454,-0.69551 4.9163,-2.1852 6.6875,-4.40625 4.3238,-5.42206 3.5593,-13.24303 -1.625,-17.75 l 0.062,-0.3125 z m 117.5,55.34375 -14.6563,18.25 1.6973,7.375 h 24.9375 v -25.625 z" />
          <path
             id="path3055-91"
             style="fill:#00a4ef;fill-opacity:1;stroke:#00a4ef;stroke-width:0;stroke-miterlimit:4;stroke-dasharray:none;stroke-opacity:1"
             d="m -1872.6075,827.34029 -13.8926,60.44141 a 46.724621,46.342246 0 0 0 6.3438,35.53125 46.724621,46.342246 0 0 0 2.6562,3.6875 l 169.125,210.28125 a 46.724621,46.342246 0 0 0 36.5313,17.4375 l 135.7754,-0.031 V 1015.934 c -23.4105,-0.054 -46.2382,-4.4721 -67.4785,-12.625 l -3.3125,6 c -2.4657,0.6602 -4.8441,1.3301 -6.3028,3.0703 -5.3269,6.3551 -7.4526,16.5533 -11.3222,26.2735 -1.4572,4.5912 -2.1467,8.6592 -4.2188,13.4062 -0.469,1.0744 -1.2566,2.5762 -1.8125,3.7188 0,0.01 0,0.022 0,0.031 -0.01,0.011 -0.025,0.02 -0.031,0.031 -3.9031,8.0586 -12.9218,11.7479 -20.1875,8.25 -7.2204,-3.4761 -9.9776,-12.7389 -6.2188,-20.7813 0.5588,-1.1581 1.2961,-2.8416 1.875,-3.9375 2.4192,-4.5799 5.1629,-7.6855 7.8438,-11.6875 5.5367,-8.6622 10.3976,-16.4317 13.2363,-23.7929 0.7132,-2.4447 -0.3414,-5.79414 -1.2988,-8.26956 l 2.6562,-6.375 c -38.9296,-23.06748 -69.6736,-59.82968 -84.3437,-105.3125 l -6.375,1.09375 c -1.7092,-0.95659 -5.1451,-3.22417 -8.4063,-2.96875 -7.8083,1.12978 -15.8231,4.02923 -25.5,7.5 -4.4981,1.72329 -8.1217,3.69162 -13.125,5.03125 -1.0575,0.28315 -2.5724,0.57839 -3.7812,0.84375 -0.097,0.0238 -0.1834,0.0714 -0.2813,0.0937 -0.065,0.0145 -0.1561,0.0171 -0.2187,0.0312 -8.6719,1.86927 -17.0919,-2.87917 -18.875,-10.6875 -1.7828,-7.8065 3.7548,-15.72971 12.375,-17.8125 0.064,-0.0146 0.1519,-0.047 0.2187,-0.0625 0.043,-0.01 0.082,-0.0223 0.125,-0.0312 1.2255,-0.28748 2.7862,-0.69407 3.9063,-0.90625 5.089,-0.96405 9.2309,-0.72585 14.0312,-1.125 10.2245,-1.07191 18.6936,-1.94229 26.2188,-4.3125 2.3858,-0.97901 4.6669,-4.25914 6.2812,-6.34375 l 6.125,-1.78125 c -1.2171,-8.42828 -1.8429,-16.82807 -1.9258,-25.15625 z m 184.8067,0 c 0.067,4.76475 0.3523,9.55975 0.8789,14.375 l 49.8046,-14.375 z m 126.7949,0 3.5527,15.4375 21.1875,10.1875 0.1973,-0.0957 v -25.5293 z m -39.5098,37.25 c -0.8302,-0.0117 -1.6867,0.0633 -2.5312,0.21875 l -0.125,-0.15625 -75.5,12.8125 c 11.6519,32.23842 33.434,58.5139 60.7812,76.0625 l 29.25,-70.6875 -0.2187,-0.28125 c 1.0432,-2.42375 1.3509,-5.16792 0.7187,-7.9375 -1.3504,-5.916 -6.5633,-9.94975 -12.375,-10.03125 z m 63.7813,30.96875 c -4.4538,0.16363 -8.6786,2.64809 -10.9063,6.8125 h -0.062 l -37.125,67.125 c 15.4686,5.27086 31.9127,8.05772 48.7598,8.04688 v -81.96875 c -0.2221,-0.004 -0.4445,-0.0238 -0.666,-0.0156 z" />
          <path
             id="path3055-1"
             style="fill:#7fba00;fill-opacity:1;stroke:#7fba00;stroke-width:0;stroke-miterlimit:4;stroke-dasharray:none;stroke-opacity:1"
             d="m -1535.4923,472.75242 a 46.724621,46.342246 0 0 1 2.043,0.0606 46.724621,46.342246 0 0 1 17.9063,4.53125 l 244.3437,116.75 a 46.724621,46.342246 0 0 1 25.2813,31.4375 l 46.3886,201.80854 h -146.416 c 0.3841,-38.63491 -11.1262,-75.71466 -31.7695,-106.78125 l 4.6875,-4.1875 c 0.2989,-1.82458 0.6915,-6.04333 2.9375,-8.4375 5.7516,-5.40039 13.003,-9.87944 21.75,-15.28125 4.1518,-2.4423 7.9581,-4.0172 12.125,-7.09375 0.8863,-0.65437 2.067,-1.65588 3.0312,-2.4375 0.072,-0.0555 0.1476,-0.0995 0.2188,-0.15625 7.0169,-5.59445 8.629,-15.24712 3.5937,-21.5625 -2.8323,-3.5524 -7.1603,-5.31019 -11.6562,-5.15625 -3.4968,0.11973 -7.1176,1.39618 -10.1875,3.84375 -0.9974,0.7892 -2.3583,1.82668 -3.25,2.59375 -3.9267,3.37774 -6.32,6.71456 -9.625,10.21875 -7.2129,7.32557 -13.1738,13.40687 -19.7188,17.8125 -3.4372,2.00204 -6.0763,1.19637 -8.6875,0.84375 -0.8402,0.62086 -3.666,2.64807 -5.2812,3.75 -24.8924,-26.41068 -57.5879,-45.97157 -95.5625,-54.59375 -8.8252,-2.00376 -17.6607,-3.33533 -26.4375,-4.0625 l -0.3438,-6.1875 c -1.9471,-1.88509 -4.1313,-4.5971 -4.75,-7.5625 -0.6361,-7.86389 0.3948,-16.32459 1.625,-26.53125 0.6791,-4.76876 1.8074,-8.73025 2,-13.90625 0.04,-1.06164 -0.019,-2.53064 -0.031,-3.75 0,-0.13691 0.031,-0.26852 0.031,-0.40625 10e-4,-8.97409 -6.548,-16.24918 -14.625,-16.25 -0.067,-1e-5 -0.1309,0.0107 -0.1972,0.0117 V 472.7524 a 46.724621,46.342246 0 0 1 0.5761,0 z m 17.9336,202.74414 c 5.1841,0.6284 10.3878,1.50547 15.5938,2.6875 28.4996,6.47086 53.2288,20.5201 72.5625,39.53125 l -62.9063,44.59375 -0.125,-0.0625 c -2.1308,1.55646 -4.7529,2.46875 -7.5937,2.46875 -6.935,0 -12.5837,-5.4804 -12.875,-12.34375 l -0.3125,-0.15625 z m 110.9688,70.875 c 14.6509,23.86761 22.667,51.82769 22.2539,80.96875 h -50.6836 l -23.8203,-6.875 -0.062,-0.25 c -2.5454,-0.69551 -4.9163,-2.1852 -6.6875,-4.40625 -4.3239,-5.42206 -3.5594,-13.24303 1.625,-17.75 l -0.062,-0.3125 z m -117.5,55.34375 14.6562,18.25 -1.6972,7.375 h -24.9375 v -25.625 z" />
          <path
             id="path3055-91-8"
             style="fill:#ffb900;fill-opacity:1;stroke:#ffb900;stroke-width:0;stroke-miterlimit:4;stroke-dasharray:none;stroke-opacity:1"
             d="m -1199.5294,827.34031 13.8926,60.44141 a 46.724621,46.342246 0 0 1 -6.3437,35.53125 46.724621,46.342246 0 0 1 -2.6563,3.6875 l -169.125,210.28123 a 46.724621,46.342246 0 0 1 -36.5312,17.4375 l -135.7754,-0.031 v -138.7539 c 23.4104,-0.054 46.2382,-4.4722 67.4785,-12.625 l 3.3125,6 c 2.4656,0.6601 4.844,1.33 6.3027,3.0703 5.3269,6.355 7.4527,16.5533 11.3223,26.2734 1.4571,4.5912 2.1466,8.6592 4.2187,13.4063 0.469,1.0743 1.2566,2.5762 1.8125,3.7187 0,0.01 0,0.022 0,0.031 0.01,0.011 0.025,0.02 0.031,0.031 3.9031,8.0587 12.9218,11.7479 20.1875,8.25 7.2204,-3.476 9.9776,-12.7389 6.2188,-20.7812 -0.5588,-1.1582 -1.2961,-2.8417 -1.875,-3.9375 -2.4192,-4.5799 -5.1629,-7.6856 -7.8438,-11.6875 -5.5367,-8.6623 -10.3976,-16.4318 -13.2363,-23.793 -0.7132,-2.4446 0.3414,-5.79412 1.2988,-8.26954 l -2.6562,-6.375 c 38.9296,-23.06748 69.6736,-59.82968 84.3437,-105.3125 l 6.375,1.09375 c 1.7092,-0.95659 5.1451,-3.22417 8.4063,-2.96875 7.8083,1.12978 15.8231,4.02923 25.5,7.5 4.4981,1.72329 8.1217,3.69162 13.125,5.03125 1.0575,0.28315 2.5724,0.57839 3.7812,0.84375 0.097,0.0238 0.1834,0.0713 0.2813,0.0937 0.065,0.0145 0.1561,0.017 0.2187,0.0312 8.6719,1.86927 17.0919,-2.87917 18.875,-10.6875 1.7828,-7.8065 -3.7548,-15.72971 -12.375,-17.8125 -0.064,-0.0146 -0.1519,-0.047 -0.2187,-0.0625 -0.043,-0.01 -0.082,-0.0224 -0.125,-0.0312 -1.2255,-0.28748 -2.7862,-0.69407 -3.9063,-0.90625 -5.089,-0.96405 -9.2309,-0.72585 -14.0312,-1.125 -10.2245,-1.07191 -18.6936,-1.94229 -26.2188,-4.3125 -2.3858,-0.97901 -4.6669,-4.25914 -6.2812,-6.34375 l -6.125,-1.78125 c 1.2171,-8.42828 1.8429,-16.82807 1.9258,-25.15625 z m -184.8066,0 c -0.067,4.76475 -0.3523,9.55975 -0.8789,14.375 l -49.8047,-14.375 z m -126.7949,0 -3.5528,15.4375 -21.1875,10.1875 -0.1972,-0.0957 v -25.5293 z m 39.5097,37.25 c 0.8303,-0.0117 1.6868,0.0633 2.5313,0.21875 l 0.125,-0.15625 75.5,12.8125 c -11.652,32.23842 -33.4341,58.5139 -60.7813,76.0625 l -29.25,-70.6875 0.2188,-0.28125 c -1.0433,-2.42375 -1.3509,-5.16792 -0.7188,-7.9375 1.3504,-5.916 6.5633,-9.94975 12.375,-10.03125 z m -63.7812,30.96875 c 4.4538,0.16363 8.6786,2.64809 10.9062,6.8125 h 0.062 l 37.125,67.125 c -15.4685,5.27086 -31.9126,8.05772 -48.7597,8.04688 v -81.96875 c 0.2221,-0.004 0.4445,-0.0238 0.666,-0.0156 z" />
        </g>
      </g>
      <text
         xml:space="preserve"
         style="font-style:normal;font-weight:normal;font-size:42.4121px;line-height:1.25;font-family:sans-serif;letter-spacing:0px;word-spacing:0px;fill:#ffffff;fill-opacity:1;stroke:none;stroke-width:1.0603"
         x="511.72168"
         y="504.06104"
         id="text915"><tspan
           sodipodi:role="line"
           id="tspan913"
           x="511.72168"
           y="504.06104"
           style="font-style:normal;font-variant:normal;font-weight:normal;font-stretch:normal;font-family:'Swis721 BlkCn BT';-inkscape-font-specification:'Swis721 BlkCn BT';text-align:center;text-anchor:middle;fill:#ffffff;stroke-width:1.0603">Running Kubeinit to deploy</tspan><tspan
           sodipodi:role="line"
           x="511.72168"
           y="558.24512"
           id="tspan917"
           style="font-style:normal;font-variant:normal;font-weight:normal;font-stretch:normal;font-family:'Swis721 BlkCn BT';-inkscape-font-specification:'Swis721 BlkCn BT';text-align:center;text-anchor:middle;fill:#ffffff;stroke-width:1.0603">Kubernetes clusters with</tspan><tspan
           sodipodi:role="line"
           x="511.72168"
           y="612.42944"
           style="font-style:normal;font-variant:normal;font-weight:normal;font-stretch:normal;font-family:'Swis721 BlkCn BT';-inkscape-font-specification:'Swis721 BlkCn BT';text-align:center;text-anchor:middle;fill:#ffffff;stroke-width:1.0603"
           id="tspan1160">Windows containers support</tspan></text>
      <g
         id="g1651"
         style="opacity:0.233227"
         transform="matrix(0.18288745,0,0,0.18288745,-88.694487,183.24491)">
        <g
           id="g1479"
           transform="translate(87.195959,2.3431458)"
           style="opacity:1">
          <g
             id="g30"
             transform="matrix(15.489675,0,0,15.489675,2969.5082,1585.0784)">
            <path
               style="fill:#cc584c"
               d="m 66.229,40.395 c -1.971,-2.472 -7.503,-1.295 -13.833,2.94 -4.399,3.104 -11.73,16.229 -12.525,19.29 -0.795,3.061 4.902,2.307 6.121,1.59 1.929,-1.133 7.375,-9.52 7.919,-10.357 0.545,-0.838 4.149,-0.883 6.917,-1.471 0.793,-3.061 4.313,-10.315 5.401,-11.992 z"
               id="path6" />
            <path
               style="fill:#cc584c"
               d="m 88.034,54.557 c 3.062,0.794 4.237,6.327 2.94,13.832 -1.048,5.282 -10.056,17.318 -12.526,19.289 -2.474,1.974 -4.101,-3.539 -3.943,-4.942 0.251,-2.225 5.697,-10.609 6.242,-11.448 0.545,-0.838 -0.882,-4.149 -1.472,-6.916 2.474,-1.975 7.67,-8.139 8.759,-9.815 z"
               id="path8" />
            <path
               style="fill:#e6e6e6"
               d="M 107.633,0.51 C 105.115,-1.124 88.768,0.184 76.238,19.473 65.89,35.409 59.987,51.843 59.736,54.065 c 2.517,1.636 9.226,5.991 9.226,5.991 0,0 6.71,4.356 9.226,5.99 1.93,-1.132 15.086,-14.05 24.892,-29.146 12.524,-19.291 7.066,-34.755 4.553,-36.39 z"
               id="path10" />
            <circle
               style="fill:#263740"
               cx="91.292"
               cy="25.67"
               r="10"
               id="circle12" />
            <path
               style="fill:#c2e2f2"
               d="m 88.023,30.702 c -2.773,-1.804 -3.565,-5.525 -1.765,-8.3 1.804,-2.775 5.524,-3.566 8.302,-1.766 2.772,1.803 3.563,5.524 1.764,8.301 -1.803,2.776 -5.523,3.567 -8.301,1.765 z"
               id="path14" />
            <path
               style="fill:#cc584c"
               d="m 101.096,10.574 c 3.08,2 6.449,3.199 9.863,3.658 0.352,-7.678 -1.936,-12.818 -3.326,-13.725 -1.395,-0.902 -7.021,-0.9 -13.892,2.542 1.808,2.933 4.275,5.524 7.355,7.525 z"
               id="path16" />
            <g
               id="g20">
              <path
                 style="fill:#cc584c"
                 d="m 76.598,72.167 c -0.6,0.923 -1.845,1.188 -2.768,0.589 L 55.38,60.776 C 54.457,60.175 54.192,58.93 54.791,58.007 l 2.18,-3.354 c 0.6,-0.922 1.844,-1.188 2.768,-0.588 l 18.449,11.982 c 0.924,0.6 1.188,1.844 0.59,2.769 z"
                 id="path18" />
            </g>
            <path
               style="fill:#bf5347"
               d="m 62.59,60.688 c -0.6,0.925 -1.336,2.097 -2.104,3.402 l 9.079,5.896 c 0.881,-1.233 1.651,-2.385 2.252,-3.309 0.601,-0.924 1.336,-2.096 2.104,-3.4 l -9.077,-5.896 c -0.883,1.232 -1.655,2.382 -2.254,3.307 z"
               id="path22" />
            <path
               style="fill:#ffd464"
               d="M 57.057,61.863 C 50.44,72.051 42.108,92.694 46.508,95.551 50.906,98.408 66.374,82.403 72.992,72.21 Z"
               id="path24" />
            <path
               style="fill:#f2b255"
               d="m 58.734,62.952 c -6.617,10.188 -9.165,20.28 -5.692,22.535 3.474,2.256 11.655,-4.178 18.272,-14.365 z"
               id="path26" />
            <ellipse
               transform="matrix(-0.8387,-0.5446,0.5446,-0.8387,88.9017,153.7037)"
               style="fill:#cc584c"
               cx="67.212997"
               cy="63.687"
               rx="3.5"
               ry="16.999001"
               id="ellipse28" />
          </g>
          <path
             style="fill:#ffd464;stroke-width:15.4897"
             d="m 3402.491,1910.3617 c 0,61.9585 -15.4895,77.4482 -77.4482,77.4482 61.9587,0 77.4482,15.4898 77.4482,77.4485 0,-61.9587 15.4898,-77.4485 77.4485,-77.4485 -61.9587,0 -77.4485,-15.4897 -77.4485,-77.4482 z"
             id="path50" />
          <path
             style="fill:#ffd464;stroke-width:15.4897"
             d="m 3201.1253,2359.5622 c 0,61.9586 -15.4896,77.4483 -77.4483,77.4483 61.9587,0 77.4483,15.4898 77.4483,77.4485 0,-61.9587 15.4897,-77.4485 77.4484,-77.4485 -61.9587,0 -77.4484,-15.4897 -77.4484,-77.4483 z"
             id="path52" />
          <path
             style="fill:#ffd464;stroke-width:15.4897"
             d="m 3417.9808,2638.3763 c 0,61.9587 -15.4898,77.4485 -77.4483,77.4485 61.9585,0 77.4483,15.4895 77.4483,77.4483 0,-61.9588 15.4897,-77.4483 77.4485,-77.4483 -61.9588,0 -77.4485,-15.4898 -77.4485,-77.4485 z"
             id="path54" />
          <path
             style="fill:#ffd464;stroke-width:15.4897"
             d="m 4238.9336,3149.5356 c 0,61.9588 -15.4897,77.4483 -77.4485,77.4483 61.9588,0 77.4485,15.4897 77.4485,77.4485 0,-61.9588 15.4896,-77.4485 77.4483,-77.4485 -61.9587,0 -77.4483,-15.4895 -77.4483,-77.4483 z"
             id="path56" />
          <path
             style="fill:#ffd464;stroke-width:15.4897"
             d="m 4796.562,2793.2731 c 0,61.9587 -15.4898,77.4482 -77.4485,77.4482 61.9587,0 77.4485,15.4898 77.4485,77.4485 0,-61.9587 15.4895,-77.4485 77.4482,-77.4485 -61.9587,0 -77.4482,-15.4895 -77.4482,-77.4482 z"
             id="path58" />
          <path
             style="fill:#ffd464;stroke-width:15.4897"
             d="m 4750.0927,2251.1345 c 0,61.9587 -15.4895,77.4483 -77.4482,77.4483 61.9587,0 77.4482,15.4897 77.4482,77.4484 0,-61.9587 15.4898,-77.4484 77.4485,-77.4484 -61.9587,0 -77.4485,-15.4896 -77.4485,-77.4483 z"
             id="path60" />
          <path
             style="fill:#ffd464;stroke-width:15.4897"
             d="m 3975.6091,1693.5061 c 0,61.9588 -15.4897,77.4485 -77.4485,77.4485 61.9588,0 77.4485,15.4896 77.4485,77.4483 0,-61.9587 15.4897,-77.4483 77.4483,-77.4483 -61.9586,0 -77.4483,-15.4897 -77.4483,-77.4485 z"
             id="path62" />
          <path
             style="fill:#ffd464;stroke-width:15.4897"
             d="m 3712.2846,2018.7894 c 0,61.9586 -15.4896,77.4483 -77.4483,77.4483 61.9587,0 77.4483,15.4897 77.4483,77.4483 0,-61.9586 15.4897,-77.4483 77.4485,-77.4483 -61.9588,0 -77.4485,-15.4897 -77.4485,-77.4483 z"
             id="path64" />
          <path
             style="fill:#ffd464;stroke-width:15.4897"
             d="m 2382.2048,2840.8783 c 0,61.9587 -15.4898,77.4485 -77.4483,77.4485 61.9585,0 77.4483,15.4895 77.4483,77.4483 0,-61.9588 15.4897,-77.4483 77.4485,-77.4483 -61.9588,0 -77.4485,-15.4898 -77.4485,-77.4485 z"
             id="path54-6" />
          <path
             style="fill:#ffd464;stroke-width:15.4897"
             d="m 2896.9785,2835.2214 c 0,61.9587 -15.4898,77.4485 -77.4483,77.4485 61.9585,0 77.4483,15.4895 77.4483,77.4483 0,-61.9588 15.4897,-77.4483 77.4485,-77.4483 -61.9588,0 -77.4485,-15.4898 -77.4485,-77.4485 z"
             id="path54-9" />
          <path
             style="fill:#ffd464;stroke-width:15.4897"
             d="m 2370.8911,2439.2417 c 0,61.9587 -15.4898,77.4485 -77.4483,77.4485 61.9585,0 77.4483,15.4895 77.4483,77.4483 0,-61.9588 15.4897,-77.4483 77.4485,-77.4483 -61.9588,0 -77.4485,-15.4898 -77.4485,-77.4485 z"
             id="path54-5" />
          <path
             style="fill:#ffd464;stroke-width:15.4897"
             d="m 1754.2939,1177.7632 c 0,61.9587 -15.4898,77.4485 -77.4483,77.4485 61.9585,0 77.4483,15.4895 77.4483,77.4483 0,-61.9588 15.4897,-77.4483 77.4485,-77.4483 -61.9588,0 -77.4485,-15.4898 -77.4485,-77.4485 z"
             id="path54-7" />
          <path
             style="fill:#ffd464;stroke-width:15.4897"
             d="m 4028.3493,1155.1357 c 0,61.9587 -15.4898,77.4485 -77.4483,77.4485 61.9585,0 77.4483,15.4895 77.4483,77.4483 0,-61.9588 15.4897,-77.4483 77.4485,-77.4483 -61.9588,0 -77.4485,-15.4898 -77.4485,-77.4485 z"
             id="path54-0" />
          <path
             style="fill:#ffd464;stroke-width:15.4897"
             d="m 3032.743,1166.4494 c 0,61.9587 -15.4898,77.4485 -77.4483,77.4485 61.9585,0 77.4483,15.4895 77.4483,77.4483 0,-61.9588 15.4897,-77.4483 77.4485,-77.4483 -61.9588,0 -77.4485,-15.4898 -77.4485,-77.4485 z"
             id="path54-73" />
          <path
             style="fill:#ffd464;stroke-width:15.4897"
             d="m 2410.489,1613.3409 c 0,61.9587 -15.4898,77.4485 -77.4483,77.4485 61.9585,0 77.4483,15.4895 77.4483,77.4483 0,-61.9588 15.4897,-77.4483 77.4485,-77.4483 -61.9588,0 -77.4485,-15.4898 -77.4485,-77.4485 z"
             id="path54-92" />
          <path
             style="fill:#ffd464;stroke-width:15.4897"
             d="m 1907.029,2303.4771 c 0,61.9587 -15.4898,77.4485 -77.4483,77.4485 61.9585,0 77.4483,15.4895 77.4483,77.4483 0,-61.9588 15.4897,-77.4483 77.4485,-77.4483 -61.9588,0 -77.4485,-15.4898 -77.4485,-77.4485 z"
             id="path54-4" />
          <path
             style="fill:#ffd464;stroke-width:15.4897"
             d="m 1230.326,2849.304 c 0,61.9587 -15.4898,77.4485 -77.4483,77.4485 61.9585,0 77.4483,15.4895 77.4483,77.4483 0,-61.9588 15.4897,-77.4483 77.4485,-77.4483 -61.9588,0 -77.4485,-15.4898 -77.4485,-77.4485 z"
             id="path54-732" />
          <path
             style="fill:#ffd464;stroke-width:15.4897"
             d="m 390.326,1289.304 c 0,61.9587 -15.4898,77.4485 -77.4483,77.4485 61.9585,0 77.4483,15.4895 77.4483,77.4483 0,-61.9588 15.4897,-77.4483 77.4485,-77.4483 -61.9588,0 -77.4485,-15.4898 -77.4485,-77.4485 z"
             id="path54-08" />
          <path
             style="fill:#ffd464;stroke-width:15.4897"
             d="m 846.326,1145.304 c 0,61.9587 -15.4898,77.4485 -77.4483,77.4485 61.9585,0 77.4483,15.4895 77.4483,77.4483 0,-61.9588 15.4897,-77.4483 77.4485,-77.4483 -61.9588,0 -77.4485,-15.4898 -77.4485,-77.4485 z"
             id="path54-2" />
          <path
             style="fill:#ffd464;stroke-width:15.4897"
             d="m 422.326,2201.304 c 0,61.9587 -15.4898,77.4485 -77.4483,77.4485 61.9585,0 77.4483,15.4895 77.4483,77.4483 0,-61.9588 15.4897,-77.4483 77.4485,-77.4483 -61.9588,0 -77.4485,-15.4898 -77.4485,-77.4485 z"
             id="path54-44" />
          <path
             style="fill:#ffd464;stroke-width:15.4897"
             d="m 534.326,2769.304 c 0,61.9587 -15.4898,77.4485 -77.4483,77.4485 61.9585,0 77.4483,15.4895 77.4483,77.4483 0,-61.9588 15.4897,-77.4483 77.4485,-77.4483 -61.9588,0 -77.4485,-15.4898 -77.4485,-77.4485 z"
             id="path54-3" />
          <path
             style="fill:#ffd464;stroke-width:15.4897"
             d="m 2342.326,1233.304 c 0,61.9587 -15.4898,77.4485 -77.4483,77.4485 61.9585,0 77.4483,15.4895 77.4483,77.4483 0,-61.9588 15.4897,-77.4483 77.4485,-77.4483 -61.9588,0 -77.4485,-15.4898 -77.4485,-77.4485 z"
             id="path54-59" />
          <path
             style="fill:#ffd464;stroke-width:15.4897"
             d="m 2686.326,2049.304 c 0,61.9587 -15.4898,77.4485 -77.4483,77.4485 61.9585,0 77.4483,15.4895 77.4483,77.4483 0,-61.9588 15.4897,-77.4483 77.4485,-77.4483 -61.9588,0 -77.4485,-15.4898 -77.4485,-77.4485 z"
             id="path54-96" />
          <path
             style="fill:#ffd464;stroke-width:15.4897"
             d="m 4734.326,1097.304 c 0,61.9587 -15.4898,77.4485 -77.4483,77.4485 61.9585,0 77.4483,15.4895 77.4483,77.4483 0,-61.9588 15.4897,-77.4483 77.4485,-77.4483 -61.9588,0 -77.4485,-15.4898 -77.4485,-77.4485 z"
             id="path54-8" />
          <path
             style="fill:#ffd464;stroke-width:15.4897"
             d="m 4382.326,1249.304 c 0,61.9587 -15.4898,77.4485 -77.4483,77.4485 61.9585,0 77.4483,15.4895 77.4483,77.4483 0,-61.9588 15.4897,-77.4483 77.4485,-77.4483 -61.9588,0 -77.4485,-15.4898 -77.4485,-77.4485 z"
             id="path54-74" />
          <path
             style="fill:#ffd464;stroke-width:15.4897"
             d="m 3478.326,1201.304 c 0,61.9587 -15.4898,77.4485 -77.4483,77.4485 61.9585,0 77.4483,15.4895 77.4483,77.4483 0,-61.9588 15.4897,-77.4483 77.4485,-77.4483 -61.9588,0 -77.4485,-15.4898 -77.4485,-77.4485 z"
             id="path54-48" />
          <path
             style="fill:#ffd464;stroke-width:15.4897"
             d="m 2750.326,2545.304 c 0,61.9587 -15.4898,77.4485 -77.4483,77.4485 61.9585,0 77.4483,15.4895 77.4483,77.4483 0,-61.9588 15.4897,-77.4483 77.4485,-77.4483 -61.9588,0 -77.4485,-15.4898 -77.4485,-77.4485 z"
             id="path54-30" />
          <path
             style="fill:#ffd464;stroke-width:15.4897"
             d="m 1670.326,1625.304 c 0,61.9587 -15.4898,77.4485 -77.4483,77.4485 61.9585,0 77.4483,15.4895 77.4483,77.4483 0,-61.9588 15.4897,-77.4483 77.4485,-77.4483 -61.9588,0 -77.4485,-15.4898 -77.4485,-77.4485 z"
             id="path54-741" />
          <path
             style="fill:#ffd464;stroke-width:15.4897"
             d="m 366.326,1825.304 c 0,61.9587 -15.4898,77.4485 -77.4483,77.4485 61.9585,0 77.4483,15.4895 77.4483,77.4483 0,-61.9588 15.4897,-77.4483 77.4485,-77.4483 -61.9588,0 -77.4485,-15.4898 -77.4485,-77.4485 z"
             id="path54-40" />
          <path
             style="fill:#ffd464;stroke-width:15.4897"
             d="m 246.326,2905.304 c 0,61.9587 -15.4898,77.4485 -77.4483,77.4485 61.9585,0 77.4483,15.4895 77.4483,77.4483 0,-61.9588 15.4897,-77.4483 77.4485,-77.4483 -61.9588,0 -77.4485,-15.4898 -77.4485,-77.4485 z"
             id="path54-54" />
          <path
             style="fill:#ffd464;stroke-width:15.4897"
             d="m 158.326,2113.304 c 0,61.9587 -15.4898,77.4485 -77.4483,77.4485 61.9585,0 77.4483,15.4895 77.4483,77.4483 0,-61.9588 15.4897,-77.4483 77.4485,-77.4483 -61.9588,0 -77.4485,-15.4898 -77.4485,-77.4485 z"
             id="path54-03" />
          <path
             style="fill:#ffd464;stroke-width:15.4897"
             d="m 262.326,977.304 c 0,61.9587 -15.4898,77.4485 -77.4483,77.4485 61.9585,0 77.4483,15.4895 77.4483,77.4483 0,-61.9588 15.4897,-77.4483 77.4485,-77.4483 -61.9588,0 -77.4485,-15.4898 -77.4485,-77.4485 z"
             id="path54-63" />
          <path
             style="fill:#ffd464;stroke-width:15.4897"
             d="m 2542.326,1009.304 c 0,61.9587 -15.4898,77.4485 -77.4483,77.4485 61.9585,0 77.4483,15.4895 77.4483,77.4483 0,-61.9588 15.4897,-77.4483 77.4485,-77.4483 -61.9588,0 -77.4485,-15.4898 -77.4485,-77.4485 z"
             id="path54-33" />
          <path
             style="fill:#ffd464;stroke-width:15.4897"
             d="m 4798.326,1465.304 c 0,61.9587 -15.4898,77.4485 -77.4483,77.4485 61.9585,0 77.4483,15.4895 77.4483,77.4483 0,-61.9588 15.4897,-77.4483 77.4485,-77.4483 -61.9588,0 -77.4485,-15.4898 -77.4485,-77.4485 z"
             id="path54-88" />
        </g>
        <g
           id="g1591">
          <path
             style="fill:#ffd464;stroke-width:15.4897"
             d="m 3898.2417,1364.4393 c 0,61.9587 -15.4898,77.4485 -77.4483,77.4485 61.9585,0 77.4483,15.4895 77.4483,77.4483 0,-61.9588 15.4897,-77.4483 77.4485,-77.4483 -61.9588,0 -77.4485,-15.4898 -77.4485,-77.4485 z"
             id="path54-962" />
          <path
             style="fill:#ffd464;stroke-width:15.4897"
             d="m 3230.7329,1432.3216 c 0,61.9587 -15.4898,77.4485 -77.4483,77.4485 61.9585,0 77.4483,15.4895 77.4483,77.4483 0,-61.9588 15.4897,-77.4483 77.4485,-77.4483 -61.9588,0 -77.4485,-15.4898 -77.4485,-77.4485 z"
             id="path54-00" />
          <path
             style="fill:#ffd464;stroke-width:15.4897"
             d="m 2778.1846,1347.4688 c 0,61.9587 -15.4898,77.4485 -77.4483,77.4485 61.9585,0 77.4483,15.4895 77.4483,77.4483 0,-61.9588 15.4897,-77.4483 77.4485,-77.4483 -61.9588,0 -77.4485,-15.4898 -77.4485,-77.4485 z"
             id="path54-82" />
          <path
             style="fill:#ffd464;stroke-width:15.4897"
             d="m 1935.3133,2874.8194 c 0,61.9587 -15.4898,77.4485 -77.4483,77.4485 61.9585,0 77.4483,15.4895 77.4483,77.4483 0,-61.9588 15.4897,-77.4483 77.4485,-77.4483 -61.9588,0 -77.4485,-15.4898 -77.4485,-77.4485 z"
             id="path54-26" />
          <path
             style="fill:#ffd464;stroke-width:15.4897"
             d="m 2121.9895,1409.6942 c 0,61.9587 -15.4898,77.4485 -77.4483,77.4485 61.9585,0 77.4483,15.4895 77.4483,77.4483 0,-61.9588 15.4897,-77.4483 77.4485,-77.4483 -61.9588,0 -77.4485,-15.4898 -77.4485,-77.4485 z"
             id="path54-60" />
          <path
             style="fill:#ffd464;stroke-width:15.4897"
             d="m 1392.2553,1075.9398 c 0,61.9587 -15.4898,77.4485 -77.4483,77.4485 61.9585,0 77.4483,15.4895 77.4483,77.4483 0,-61.9588 15.4897,-77.4483 77.4485,-77.4483 -61.9588,0 -77.4485,-15.4898 -77.4485,-77.4485 z"
             id="path54-68" />
          <path
             style="fill:#ffd464;stroke-width:15.4897"
             d="m 4599.6916,2823.9077 c 0,61.9587 -15.4898,77.4485 -77.4483,77.4485 61.9585,0 77.4483,15.4895 77.4483,77.4483 0,-61.9588 15.4897,-77.4483 77.4485,-77.4483 -61.9588,0 -77.4485,-15.4898 -77.4485,-77.4485 z"
             id="path54-36" />
          <path
             style="fill:#ffd464;stroke-width:15.4897"
             d="m 4735.4561,2524.0945 c 0,61.9587 -15.4898,77.4485 -77.4483,77.4485 61.9585,0 77.4483,15.4895 77.4483,77.4483 0,-61.9588 15.4897,-77.4483 77.4485,-77.4483 -61.9588,0 -77.4485,-15.4898 -77.4485,-77.4485 z"
             id="path54-32" />
          <path
             style="fill:#ffd464;stroke-width:15.4897"
             d="m 266.5413,1534.145 c 0,61.9587 -15.4898,77.4485 -77.4483,77.4485 61.9585,0 77.4483,15.4895 77.4483,77.4483 0,-61.9588 15.4897,-77.4483 77.4485,-77.4483 -61.9588,0 -77.4485,-15.4898 -77.4485,-77.4485 z"
             id="path54-06" />
        </g>
      </g>
    </g>
  </g>
</svg>
