<svg xmlns="http://www.w3.org/2000/svg" viewBox="0 0 238.4 113.6"><defs><style>.a{fill:#f22b29;}</style></defs><path class="a" d="M-448.956,119.205a38.119,38.119,0,0,1,27.7,11.3,36.925,36.925,0,0,1,11.5,27.5,39,39,0,0,1-11.6,28.1,37.368,37.368,0,0,1-27.7,11.8c-10.5,0-19.6-3.9-27.3-11.8a38.226,38.226,0,0,1-11.5-27.8,38.282,38.282,0,0,1,11.3-27.7A37.593,37.593,0,0,1-448.956,119.205Zm-25,39.4a25.551,25.551,0,0,0,7.5,18.3c5,5.2,10.9,7.9,17.6,7.9a24.084,24.084,0,0,0,17.8-7.7,25.741,25.741,0,0,0,7.5-18.6,26.3,26.3,0,0,0-7.5-18.7c-5-5.3-10.9-8-17.8-8-6.5,0-12.4,2.6-17.5,8A26.463,26.463,0,0,0-473.956,158.6Z" transform="translate(487.856 -84.305)"/><polygon points="101.8 63.2 101.8 63.2 101.7 0 88.3 0 88.3 112.4 101.8 112.4 101.8 81.1 101.8 81.1 101.8 63.2"/><path d="M-335.656,191.705a35.594,35.594,0,0,0-4.4-17c-2.9-5.4-5.6-9.2-8.1-11.3a27.637,27.637,0,0,0-5.8-4.1l-4.4-2.5c12.5-6.4,19.6-16,21.5-28.7l1.2-6.7h-14.1l-.9,5.1c-1.3,6.9-5,12.7-11.2,17.4a33.989,33.989,0,0,1-15.9,6.8v12.7a32.736,32.736,0,0,1,17.2,6.9c6,4.8,9.5,11.6,10.4,20.3l.6,6.1h14.2Z" transform="translate(487.856 -84.305)"/><path d="M-263.056,84.305v72.1c0,8-2.5,14.8-7.6,20.3a24.263,24.263,0,0,1-18.5,8.3,24.107,24.107,0,0,1-18-7.6,24.591,24.591,0,0,1-7.5-17.8,24.228,24.228,0,0,1,8.3-18.7,28.8,28.8,0,0,1,20.1-7.5,22.749,22.749,0,0,1,2.4.1,40.706,40.706,0,0,1,4.3.7,69.955,69.955,0,0,1,8.1,3v-14a46.017,46.017,0,0,0-8.9-2.5,37.651,37.651,0,0,0-7.3-.6c-11.8,0-21.5,3.6-29,10.8s-11.3,16.6-11.3,28.1,3.7,20.9,11.1,28.1,16.9,10.8,28.7,10.8c10.2,0,18.6-2.8,25.1-8.3v8.3h13.6V84.305Z" transform="translate(487.856 -84.305)"/></svg>