<?xml version="1.0" encoding="UTF-8" standalone="no"?>
<!-- Created with Inkscape (http://www.inkscape.org/) -->

<svg
   xmlns:dc="http://purl.org/dc/elements/1.1/"
   xmlns:cc="http://creativecommons.org/ns#"
   xmlns:rdf="http://www.w3.org/1999/02/22-rdf-syntax-ns#"
   xmlns:svg="http://www.w3.org/2000/svg"
   xmlns="http://www.w3.org/2000/svg"
   xmlns:sodipodi="http://sodipodi.sourceforge.net/DTD/sodipodi-0.dtd"
   xmlns:inkscape="http://www.inkscape.org/namespaces/inkscape"
   width="406.85275"
   height="406.85275"
   id="svg2"
   version="1.1"
   inkscape:version="0.48.5 r10040"
   sodipodi:docname="ovn.svg"
   inkscape:export-filename="/home/blp/ovn.png"
   inkscape:export-xdpi="44.24205"
   inkscape:export-ydpi="44.24205">
  <defs
     id="defs4">
    <inkscape:path-effect
       effect="spiro"
       id="path-effect4724"
       is_visible="true" />
    <inkscape:path-effect
       effect="spiro"
       id="path-effect4720"
       is_visible="true" />
    <marker
       inkscape:stockid="Arrow1Lend"
       orient="auto"
       refY="0"
       refX="0"
       id="Arrow1Lend"
       style="overflow:visible">
      <path
         id="path3917"
         d="M 0,0 5,-5 -12.5,0 5,5 0,0 z"
         style="fill-rule:evenodd;stroke:#000000;stroke-width:1pt"
         transform="matrix(-0.8,0,0,-0.8,-10,0)"
         inkscape:connector-curvature="0" />
    </marker>
    <inkscape:path-effect
       effect="spiro"
       id="path-effect3908"
       is_visible="true" />
    <inkscape:path-effect
       effect="spiro"
       id="path-effect4724-8"
       is_visible="true" />
  </defs>
  <sodipodi:namedview
     id="base"
     pagecolor="#ffffff"
     bordercolor="#666666"
     borderopacity="1.0"
     inkscape:pageopacity="0.0"
     inkscape:pageshadow="2"
     inkscape:zoom="0.69312547"
     inkscape:cx="20.424609"
     inkscape:cy="36.938232"
     inkscape:document-units="px"
     inkscape:current-layer="layer3"
     showgrid="false"
     inkscape:window-width="1920"
     inkscape:window-height="1058"
     inkscape:window-x="0"
     inkscape:window-y="0"
     inkscape:window-maximized="1"
     fit-margin-top="0"
     fit-margin-left="0"
     fit-margin-right="0"
     fit-margin-bottom="0" />
  <metadata
     id="metadata7">
    <rdf:RDF>
      <cc:Work
         rdf:about="">
        <dc:format>image/svg+xml</dc:format>
        <dc:type
           rdf:resource="http://purl.org/dc/dcmitype/StillImage" />
        <dc:title></dc:title>
      </cc:Work>
    </rdf:RDF>
  </metadata>
  <g
     inkscape:groupmode="layer"
     id="layer3"
     inkscape:label="Layer#1"
     transform="translate(-116.86196,-400.24359)">
    <rect
       style="fill:#ffffff;fill-opacity:1;fill-rule:nonzero;stroke:none"
       id="rect4750"
       width="406.85275"
       height="406.85275"
       x="116.86196"
       y="400.24359"
       rx="19.369202"
       ry="19.369202" />
  </g>
  <g
     inkscape:label="Layer 1"
     inkscape:groupmode="layer"
     id="layer1"
     style="display:inline"
     transform="translate(-116.86196,-400.24359)">
    <rect
       style="fill:#000000;fill-opacity:1;fill-rule:nonzero;stroke:none"
       id="rect2987"
       width="382.54175"
       height="382.54175"
       x="129.53154"
       y="410.75735"
       rx="19.369202"
       ry="19.369202" />
    <rect
       style="fill:#ffffff;fill-opacity:1;fill-rule:nonzero;stroke:none"
       id="rect2989"
       width="220.32468"
       height="220.32468"
       x="216.69295"
       y="518.49854"
       rx="17.538282"
       ry="17.538282" />
    <path
       style="fill:#008000;fill-opacity:1;stroke:none"
       d="m 283.44793,592.04201 88.56572,0.64637 0,-20.03732 42.05279,29.7328 -42.05279,29.08644 0,-18.09823 -89.20289,0 0.63717,-21.33006"
       id="path4722"
       inkscape:path-effect="#path-effect4724"
       inkscape:original-d="m 283.44793,592.04201 88.56572,0.64637 0,-20.03732 42.05279,29.7328 -42.05279,29.08644 0,-18.09823 -89.20289,0 z"
       inkscape:connector-curvature="0"
       sodipodi:nodetypes="cccccccc" />
    <path
       style="fill:#008000;fill-opacity:1;stroke:none;display:inline"
       d="m 371.55614,640.34623 -88.56573,0.64637 0,-20.03732 -42.05278,29.7328 42.05278,29.08644 0,-18.09823 89.20289,0 -0.63716,-21.33006"
       id="path4722-1"
       inkscape:path-effect="#path-effect4724-8"
       inkscape:original-d="m 371.55614,640.34623 -88.56573,0.64637 0,-20.03732 -42.05278,29.7328 42.05278,29.08644 0,-18.09823 89.20289,0 z"
       inkscape:connector-curvature="0"
       sodipodi:nodetypes="cccccccc" />
  </g>
  <g
     inkscape:groupmode="layer"
     id="layer2"
     inkscape:label="Layer"
     style="display:inline"
     transform="translate(-116.86196,-400.24359)">
    <path
       sodipodi:type="arc"
       style="fill:#ffffff;fill-opacity:1;fill-rule:nonzero;stroke:none"
       id="path3808"
       sodipodi:cx="190.08102"
       sodipodi:cy="482.84048"
       sodipodi:rx="19.116308"
       sodipodi:ry="19.116308"
       d="m 209.19733,482.84048 c 0,10.55765 -8.55866,19.11631 -19.11631,19.11631 -10.55764,0 -19.1163,-8.55866 -19.1163,-19.11631 0,-10.55764 8.55866,-19.1163 19.1163,-19.1163 10.55765,0 19.11631,8.55866 19.11631,19.1163 z"
       transform="translate(-11.541922,-28.674478)" />
    <path
       sodipodi:type="arc"
       style="fill:#ffffff;fill-opacity:1;fill-rule:nonzero;stroke:none"
       id="path3808-7"
       sodipodi:cx="190.08102"
       sodipodi:cy="482.84048"
       sodipodi:rx="19.116308"
       sodipodi:ry="19.116308"
       d="m 209.19733,482.84048 c 0,10.55765 -8.55866,19.11631 -19.11631,19.11631 -10.55764,0 -19.1163,-8.55866 -19.1163,-19.11631 0,-10.55764 8.55866,-19.1163 19.1163,-19.1163 10.55765,0 19.11631,8.55866 19.11631,19.1163 z"
       transform="translate(44.364264,-28.674478)" />
    <path
       sodipodi:type="arc"
       style="fill:#ffffff;fill-opacity:1;fill-rule:nonzero;stroke:none"
       id="path3808-7-3"
       sodipodi:cx="190.08102"
       sodipodi:cy="482.84048"
       sodipodi:rx="19.116308"
       sodipodi:ry="19.116308"
       d="m 209.19733,482.84048 c 0,10.55765 -8.55866,19.11631 -19.11631,19.11631 -10.55764,0 -19.1163,-8.55866 -19.1163,-19.11631 0,-10.55764 8.55866,-19.1163 19.1163,-19.1163 10.55765,0 19.11631,8.55866 19.11631,19.1163 z"
       transform="translate(130.72139,-28.674478)" />
    <path
       sodipodi:type="arc"
       style="fill:#ffffff;fill-opacity:1;fill-rule:nonzero;stroke:none"
       id="path3808-4"
       sodipodi:cx="190.08102"
       sodipodi:cy="482.84048"
       sodipodi:rx="19.116308"
       sodipodi:ry="19.116308"
       d="m 209.19733,482.84048 c 0,10.55765 -8.55866,19.11631 -19.11631,19.11631 -10.55764,0 -19.1163,-8.55866 -19.1163,-19.11631 0,-10.55764 8.55866,-19.1163 19.1163,-19.1163 10.55765,0 19.11631,8.55866 19.11631,19.1163 z"
       transform="translate(220.55891,-28.674478)" />
    <path
       sodipodi:type="arc"
       style="fill:#ffffff;fill-opacity:1;fill-rule:nonzero;stroke:none"
       id="path3808-7-36"
       sodipodi:cx="190.08102"
       sodipodi:cy="482.84048"
       sodipodi:rx="19.116308"
       sodipodi:ry="19.116308"
       d="m 209.19733,482.84048 c 0,10.55765 -8.55866,19.11631 -19.11631,19.11631 -10.55764,0 -19.1163,-8.55866 -19.1163,-19.11631 0,-10.55764 8.55866,-19.1163 19.1163,-19.1163 10.55765,0 19.11631,8.55866 19.11631,19.1163 z"
       transform="translate(276.46511,-28.674478)" />
  </g>
</svg>
