<?xml version="1.0" encoding="UTF-8" standalone="no"?>
<!-- Created with Inkscape (http://www.inkscape.org/) -->

<svg
   xmlns:dc="http://purl.org/dc/elements/1.1/"
   xmlns:cc="http://creativecommons.org/ns#"
   xmlns:rdf="http://www.w3.org/1999/02/22-rdf-syntax-ns#"
   xmlns:svg="http://www.w3.org/2000/svg"
   xmlns="http://www.w3.org/2000/svg"
   xmlns:sodipodi="http://sodipodi.sourceforge.net/DTD/sodipodi-0.dtd"
   xmlns:inkscape="http://www.inkscape.org/namespaces/inkscape"
   id="svg2"
   version="1.1"
   inkscape:version="0.91 r13725"
   xml:space="preserve"
   width="1800mm"
   height="600mm"
   viewBox="0 0 6377.9528 2125.9842"
   sodipodi:docname="encimera_corte.svg"><metadata
     id="metadata8"><rdf:RDF><cc:Work
         rdf:about=""><dc:format>image/svg+xml</dc:format><dc:type
           rdf:resource="http://purl.org/dc/dcmitype/StillImage" /><dc:title></dc:title></cc:Work></rdf:RDF></metadata><defs
     id="defs6" /><sodipodi:namedview
     pagecolor="#ffffff"
     bordercolor="#666666"
     borderopacity="1"
     objecttolerance="10"
     gridtolerance="10"
     guidetolerance="10"
     inkscape:pageopacity="0"
     inkscape:pageshadow="2"
     inkscape:window-width="1600"
     inkscape:window-height="836"
     id="namedview4"
     showgrid="false"
     inkscape:snap-bbox="true"
     inkscape:snap-global="true"
     inkscape:bbox-nodes="false"
     inkscape:snap-nodes="true"
     inkscape:snap-others="false"
     inkscape:snap-intersection-paths="true"
     inkscape:zoom="0.15311913"
     inkscape:cx="3214.7692"
     inkscape:cy="864.08536"
     inkscape:window-x="0"
     inkscape:window-y="27"
     inkscape:window-maximized="1"
     inkscape:current-layer="g10"
     units="mm"
     showguides="false" /><g
     id="g10"
     inkscape:groupmode="layer"
     inkscape:label="ink_ext_XXXXXX"
     transform="matrix(1.25,0,0,-1.25,0,2125.9842)"><path
       style="fill:none;stroke:#000000;stroke-width:0.8;stroke-linecap:butt;stroke-linejoin:miter;stroke-miterlimit:10;stroke-dasharray:none;stroke-opacity:1"
       d="M 263.92868,1550.948 C 221.49583,1423.2951 169.8302,1333.0659 10.86726,1283.0319 L 253.5482,490.11401 c 0,0 272.05032,44.52321 406.82575,26.64745 215.92836,-27.55825 386.46495,-105.27676 550.61875,-236.99308 219.0079,59.99183 448.7479,148.03551 618.7999,248.90624 155.5046,92.24162 312.9913,204.15489 474.1478,298.56035 83.5645,48.9519 204.9404,117.47349 255.2694,138.74867 94.7354,40.04676 155.8501,32.10994 190.2426,-15.70063 129.3148,-179.76601 345.8453,-274.75366 558.5703,-209.03558 123.3978,38.23947 226.6384,123.65116 287.0096,237.44548 60.3713,113.79449 72.9282,246.64999 34.9083,369.34029 -64.3121,206.83 -259.7054,320.5003 -476.6078,339.754 -24.8676,2.2074 -46.7799,3.916 -72.0083,4.9401 -91.2637,3.3587 -210.6368,4.9635 -368.4104,4.3913 -729.9236,-2.6468 -2152.99039,-6.0366 -2152.99039,-6.0366 0,0 -120.2217,-1.6472 -177.10238,-18.6346 C 333.7052,1651.7479 283.33053,1616 263.92868,1550.948 Z"
       id="path20"
       inkscape:connector-curvature="0"
       sodipodi:nodetypes="cccccsssscscscsccc" /><path
       inkscape:connector-curvature="0"
       id="path66"
       style="fill:#000000;stroke:none;stroke-width:6.48283243;stroke-linecap:butt;stroke-linejoin:miter;stroke-miterlimit:10;stroke-dasharray:none;stroke-opacity:1"
       d="m 846.40605,1511.5023 c 23.85391,-76.9767 -20.90864,-159.2443 -99.9616,-183.7417 -79.09276,-24.5097 -162.53153,18.0304 -186.38544,95.0069 -23.84781,76.9569 20.91486,159.2246 100.00763,183.7343 79.05296,24.4974 162.4916,-18.0427 186.33941,-94.9995 z" /><path
       inkscape:connector-curvature="0"
       id="path72"
       style="fill:#000000;stroke:none;stroke-width:6.48283243;stroke-linecap:butt;stroke-linejoin:miter;stroke-miterlimit:10;stroke-dasharray:none;stroke-opacity:1"
       d="m 1311.2113,1513.8665 c 23.8478,-76.9568 -20.9349,-159.2306 -99.9877,-183.7278 -79.0929,-24.5098 -162.5116,18.0362 -186.3594,94.993 -23.8478,76.9569 20.8886,159.2385 99.9815,183.7482 79.0528,24.4974 162.5178,-18.0565 186.3656,-95.0134 z" /><path
       inkscape:connector-curvature="0"
       id="path78"
       style="fill:#000000;stroke:none;stroke-width:6.48283243;stroke-linecap:butt;stroke-linejoin:miter;stroke-miterlimit:10;stroke-dasharray:none;stroke-opacity:1"
       d="m 1778.2803,1509.8433 c 23.8415,-76.9369 -20.9349,-159.2307 -99.9876,-183.7281 -79.093,-24.5097 -162.5379,18.0503 -186.3796,94.9871 -23.8539,76.9767 20.9088,159.2445 100.0017,183.7542 79.0528,24.4973 162.5115,-18.0366 186.3655,-95.0132 z" /><path
       inkscape:connector-curvature="0"
       id="path84"
       style="fill:#000000;stroke:none;stroke-width:6.48283243;stroke-linecap:butt;stroke-linejoin:miter;stroke-miterlimit:10;stroke-dasharray:none;stroke-opacity:1"
       d="m 2247.1314,1511.2952 c 23.8415,-76.9369 -20.9148,-159.2245 -99.9678,-183.7218 -79.0928,-24.5098 -162.5376,18.0503 -186.3792,94.987 -23.8539,76.9767 20.9085,159.2445 100.0014,183.7542 79.0529,24.4974 162.4916,-18.0428 186.3456,-95.0194 z" /><path
       inkscape:connector-curvature="0"
       id="path90"
       style="fill:#000000;stroke:none;stroke-width:6.48283243;stroke-linecap:butt;stroke-linejoin:miter;stroke-miterlimit:10;stroke-dasharray:none;stroke-opacity:1"
       d="m 2719.553,1514.6411 c 23.8416,-76.9367 -20.915,-159.2244 -99.9877,-183.7279 -79.073,-24.5036 -162.518,18.0563 -186.3596,94.9932 -23.854,76.9767 20.9088,159.2444 99.9817,183.748 79.0729,24.5035 162.5116,-18.0365 186.3656,-95.0133 z" /><path
       inkscape:connector-curvature="0"
       id="path96"
       style="fill:#000000;stroke:none;stroke-width:6.48283243;stroke-linecap:butt;stroke-linejoin:miter;stroke-miterlimit:10;stroke-dasharray:none;stroke-opacity:1"
       d="m 3192.808,1516.7794 c 23.854,-76.9766 -20.9286,-159.2505 -99.9816,-183.7479 -79.0927,-24.5097 -162.5315,18.0303 -186.3854,95.007 -23.8417,76.9369 20.9148,159.2246 100.0076,183.7342 79.0529,24.4974 162.5179,-18.0564 186.3594,-94.9933 z" /><path
       inkscape:connector-curvature="0"
       id="path576"
       style="fill:#000000;stroke:none;stroke-width:6.48283243;stroke-linecap:butt;stroke-linejoin:miter;stroke-miterlimit:10;stroke-dasharray:none;stroke-opacity:1"
       d="m 459.34159,981.0687 c 10.91863,-35.23438 -41.77438,-69.81104 -122.27081,-107.79601 -32.62562,-15.38327 -66.94445,-30.80993 -94.38442,-29.24835 -35.00663,1.97351 -61.28423,29.29777 -67.39618,49.02105 -6.34084,20.46188 -9.23184,56.12723 20.53945,78.109 21.45849,15.90481 67.96472,23.13972 101.71757,29.66091 80.00502,15.4934 150.87579,15.4878 161.79439,-19.7466 z" /><path
       inkscape:connector-curvature="0"
       id="path600"
       style="fill:#000000;fill-opacity:1;fill-rule:nonzero;stroke:none;stroke-width:0.32767996;stroke-miterlimit:10;stroke-dasharray:none"
       d="m 2883.5416,1197.8334 7.3362,-0.374 c 9.6153,-0.4555 14.0353,5.9684 15.572,11.3894 1.9588,6.9522 0.4403,11.711 -9.015,12.216 l -7.2441,0.3589 -6.6491,-23.5903 z m -12.7613,39.9803 39.8778,-2.0176 c 20.2261,-1.0182 23.9311,-12.6916 20.3316,-25.294 -3.8022,-13.431 -11.5832,-19.6712 -23.3309,-21.5831 l -0.098,-0.2491 c 14.5981,-2.6966 13.019,-11.369 9.7555,-23.7141 -4.71,-18.1976 -4.5112,-20.0396 -1.4814,-21.4856 l -0.3356,-1.1762 -25.5816,1.284 c -0.9961,3.2141 -0.2381,8.3938 2.7466,18.8146 4.5301,15.954 3.1033,19.4283 -4.4113,19.8127 l -9.0404,0.4368 -10.7889,-37.9792 -23.7453,1.2186 26.1017,91.9322" /><path
       inkscape:connector-curvature="0"
       id="path602"
       style="fill:#000000;fill-opacity:1;fill-rule:nonzero;stroke:none;stroke-width:0.32767996;stroke-miterlimit:10;stroke-dasharray:none"
       d="m 2949.0484,1255.2413 c -0.7137,0.3258 -1.7927,0.5604 -3.1651,0.6821 l -1.3262,0.1141 -0.5349,-6.1827 2.1378,-0.1909 c 1.3263,-0.1141 2.3216,0.063 3.0982,0.5225 0.7705,0.4795 1.1975,1.29 1.3149,2.4642 0.077,1.1618 -0.4327,2.032 -1.5247,2.5907 z m -11.4902,-16.2291 1.7785,21.1619 c 1.32,-0.094 3.2933,-0.2485 5.886,-0.4952 2.6202,-0.1945 4.0648,-0.3376 4.3477,-0.4031 1.6737,-0.2471 3.0315,-0.7453 4.0747,-1.4286 1.8186,-1.2087 2.595,-2.9372 2.4199,-5.267 -0.1637,-1.8012 -0.7729,-3.0838 -1.8318,-3.7621 -1.0464,-0.7182 -2.3042,-1.108 -3.799,-1.1554 1.3268,-0.3984 2.2558,-0.8544 2.9176,-1.437 1.1531,-1.1087 1.6143,-2.738 1.4499,-4.8894 l -0.1592,-1.8872 c -0.019,-0.2246 0,-0.4363 -0.02,-0.6408 0.046,-0.2261 0.056,-0.3984 0.1365,-0.6578 l 0.1794,-0.5789 -5.3513,0.4639 c -0.098,0.6699 -0.1369,1.6424 -0.077,2.9301 0.026,1.2555 -0.014,2.162 -0.1358,2.6273 -0.2412,0.7786 -0.6987,1.337 -1.4385,1.6766 -0.4184,0.2204 -1.0101,0.3652 -1.8401,0.5019 l -1.2528,0.1587 -1.168,0.097 -0.5749,-7.4641 -5.5434,0.4483 z m -1.0211,21.9354 c -3.2809,-2.8984 -5.0946,-6.4361 -5.4364,-10.6991 -0.3846,-4.4077 0.8416,-8.2942 3.6583,-11.6661 2.7984,-3.3118 6.3746,-5.1794 10.7238,-5.5164 4.3416,-0.383 8.1358,0.8583 11.4951,3.7154 3.301,2.9046 5.1622,6.5007 5.5453,10.8423 0.3419,4.2631 -0.8797,8.0637 -3.6768,11.4415 -2.8158,3.4378 -6.3644,5.3575 -10.7059,5.7407 -4.3492,0.337 -8.2372,-0.9554 -11.6041,-3.8585 z m 21.2429,-25.3398 c -3.6064,-2.9774 -7.7588,-4.2642 -12.437,-3.8541 -4.8163,0.433 -8.76,2.4272 -11.7912,5.9951 -3.0372,3.5879 -4.3425,7.8001 -3.9551,12.6242 0.417,5.0085 2.5785,9.0479 6.4109,12.0734 3.6359,2.8115 7.6747,4.0411 12.2144,3.6538 4.7318,-0.3717 8.6617,-2.392 11.7376,-6.0336 3.0757,-3.6417 4.4347,-7.8153 4.0233,-12.5595 -0.4082,-4.8962 -2.4947,-8.8248 -6.2022,-11.8991" /><path
       inkscape:connector-curvature="0"
       id="path604"
       style="fill:#000000;fill-opacity:1;fill-rule:nonzero;stroke:none;stroke-width:0.32767996;stroke-miterlimit:10;stroke-dasharray:none"
       d="m 1757.3535,762.50635 c 0.2047,-4.04998 -0.1576,-8.03499 -1.0208,-11.95645 -0.8695,-3.90148 -2.5837,-9.59633 -5.0503,-17.0997 -2.4865,-7.50954 -4.0964,-12.34062 -4.7587,-14.58068 -0.5148,-1.51606 -1.5914,-4.89101 -3.156,-10.08001 -1.5906,-5.17521 -2.8373,-8.77784 -3.7659,-10.79414 -0.9486,-2.02249 -2.023,-3.42751 -3.2815,-4.16761 -1.3059,-0.7985 -2.6394,-1.01481 -4.1505,-0.586 -1.4715,0.44109 -2.6349,1.37147 -3.5813,2.87234 -1.4814,2.45093 -2.9878,6.53512 -4.413,12.26362 -1.4914,5.72984 -1.8224,10.04698 -0.9663,13.00351 0.881,3.51122 4.7711,11.43382 11.7423,23.74638 6.9975,12.29877 13.6066,22.17982 19.8131,29.61686 1.5386,-4.11797 2.404,-8.18203 2.5889,-12.23812 z m 195.3301,72.97954 c -6.4909,-18.94645 -12.3983,-30.0322 -17.7098,-33.29727 -5.0767,-3.10479 -8.8408,-2.60835 -11.3444,1.5169 -1.8406,2.97415 -2.9961,8.32674 -3.471,16.14383 -0.4629,7.77709 0.079,15.5593 1.6141,23.38651 1.3805,6.48854 2.2299,11.30277 2.568,14.44883 0.2839,3.1074 -0.1527,5.5758 -1.2766,7.43739 -1.7636,2.86675 -4.029,5.4467 -6.7178,7.69854 -2.7474,2.29934 -5.0514,3.37954 -7.024,3.24956 -0.9141,-0.0863 -2.2819,-0.68522 -4.1236,-1.80293 -4.696,-2.92116 -15.1724,-11.26569 -31.4169,-25.07344 -0.087,6.20901 -0.5933,10.03406 -1.4873,11.50738 -1.0222,1.67436 -2.4042,1.96809 -4.1521,0.90131 -1.1587,-0.70912 -2.1462,-1.75904 -2.9885,-3.13593 -2.4261,-3.11486 -4.2281,-7.96169 -5.518,-14.53154 -1.2498,-6.55742 -1.7639,-13.01815 -1.4176,-19.43104 0.3263,-6.41909 1.4544,-11.1894 3.3644,-14.31707 1.7328,-2.7669 3.6461,-4.49326 5.7817,-5.10049 1.9048,-0.56933 4.3648,-0.52907 7.2985,0.0299 -2.7652,-5.69233 -7.7429,-15.96495 -8.1399,-17.22571 -3.0526,-9.56662 -4.9745,-18.82659 -10.4069,-27.77414 -3.5823,-5.8799 -10.873,-15.18449 -18.6706,-15.36914 -10.0656,-0.20915 -7.4847,14.55001 -5.1937,21.56134 1.9572,6.25154 15.8292,23.19679 12.9976,29.93355 -7.5802,17.82422 -37.2163,-27.96457 -32.6479,1.91679 1.5412,9.99532 6.1523,17.63816 13.5728,24.33548 5.5799,5.01112 15.7961,11.3714 4.0426,16.96248 -23.0626,10.9479 -44.9091,-39.0785 -39.477,-55.33666 2.2107,-6.71032 1.5098,-12.00366 8.6451,-14.0591 5.2302,-1.48617 11.1859,1.60655 16.3628,2.26997 -4.1369,-0.55993 -4.2971,-10.28047 -3.4899,-18.95734 -1.7019,-5.73475 -3.2676,-10.35528 -4.6711,-13.87523 -2.5211,-6.33873 -5.3111,-10.39776 -8.3587,-12.28303 -5.1029,-3.09106 -10.0309,-0.7454 -14.8806,7.1382 -5.3093,8.66016 -8.8004,19.50282 -10.4201,32.56642 -1.6271,13.01753 -2.4521,26.76499 -2.4027,41.22103 0.023,14.46978 -0.045,29.3051 -0.2257,44.43367 -0.1348,15.12096 -1.6112,24.96889 -4.4091,29.54993 -1.4307,2.3573 -3.5775,3.98939 -6.342,4.86122 -2.7769,0.91176 -5.0936,0.76271 -7.0289,-0.40587 -1.7754,-1.11908 -3.0728,-5.54699 -3.9144,-13.42199 -0.8217,-7.86883 -0.9084,-19.09814 -0.2737,-33.71414 0.6072,-14.66826 1.8971,-31.11604 3.8112,-49.29584 -7.4688,2.8492 -13.3233,2.96038 -17.6311,0.26892 -5.264,-3.20657 -11.4101,-10.90933 -18.4508,-23.06835 -7.0546,-12.18522 -12.0363,-25.12839 -15.0237,-38.7882 -2.6063,-12.20706 -1.9483,-22.30858 1.8401,-30.36789 -3.975,-10.68393 -7.0943,-18.4114 -9.3173,-23.16998 -2.4297,-5.15076 -4.9413,-8.55466 -7.4859,-10.08708 -3.0679,-1.89154 -5.725,-0.94265 -8.0388,2.78196 -4.1468,6.74486 -3.7667,23.38193 1.1017,49.96489 1.3365,6.27794 1.4236,10.37461 0.235,12.30364 -2.428,3.95178 -5.4866,7.46747 -9.2571,10.45622 -3.7294,3.06714 -6.3114,4.12681 -7.7248,3.25122 -3.0478,-1.88532 -5.9024,-5.87688 -8.5576,-11.99458 -4.9249,-10.58446 -8.7795,-20.88096 -11.6621,-30.85435 -2.8489,-9.9411 -4.974,-19.11092 -6.3555,-27.50326 -1.4213,-8.40473 -2.5709,-15.21552 -3.5284,-20.45709 -0.93,-5.18929 -1.9519,-8.17532 -2.9695,-8.7751 -1.6881,-1.04822 -3.2985,-0.30009 -4.8307,2.24449 -2.792,4.56102 -2.0289,18.6912 2.3764,42.46134 0.7105,3.56778 1.1451,5.97795 1.3086,7.14453 0.1377,1.18041 0.1904,2.42197 0.1384,3.71869 -0.092,1.28442 -0.3918,2.39475 -0.9022,3.26494 -1.2793,2.01037 -3.0375,2.95333 -5.3054,2.92883 -2.3092,-0.103 -4.8672,-1.02693 -7.6466,-2.71964 -4.0193,-2.49266 -6.9154,-7.19723 -8.6055,-14.24118 -1.7023,-7.00393 -2.7149,-17.01049 -3.056,-29.95972 -0.1487,-7.00389 0.045,-12.15098 0.615,-15.54102 0.1386,-0.94163 0.4341,-1.96593 0.7819,-3.01776 -1.565,-3.35126 -2.8796,-6.09979 -3.0842,-6.71018 -2.9863,-9.56797 -4.9485,-18.84044 -10.3806,-27.78791 -3.5822,-5.87986 -10.8532,-15.17834 -18.6308,-15.35678 -10.0993,-0.24146 -7.5044,14.54388 -5.2598,21.56272 2.0097,6.22404 15.8892,23.21542 13.0239,29.91981 -7.5601,17.83045 -37.2301,-27.99072 -32.6418,1.89684 1.5487,10.04139 6.1462,17.65811 13.5729,24.3355 5.626,5.00352 15.7761,11.36523 3.9902,16.99 -23.0365,10.93409 -44.8431,-39.07993 -39.4386,-55.39042 2.2246,-6.68414 1.4976,-11.96369 8.6728,-14.00674 5.2303,-1.48613 11.1522,1.57421 16.3291,2.23763 -7.0065,-0.90218 -2.646,-28.38855 -1.2648,-32.13962 3.0587,-8.17604 9.0793,-16.025 17.7258,-18.50923 25.6108,-7.3795 36.7257,25.09942 44.4283,42.88975 1.6962,3.91701 2.885,7.91751 3.8758,11.92224 3.0621,-3.66779 6.2997,-6.84354 9.7099,-9.37509 5.9539,-4.45638 10.3357,-5.74597 13.1411,-4.06705 1.8292,1.1576 3.1083,3.17306 3.7771,6.02779 0.6826,2.88086 1.4095,8.16037 2.0797,15.74158 0.7025,7.54743 1.4521,14.51873 2.254,20.82794 0.8292,6.36142 2.1949,13.39239 4.2232,21.10996 2.8751,12.11535 6.0442,20.95229 9.4488,26.55833 0.1495,-9.44954 0.2817,-17.85424 0.5022,-25.20314 0.2255,-7.43492 0.4501,-13.03217 0.7377,-16.92523 0.2751,-3.85312 0.7815,-7.39388 1.5654,-10.62987 0.8164,-3.26965 2.0684,-6.25117 3.7673,-9.05048 5.8149,-9.44426 12.2996,-11.94202 19.4665,-7.53311 4.2127,2.57447 7.9773,8.64216 11.2865,18.15702 3.1733,9.03515 7.0761,22.84741 11.7257,41.31076 2.7173,-3.40265 5.7966,-6.56181 9.3581,-9.44032 5.5114,-4.44034 10.8373,-7.64725 15.9133,-9.55315 5.1221,-1.91353 8.8181,-2.1904 11.0954,-0.78451 1.3935,0.8694 3.079,3.97355 5.0306,9.32624 1.9389,5.39255 4.0902,12.99515 6.4152,22.86137 2.339,9.89245 4.6434,21.59028 7.0058,35.07832 3.8375,-11.04168 8.3511,-20.73604 13.54,-29.14907 3.7816,-6.20163 7.5668,-10.36734 11.3323,-12.35117 3.7565,-2.09604 7.7219,-1.82996 11.8883,0.75211 7.3419,4.55062 13.0397,16.66551 17.129,36.44304 3.312,-4.96875 7.899,-9.03914 13.7198,-10.73615 25.5783,-7.34576 36.6859,25.0871 44.4145,42.86362 3.9627,9.17041 5.2978,18.48923 7.3681,28.18903 0.6559,3.17892 2.4607,10.34595 1.3175,13.47057 -0.2435,0.64658 -0.4323,1.11318 -0.6807,1.5613 0.1592,4.07524 0.074,8.16234 -0.264,12.14902 1.6179,1.48602 3.9632,3.59121 6.9618,6.27082 3.0323,2.71193 5.9097,5.28834 8.626,7.74918 2.7226,2.44094 5.123,4.65071 7.2485,6.68784 -1.2032,-8.40279 -1.932,-16.57101 -2.1928,-24.48483 -0.2469,-7.88764 0.1279,-14.81677 1.1448,-20.78118 1.043,-5.97819 2.6646,-10.85814 4.9585,-14.58889 3.9509,-6.3242 8.1463,-10.4722 12.6352,-12.31939 4.5151,-1.86098 8.6048,-1.64382 12.262,0.60535 3.1151,1.94993 5.925,5.3806 8.3594,10.44534 2.427,5.01867 4.672,11.11867 6.7364,18.3661 2.0445,7.2413 4.3379,16.85709 6.9398,28.86585 l -5.3725,8.7937" /><path
       inkscape:connector-curvature="0"
       id="path606"
       style="fill:#000000;fill-opacity:1;fill-rule:nonzero;stroke:none;stroke-width:0.32767996;stroke-miterlimit:10;stroke-dasharray:none"
       d="m 1497.0758,637.58716 c 0.3746,11.71238 0.4797,22.88183 0.299,33.35 -0.2626,13.7686 -0.8591,26.14279 -1.9136,37.17167 -1.0562,10.96271 -2.2569,19.78017 -3.6762,26.40754 -1.4728,6.5889 -2.9418,11.18794 -4.5588,13.79379 -4.9392,8.03091 -10.8577,11.66686 -17.6969,10.86027 -6.8067,-0.84028 -14.6737,-3.9783 -23.4688,-9.41689 -14.6011,-8.9444 -29.8718,-20.1749 -45.7727,-33.67924 -15.9134,-13.46446 -29.8599,-26.14437 -41.8457,-38.0198 -11.9522,-11.84313 -18.8443,-19.1863 -20.6704,-22.04954 -5.0027,-7.72042 -7.7817,-16.54586 -8.2905,-26.48379 -0.541,-9.90421 0,-19.12401 1.575,-27.60569 1.5905,-8.52162 2.9052,-13.54041 3.9072,-15.221 1.4567,-2.37107 3.4652,-3.98041 5.9406,-4.76681 2.4557,-0.79249 4.8151,-0.49895 7.0388,0.86842 0.9915,0.61356 3.1544,3.16549 6.5303,7.73429 3.3436,4.60255 6.9934,8.99367 10.9046,13.24702 3.9849,4.29801 8.3015,8.65511 12.9391,13.17731 4.6574,4.5283 6.7282,7.09541 6.2824,7.89813 -1.0742,1.70193 -5.4291,0.22111 -13.1116,-4.5007 -4.8895,-3.00302 -10.7958,-6.88999 -17.6793,-11.6487 0.2744,1.09152 1.3918,3.27567 3.3194,6.58616 1.9543,3.29679 5.7028,8.28739 11.3054,14.99027 5.6289,6.68914 13.6398,14.72912 24.0003,24.15358 11.4506,10.63744 23.599,21.14105 36.3608,31.57216 12.8016,10.44348 21.7716,17.57725 26.9438,21.43367 4.8756,2.97682 8.86,4.4522 12.1451,4.44186 0.3746,-2.90332 0.9214,-7.35057 1.5853,-14.36516 3.6215,-23.68953 1.6966,-49.25092 2.8699,-72.73642 0.2749,-4.48768 0.3219,-8.80531 0.3105,-13.07543 l -15.7945,-9.75182 c -2.7935,-1.71895 -7.1737,-5.65818 -13.1879,-11.81032 l -22.5433,-22.7831 c -3.7188,-3.60295 -5.8714,-5.97663 -6.4378,-7.11484 -0.5723,-1.11823 -0.7825,-3.54636 -0.5908,-7.27218 0.06,-2.45375 0.5713,-6.71513 1.6789,-12.76082 1.5199,-2.50464 3.3891,-3.52266 5.5408,-3.0528 2.1717,0.47608 5.5409,2.24217 10.1289,5.37056 11.6389,7.9827 24.9845,20.69521 38.2404,26.07202 -0.4942,-4.90106 -1.0221,-9.83444 -1.4913,-14.81531 -2.1425,-25.21312 -5.1724,-46.78472 -9.1209,-64.61515 -3.1408,-13.72924 -6.726,-25.03628 -10.8231,-33.9857 -2.2334,-4.93681 -4.1932,-8.49791 -5.8404,-10.73688 -1.6949,-2.29747 -3.0646,-4.23166 -4.2416,-5.79977 -0.3517,-6.27909 2.0413,-13.43618 7.2247,-21.47891 0.063,-0.13348 0.1411,-0.24076 0.2299,-0.38827 1.8926,-3.63632 4.5329,-6.93152 7.6152,-9.32398 2.8912,-2.69237 5.8438,-4.66555 8.953,-5.80252 3.5737,-1.36499 6.7206,-1.35254 9.3743,0.0387 3.6316,1.9787 7.1012,6.59842 10.3873,13.78687 6.7254,14.73061 12.0809,36.56346 16.1272,65.51724 3.9252,27.29715 5.4696,52.39062 4.6905,75.45122 -0.2702,12.169 -0.7141,23.62777 -1.338,34.39625 1.9381,1.30068 3.7688,2.52442 5.5841,3.65585 3.8012,2.49073 13.8397,16.97906 16.2838,18.76478 l -4.5081,26.76238 -20.4555,-12.57461 c -0.3594,2.99558 -0.7141,5.90506 -1.1038,8.7162 -0.068,0.50412 -0.1124,0.92787 -0.155,1.41794" /><path
       inkscape:connector-curvature="0"
       id="path608"
       style="fill:#000000;fill-opacity:1;fill-rule:nonzero;stroke:none;stroke-width:0.32767996;stroke-miterlimit:10;stroke-dasharray:none"
       d="m 2087.5568,921.95983 0.8702,-3.23111 c 1.8944,-6.96151 5.1943,-11.25574 12.4423,-7.39058 7.3815,3.92842 7.9363,10.75183 6.5214,16.024 -5.361,19.91225 -40.6908,-11.66865 -50.0192,22.81144 -4.003,14.75369 0.2802,31.22185 21.8839,42.77386 20.9688,11.20206 31.4298,4.20395 35.2596,-9.99079 l 0.5806,-2.22684 -20.2192,-10.79469 c -1.1691,4.40752 -2.5211,7.35798 -4.3554,8.75874 -1.8316,1.53291 -4.1195,1.50217 -7.2353,-0.16353 -5.2356,-2.80394 -7.4816,-7.70077 -5.6872,-14.40887 5.2029,-19.2611 40.9257,10.90994 49.7325,-21.67501 5.6566,-20.93652 -3.342,-35.32134 -22.5391,-45.60248 -15.2447,-8.1374 -30.6263,-10.89097 -35.8292,8.37012 l -1.6192,5.93092 20.2133,10.81482" /><path
       inkscape:connector-curvature="0"
       id="path610"
       style="fill:#000000;fill-opacity:1;fill-rule:nonzero;stroke:none;stroke-width:0.32767996;stroke-miterlimit:10;stroke-dasharray:none"
       d="m 2136.7248,1006.5336 -18.7847,-9.84701 -4.6372,17.57651 58.61,30.8746 4.6498,-17.6164 -18.8062,-9.9193 19.6963,-74.7863 -21.0318,-11.06845 -19.6962,74.78635" /><path
       inkscape:connector-curvature="0"
       id="path612"
       style="fill:#000000;fill-opacity:1;fill-rule:nonzero;stroke:none;stroke-width:0.32767996;stroke-miterlimit:10;stroke-dasharray:none"
       d="m 2211.2204,1020.9542 6.576,3.3506 c 8.5743,4.3856 9.1765,12.1864 7.7781,17.6169 -1.7488,6.9846 -5.4511,10.3884 -13.8583,6.0983 l -6.436,-3.3072 5.9402,-23.7586 z m -30.9521,28.2169 35.5088,18.2239 c 18.0239,9.1955 27.0568,0.9454 30.2568,-11.7816 3.4089,-13.4719 -0.2538,-22.8338 -9.4291,-30.2937 l 0.054,-0.3117 c 13.9543,4.9588 16.938,-3.328 20.3109,-15.6952 4.9702,-18.08599 6.0625,-19.56354 9.4057,-19.33705 l 0.2921,-1.15663 -22.8159,-11.66514 c -2.4308,2.26614 -4.3305,7.12557 -6.9762,17.63948 -4.0472,16.09654 -7.0388,18.40774 -13.7159,14.96014 l -8.0863,-4.1249 9.6709,-38.2686 -21.212,-10.83984 -23.2632,92.65084" /><path
       inkscape:connector-curvature="0"
       id="path614"
       style="fill:#000000;fill-opacity:1;fill-rule:nonzero;stroke:none;stroke-width:0.32767996;stroke-miterlimit:10;stroke-dasharray:none"
       d="m 2288.0938,1084.1162 -0.2469,-0.1205 2.0617,-45.1337 15.5101,7.5632 -17.3248,37.6908 z m -16.9018,10.6252 26.7516,13.016 44.1252,-82.0944 -22.1693,-10.7865 -7.3849,16.1345 -21.7624,-10.6167 0.9191,-19.2758 -22.1495,-10.78021 1.6702,104.40311" /><path
       inkscape:connector-curvature="0"
       id="path616"
       style="fill:#000000;fill-opacity:1;fill-rule:nonzero;stroke:none;stroke-width:0.32767996;stroke-miterlimit:10;stroke-dasharray:none"
       d="m 2340.0458,1107.4576 -19.337,-8.771 -3.6205,17.826 60.3151,27.4208 3.588,-17.7923 -19.2983,-8.8247 15.3775,-75.8182 -21.6335,-9.8328 -15.3913,75.7922" /><path
       inkscape:connector-curvature="0"
       id="path618"
       style="fill:#000000;fill-opacity:1;fill-rule:nonzero;stroke:none;stroke-width:0.32767996;stroke-miterlimit:10;stroke-dasharray:none"
       d="m 2425.731,1076.3786 c 8.9589,3.4983 9.0747,12.3736 5.1708,38.3167 -3.8644,25.9554 -6.4352,33.7576 -15.3678,30.2456 -8.6993,-3.4179 -8.7553,-12.2747 -4.9435,-38.2026 3.8965,-25.9892 6.4674,-33.7914 15.1405,-30.3597 z m 2.3899,-14.7723 c -29.1517,-11.4842 -35.9384,6.039 -40.4224,36.1127 -4.4715,30.0338 -3.3588,50.6612 25.759,62.1131 31.3641,12.3229 36.4776,-9.8977 40.3623,-36.1313 3.8986,-26.2073 5.619,-49.7639 -25.6989,-62.0945" /><path
       inkscape:connector-curvature="0"
       id="path620"
       style="fill:#000000;fill-opacity:1;fill-rule:nonzero;stroke:none;stroke-width:0.32767996;stroke-miterlimit:10;stroke-dasharray:none"
       d="m 2509.204,1156.4421 c -0.458,13.9048 -2.3332,19.6034 -9.992,17.5582 -9.1684,-2.4692 -9.678,-11.204 -8.7826,-36.2635 0.9972,-28.3536 2.2084,-35.4393 11.8082,-32.8801 8.4835,2.2788 9.0938,12.0295 8.7029,26.9178 l 22.1392,5.9417 0.1341,-3.3279 c 0.699,-20.6131 -4.6127,-37.575 -33.0745,-45.2133 -29.3723,-7.8768 -32.4843,13.0387 -33.4793,41.8087 -0.8878,24.471 -0.3798,49.3089 32.1778,58.0633 20.2101,5.3876 31.5871,-0.1888 32.4189,-22.6424 l 0.1326,-4.0285 -22.1853,-5.934" /><path
       inkscape:connector-curvature="0"
       id="path622"
       style="fill:#000000;fill-opacity:1;fill-rule:nonzero;stroke:none;stroke-width:0.32767996;stroke-miterlimit:10;stroke-dasharray:none"
       d="m 2584.5137,1194.8547 -0.2857,-0.067 -8.8404,-44.2675 16.8735,3.5878 -7.7474,40.7463 z m -13.8471,14.3944 29.073,6.2305 23.114,-90.3339 -24.0722,-5.1405 -3.311,17.4626 -23.6942,-5.0889 -3.7405,-18.9256 -24.086,-5.1666 26.7169,100.9624" /><path
       inkscape:connector-curvature="0"
       id="path624"
       style="fill:#000000;fill-opacity:1;fill-rule:nonzero;stroke:none;stroke-width:0.32767996;stroke-miterlimit:10;stroke-dasharray:none"
       d="m 2653.6211,1156.0566 -0.2622,-3.3195 c -0.4511,-7.2288 1.2447,-12.3483 9.3428,-11.086 8.2657,1.3581 11.042,7.579 11.3967,13.0713 1.3955,20.5619 -42.2797,2.2141 -39.8694,37.8594 1.0512,15.2478 10.4419,29.426 34.6394,33.3143 23.4603,3.7254 31.0878,-6.2731 30.1016,-20.9538 l -0.1876,-2.2898 -22.6309,-3.5779 c 0.3075,4.515 -0.02,7.7612 -1.2685,9.6716 -1.2455,2.0427 -3.392,2.756 -6.9006,2.2158 -5.8908,-0.9722 -9.609,-4.8594 -10.0668,-11.784 -1.3616,-19.8951 42.2352,-3.0593 39.9408,-36.6776 -1.4977,-21.6438 -14.6354,-32.3447 -36.1663,-35.8004 -17.0595,-2.7046 -32.5038,-0.3141 -31.1484,19.601 l 0.4147,6.1454 22.6647,3.6102" /><path
       inkscape:connector-curvature="0"
       id="path626"
       style="fill:#000000;fill-opacity:1;fill-rule:nonzero;stroke:none;stroke-width:0.32767996;stroke-miterlimit:10;stroke-dasharray:none"
       d="m 2730.6665,1215.4866 -21.1483,-1.9368 2.4792,18.0533 65.9615,6.0217 -2.4455,-18.021 -21.1284,-1.9308 -10.4873,-76.6568 -23.6523,-2.1877 10.4211,76.6581" /><path
       inkscape:connector-curvature="0"
       id="path628"
       style="fill:#000000;fill-opacity:1;fill-rule:nonzero;stroke:none;stroke-width:0.32767996;stroke-miterlimit:10;stroke-dasharray:none"
       d="m 2792.1618,1238.1096 58.4326,1.3693 -3.6645,-17.83 -34.6691,-0.8099 -3.8485,-18.7184 32.512,0.7104 -3.6765,-17.7899 -32.5335,-0.7826 -4.4272,-21.3701 36.2302,0.8561 -3.6842,-17.836 -59.9997,-1.3955 19.3284,93.5966" /><path
       inkscape:connector-curvature="0"
       id="path630"
       style="fill:#000000;fill-opacity:1;fill-rule:nonzero;stroke:none;stroke-width:0.32767996;stroke-miterlimit:10;stroke-dasharray:none"
       d="m 1949.3585,906.09017 c -1.1129,0.20213 -2.568,0.16696 -4.4388,-0.15024 l -1.7987,-0.33857 1.3964,-8.31924 2.9124,0.48678 c 1.7249,0.29387 3.0591,0.86053 3.8903,1.7088 0.8586,0.90059 1.1358,2.12423 0.8715,3.68333 -0.2506,1.58521 -1.202,2.53752 -2.8331,2.92914 z m -9.7265,-25.30966 -4.8204,28.54726 c 1.7648,0.30623 4.4253,0.7587 7.9412,1.34499 3.5223,0.5664 5.5054,0.8746 5.8969,0.9522 2.2785,0.2028 4.2639,0.008 5.8723,-0.52143 2.7954,-0.97166 4.4175,-3.02891 4.9647,-6.20695 0.3919,-2.39479 0.055,-4.27158 -1.1365,-5.58153 -1.1452,-1.31757 -2.6847,-2.21034 -4.6259,-2.72437 1.8687,-0.0992 3.3091,-0.44051 4.369,-0.96541 1.8413,-1.07036 3.0422,-3.03939 3.5289,-5.95174 l 0.4615,-2.54817 c 0.011,-0.3042 0.088,-0.56372 0.174,-0.84319 0.087,-0.27948 0.2338,-0.5402 0.3797,-0.8013 l 0.447,-0.73667 -7.2179,-1.20834 c -0.3782,0.86736 -0.7488,2.13096 -1.1272,3.85162 -0.3538,1.70636 -0.7064,2.84425 -1.0578,3.41365 -0.5552,0.94384 -1.3493,1.5292 -2.4421,1.73753 -0.6119,0.13859 -1.4508,0.16303 -2.6305,0.0163 l -1.6486,-0.11702 -1.5466,-0.30425 1.6689,-10.11645 -7.4498,-1.23645 z m -8.719,28.63007 c -3.4289,-4.89155 -4.606,-10.20116 -3.6312,-15.95978 1.0232,-5.98436 3.9305,-10.70656 8.8083,-14.1617 4.8179,-3.47372 10.206,-4.69219 16.0568,-3.73243 5.8247,0.97354 10.4423,3.93605 13.8975,8.81386 3.4027,4.90533 4.609,10.3334 3.6168,16.21791 -0.9488,5.74483 -3.8452,10.36101 -8.6878,13.91458 -4.8888,3.56117 -10.2157,4.86424 -16.0803,3.87833 -5.8983,-1.01823 -10.5695,-4.01927 -13.9801,-8.97077 z m 36.5982,-26.31401 c -3.7773,-5.10888 -8.8079,-8.22125 -15.1303,-9.28339 -6.5082,-1.09788 -12.3499,0.24258 -17.5997,3.91064 -5.2227,3.72028 -8.386,8.8445 -9.4962,15.39261 -1.126,6.74017 0.3508,12.77716 4.3968,18.07874 3.8268,4.9492 8.7625,7.94465 14.8927,8.99099 6.3886,1.06074 12.2362,-0.29971 17.511,-4.04756 5.301,-3.76162 8.4857,-8.81361 9.5589,-15.24195 1.11,-6.54812 -0.2793,-12.51427 -4.1332,-17.80008" /><path
       inkscape:connector-curvature="0"
       id="path632"
       style="fill:#000000;fill-opacity:1;fill-rule:nonzero;stroke:none;stroke-width:0.32767996;stroke-miterlimit:10;stroke-dasharray:none"
       d="m 3210.5645,1027.8628 2.773,-3.5823 c -0.8708,-11.7349 -2.2026,-21.8404 -3.9496,-30.32412 -1.7408,-8.50372 -4.1523,-15.90247 -7.2666,-22.16256 -3.1006,-6.23378 -6.9337,-11.16309 -11.5701,-14.70032 -4.0119,-3.08113 -8.0507,-4.94537 -12.1492,-5.55899 -4.0983,-0.6136 -8.0501,0.0654 -11.8893,2.00445 -3.7929,1.93156 -7.3239,4.9945 -10.5468,9.18133 -2.5218,3.26631 -4.6791,7.19254 -6.4876,11.68637 -1.7623,4.48632 -3.1258,9.38052 -4.0243,14.68141 -0.8728,5.28706 -1.4299,11.10953 -1.5884,17.33993 -0.1585,6.2305 0.04,13.0746 0.5551,20.5203 0.5332,7.67 1.5487,14.7018 2.9602,21.0905 1.4178,6.3688 3.0128,11.7423 4.7848,16.1203 1.7584,4.3521 3.6622,8.0927 5.6968,11.13 2.0744,3.0497 3.98,5.303 5.8071,6.6788 1.835,1.4219 3.7616,2.194 5.7668,2.2902 1.9665,0.15 3.9836,-0.4284 5.9819,-1.5813 2.0182,-1.1469 3.8717,-2.8918 5.5832,-5.0965 3.2629,-4.1744 5.4011,-9.9444 6.5021,-17.2393 1.0917,-7.4071 1.3652,-15.0679 0.7837,-23.1467 -0.5739,-8.0328 -1.6555,-15.0631 -3.1846,-21.0726 -1.549,-6.0156 -3.1935,-9.6759 -4.8997,-10.9486 -1.1366,-0.9211 -2.5465,-1.3141 -4.2277,-1.1131 -1.663,0.141 -2.9519,0.77 -3.8393,1.9391 -1.6607,2.1109 -2.4865,5.5527 -2.5711,10.2744 -0.064,4.7278 0.2578,9.3351 0.9693,13.8878 0.7315,4.5589 1.3196,7.0385 1.8629,7.4038 0.2622,0.2125 0.5065,0.2007 0.6346,-3e-4 0.2636,-0.3559 0.4924,-1.0945 0.7726,-2.2111 0.208,-1.0952 0.4121,-1.7539 0.5665,-1.9031 0.191,-0.3347 0.4279,-0.3924 0.6502,-0.1923 0.6445,0.4623 1.1393,3.5256 1.5443,9.2086 0.4251,5.6892 0.3042,11.5155 -0.3023,17.4977 -0.6405,5.9497 -1.9505,10.248 -3.97,12.8823 -0.798,1.0217 -1.6567,1.6746 -2.5698,1.9386 -0.8886,0.1842 -1.8193,-0.06 -2.7599,-0.7677 -2.5942,-2.0074 -4.8843,-7.1148 -6.9237,-15.361 -2.047,-8.2923 -3.3462,-17.797 -3.8456,-28.5416 -0.533,-10.7768 0.011,-21.0676 1.6521,-30.82 1.63,-9.77845 4.4706,-17.32193 8.53,-22.58416 2.3278,-3.06381 4.7277,-5.23012 7.2119,-6.53886 2.4629,-1.38111 5.0161,-1.92451 7.6324,-1.68271 2.5901,0.25565 5.1648,1.33801 7.6317,3.26209 5.356,4.11026 9.8567,10.90931 13.4671,20.2987 3.5782,9.42324 6.351,21.37544 8.2441,35.81214" /><path
       inkscape:connector-curvature="0"
       id="path634"
       style="fill:#000000;fill-opacity:1;fill-rule:nonzero;stroke:none;stroke-width:0.32767996;stroke-miterlimit:10;stroke-dasharray:none"
       d="m 3223.1244,1060.8332 c -1.637,-4.2487 -2.9849,-7.9483 -4.0312,-11.1388 -1.0598,-3.2167 -1.7439,-6.1635 -2.0919,-8.8533 -0.3218,-2.7034 -0.1604,-5.0601 0.5319,-7.0117 2.2501,-4.8603 3.5168,-7.4652 3.7741,-7.8012 1.8779,-2.4594 4.4976,-2.3696 7.9587,0.3002 1.6061,1.2416 3.2389,4.6576 4.9056,10.294 -1.9694,1.2713 -3.5918,2.694 -4.8072,4.2865 -1.801,2.3519 -3.1709,5.0781 -4.0684,8.257 -0.9118,3.1526 -1.6291,7.0219 -2.1716,11.6673 z m 22.6883,-5.8564 2.9023,-3.7173 c -0.7816,-4.1149 -1.5853,-7.0989 -2.4913,-8.977 -0.9196,-1.904 -2.7843,-3.7947 -5.6829,-5.8088 -0.4252,-9.4307 -2.5255,-15.5734 -6.1952,-18.4173 -2.0697,-1.5821 -4.4928,-2.3767 -7.254,-2.2917 -2.7828,0.013 -5.5673,0.8786 -8.43,2.4201 -2.8551,1.5877 -5.3918,3.843 -7.6564,6.7733 -1.8208,2.3457 -3.0413,5.5776 -3.6748,9.6698 -0.6659,4.1259 -0.6743,8.3899 -0.084,12.8393 0.5766,4.4234 1.7208,8.4975 3.3928,12.2102 1.6659,3.7325 3.736,6.5838 6.1753,8.4556 1.7675,1.3574 3.364,2.1364 4.7572,2.3713 1.4393,0.2272 2.5094,-0.1194 3.2291,-1.0998 0.579,-0.7395 0.7995,-1.8747 0.6921,-3.5051 1.6226,0.7654 2.9636,1.0278 4.0151,0.741 1.0254,-0.273 2.2785,-1.3507 3.6418,-3.1381 1.3772,-1.7612 2.6839,-4.3538 3.9352,-7.6857 1.245,-3.3118 2.0453,-6.7396 2.4404,-10.2054 l 1.76,-0.2424 0.8206,0.67 c 0.6246,0.4561 1.1272,1.0932 1.4944,1.8853 0.3734,0.7721 0.6408,1.5332 0.8483,2.2759 0.2398,0.7088 0.6838,2.3123 1.3641,4.7767" /><path
       inkscape:connector-curvature="0"
       id="path636"
       style="fill:#000000;fill-opacity:1;fill-rule:nonzero;stroke:none;stroke-width:0.32767996;stroke-miterlimit:10;stroke-dasharray:none"
       d="m 3275.4231,1093.6466 c -0.8882,-12.2435 -0.2493,-19.8128 1.9906,-22.6633 1.1956,-1.5987 2.4717,-1.9033 3.7617,-0.9128 1.0817,0.8165 2.0356,2.4687 2.8943,4.9227 0.8387,2.448 1.983,6.5221 3.3866,12.2301 l 2.9657,-3.8508 c -1.2737,-9.2342 -2.411,-16.0849 -3.4501,-20.4984 -1.028,-4.5195 -2.4314,-7.4049 -4.2125,-8.7882 -3.0377,-2.3417 -6.1064,-1.4766 -9.1875,2.5353 -0.9075,1.1628 -1.6262,2.4935 -2.1314,3.9124 -0.5262,1.4122 -0.9342,3.0143 -1.2342,4.7592 -0.3137,1.7189 -0.7091,4.2657 -1.1738,7.6006 -0.4769,3.3749 -0.9652,7.14 -1.4702,11.3814 -1.2792,-2.6501 -2.2466,-6.8007 -2.9545,-12.4244 -0.5658,-3.6104 -0.8604,-6.8961 -0.9222,-9.8035 -0.061,-2.9072 -0.051,-6.1202 -0.025,-9.5911 0.045,-3.465 -0.019,-5.8698 -0.2069,-7.2408 -0.1542,-1.3387 -0.6377,-2.32 -1.4433,-2.8978 -1.1766,-0.9334 -3.2441,-0.5457 -6.1362,1.1617 -2.932,1.695 -5.6353,4.205 -8.2019,7.5449 -1.5699,2.0298 -2.5566,3.8026 -2.9808,5.3121 -0.4246,1.5094 -0.7514,3.8368 -1.0205,7.0354 -0.4498,5.8994 -0.4451,10.4739 -0.018,13.7568 0.4529,3.2691 1.5393,5.5531 3.253,6.8718 1.1827,0.9136 2.305,1.4582 3.3387,1.5816 1.0276,0.1435 1.8735,-0.1852 2.5161,-1.0582 0.3033,-0.3436 0.4979,-0.8303 0.5851,-1.394 0.093,-0.5839 0.1268,-1.186 0.1355,-1.7084 -0.045,-0.561 -0.1336,-1.6167 -0.2884,-3.3058 -0.8416,-10.9818 -0.5566,-17.4794 0.9162,-19.4079 0.8366,-1.0754 1.6177,-1.3366 2.3095,-0.8159 0.4573,0.3605 0.7573,1.7225 0.9476,4.1445 0.184,2.4419 0.3822,5.5446 0.5972,9.4402 0.2335,3.8357 0.7474,8.1085 1.5802,12.7643 0.7927,4.6435 2.0585,9.4555 3.8122,14.5282 0.8947,2.9028 2.0002,4.8425 3.2904,5.8332 0.6047,0.4499 1.8329,0.087 3.6654,-1.0959 1.7986,-1.215 3.3749,-2.6301 4.6489,-4.2701 0.6102,-0.8393 0.7958,-2.7072 0.463,-5.5891" /><path
       inkscape:connector-curvature="0"
       id="path638"
       style="fill:#000000;fill-opacity:1;fill-rule:nonzero;stroke:none;stroke-width:0.32767996;stroke-miterlimit:10;stroke-dasharray:none"
       d="m 3284.6497,1130.5948 2.3796,1.8532 c -0.7597,4.9939 -0.869,8.8765 -0.395,11.5832 0.4203,2.6684 1.7022,4.8161 3.7518,6.392 2.0496,1.576 3.412,1.9106 4.1253,0.9502 0.3281,-0.4234 0.4608,-2.2641 0.3796,-5.4617 -0.068,-3.1717 -0.016,-5.7376 0.2001,-7.7054 1.3918,0.8032 2.5844,1.5447 3.6693,2.2092 1.0451,0.652 1.8815,1.13 2.5108,1.5 0.8869,-5.5451 1.34,-11.5968 1.2808,-18.1135 -1.0802,-0.7503 -2.0118,-1.3454 -2.736,-1.8323 -0.7704,-0.4794 -1.5346,-0.9788 -2.2789,-1.472 -0.784,-0.5056 -1.7094,-1.1205 -2.7957,-1.851 0.4934,-4.77 1.0258,-8.9591 1.6506,-12.5289 0.5912,-3.6019 1.358,-6.712 2.2853,-9.4222 0.9036,-2.63 2.0567,-4.942 3.5234,-6.8506 1.9748,-2.5605 3.9933,-3.0727 6.037,-1.4768 1.4236,1.0539 2.6731,3.2352 3.7868,6.4903 1.1336,3.2613 2.3889,7.895 3.8197,13.9396 l 2.8699,-3.6835 c -1.6701,-18.5465 -4.9006,-29.6561 -9.6596,-33.3626 -1.7,-1.2926 -3.5185,-1.6373 -5.5508,-1.1512 -2.0185,0.5123 -3.7959,1.7993 -5.3459,3.8352 -1.0552,1.3578 -2.0406,3.1966 -2.9225,5.5489 -0.8701,2.3122 -2.0158,5.9393 -3.4839,10.8887 -0.1563,-0.8362 -0.3455,-1.6386 -0.4483,-2.4363 -0.135,-0.764 -0.2828,-1.488 -0.3891,-2.1336 -0.1323,-0.6317 -0.2402,-1.3433 -0.4014,-2.0935 -0.1477,-0.724 -0.2753,-1.4418 -0.4105,-2.2058 l -2.9717,3.8708 c 1.3625,6.2642 1.6543,15.6316 0.8487,28.1161 -0.577,-0.3977 -1.1339,-0.789 -1.6234,-1.1158 -0.5034,-0.3529 -1.0678,-0.7904 -1.7399,-1.3049 -2.2045,-1.7116 -3.6753,-3.1081 -4.5382,-4.2069 -0.3925,-0.4281 -0.7067,-0.8973 -0.9868,-1.3342 -0.2866,-0.417 -0.4904,-0.6771 -0.6454,-0.8126 -0.1748,-0.1417 -0.3518,-0.065 -0.5058,0.1496 -0.8937,1.1889 -1.5237,3.5755 -1.8443,7.152 -0.3656,3.0155 -0.406,5.4755 -0.076,7.3062 0.2774,1.8583 1.0807,3.5731 2.4096,5.1445 1.2955,1.5392 3.3583,3.4255 6.221,5.6256" /><path
       inkscape:connector-curvature="0"
       id="path640"
       style="fill:#000000;fill-opacity:1;fill-rule:nonzero;stroke:none;stroke-width:0.32767996;stroke-miterlimit:10;stroke-dasharray:none"
       d="m 3328.7414,1142.0919 c -1.6296,-4.2027 -2.9974,-7.9084 -4.0174,-11.1127 -1.0461,-3.1905 -1.7302,-6.1375 -2.0782,-8.8271 -0.3616,-2.7157 -0.1804,-5.0664 0.5256,-6.9917 2.2625,-4.9003 3.5031,-7.4914 3.7466,-7.8536 1.8857,-2.4132 4.5712,-2.3248 7.9787,0.3064 1.6062,1.2416 3.2266,4.6976 4.8794,10.3077 -1.9831,1.2452 -3.5856,2.6742 -4.8135,4.3066 -1.7685,2.3182 -3.1246,5.0705 -4.016,8.2294 -0.9241,3.1926 -1.6551,7.0357 -2.2052,11.635 z m 22.6957,-5.8104 2.8887,-3.7433 c -0.728,-4.0765 -1.5455,-7.0867 -2.4513,-8.9646 -0.9121,-1.858 -2.8181,-3.8271 -5.7229,-5.8212 -0.4314,-9.4107 -2.4781,-15.515 -6.1677,-18.365 -2.0896,-1.5884 -4.5128,-2.383 -7.2816,-2.3439 -2.7491,0.045 -5.5673,0.8785 -8.3962,2.4524 -2.8688,1.5615 -5.4056,3.8167 -7.6301,6.7594 -1.8609,2.3333 -3.0874,5.5854 -3.7273,9.6974 -0.6335,4.0921 -0.6621,8.3499 -0.072,12.7994 0.5565,4.4172 1.707,8.4713 3.3806,12.2501 1.672,3.7125 3.7482,6.5439 6.2014,8.4419 1.7336,1.3249 3.3301,2.1041 4.7633,2.3513 1.3869,0.2547 2.4634,-0.1119 3.2427,-1.0737 0.5393,-0.7519 0.7523,-1.9331 0.6647,-3.5574 1.6364,0.7916 2.9312,1.0615 3.9828,0.7747 1.0777,-0.3006 2.2983,-1.3445 3.6678,-3.1518 1.3636,-1.7873 2.6978,-4.3277 3.923,-7.6457 1.2312,-3.338 2.0516,-6.7596 2.4466,-10.2256 l 1.7537,-0.2223 0.853,0.6363 c 0.6245,0.4561 1.121,1.1132 1.4881,1.9052 0.3734,0.7722 0.6408,1.5332 0.8545,2.2559 0.2075,0.7426 0.6638,2.3062 1.3379,4.7905" /><path
       inkscape:connector-curvature="0"
       id="path642"
       style="fill:#000000;fill-opacity:1;fill-rule:nonzero;stroke:none;stroke-width:0.32767996;stroke-miterlimit:10;stroke-dasharray:none"
       d="m 3374.7518,1159.8944 c 0.078,-11.2658 -0.1287,-19.4254 -0.6285,-24.5907 -0.4999,-5.1655 -1.6595,-8.413 -3.4407,-9.7963 -1.4177,-1.0739 -3.1516,-1.4799 -5.2417,-1.2305 -2.084,0.2293 -4.2202,1.1208 -6.4034,2.5885 -2.1634,1.4738 -4.1127,3.386 -5.8502,5.6044 -1.1646,1.4989 -2.0264,2.9384 -2.6777,4.3339 -0.6451,1.3754 -1.091,3.097 -1.3978,5.1462 -0.3145,2.0031 -0.4758,4.3598 -0.4719,7.0303 -0.03,2.6382 0.082,5.7362 0.3561,9.3 0.098,2.1529 0.1965,3.9555 0.2811,5.4476 0.071,1.466 0.3605,2.6498 0.8089,3.5326 0.5146,0.8816 1.5544,1.9039 3.2004,3.158 1.1967,0.9396 2.4415,1.6536 3.7741,2.154 1.3067,0.5144 2.0824,0.6235 2.3595,0.2937 0.5208,-0.6921 0.896,-2.3262 1.1653,-4.8901 0.2021,-2.6287 0.089,-6.0769 -0.4137,-10.4555 -0.5031,-4.3788 -1.428,-9.0194 -2.7873,-13.8822 0.9661,-2.7639 1.9239,-4.6551 2.7915,-5.8303 1.2353,-1.5863 2.4376,-1.9358 3.6941,-0.9776 0.4372,0.3542 0.9132,1.2895 1.3433,2.8668 0.4363,1.5575 1.0578,4.3537 1.8853,8.461 0.7877,4.0949 1.5518,7.7013 2.2216,10.9063 0.467,2.3766 0.6666,5.5453 0.6323,9.5387 -0.036,3.9274 0.077,7.0253 0.2752,9.2092 0.5031,5.0132 0.9175,8.336 1.2368,9.9885 0.3456,1.6387 0.9718,2.7954 1.8798,3.5363 0.9069,0.6749 1.6976,0.8762 2.4636,0.5227 0.7412,-0.2735 1.7573,-1.2933 3.0961,-3.0008 0.5779,-0.8055 1.0201,-1.4561 1.238,-2.0888 0.2069,-0.5923 0.3647,-1.4623 0.52,-2.5957 0.1159,-1.0799 0.2554,-3.2247 0.4138,-6.3482 0.1844,-3.1373 0.4038,-6.8108 0.5831,-11.1312 0.1366,-2.277 0.4839,-4.5979 1.0419,-6.963 0.5777,-2.3591 1.2047,-3.959 1.8997,-4.8595 1.5051,-1.9622 2.984,-2.3573 4.5166,-1.1603 1.2503,0.9782 2.3364,2.6275 3.2122,4.9557 0.8422,2.2958 1.9745,6.1256 3.3452,11.517 l 2.8624,-3.7296 c -1.2868,-7.3565 -2.2471,-12.7303 -2.9272,-16.1136 -0.6739,-3.4033 -1.4198,-6.1506 -2.2115,-8.2558 -0.8179,-2.0913 -1.9026,-3.6746 -3.2527,-4.6837 -3.1051,-2.4064 -6.0658,-1.7484 -8.9222,1.9611 -1.0675,1.3978 -2.0709,3.6467 -2.9635,6.7397 -0.9195,3.1064 -2.0976,7.6862 -3.5079,13.7912" /><path
       inkscape:connector-curvature="0"
       id="path644"
       style="fill:#000000;fill-opacity:1;fill-rule:nonzero;stroke:none;stroke-width:0.32767996;stroke-miterlimit:10;stroke-dasharray:none"
       d="m 3398.0373,1165.0317 -2.8316,3.6298 c 0.1564,3.943 0.099,7.1636 -0.1715,9.6615 -1.5048,-0.5101 -2.7319,-0.7154 -3.7127,-0.516 -0.9883,0.1531 -1.9654,0.835 -2.8714,2.0639 -0.9968,1.3102 -1.7524,3.3954 -2.2191,6.314 -0.4607,2.8985 -0.5635,5.8423 -0.2544,8.8699 0.2167,3.0428 0.8406,5.3366 1.7916,6.8567 0.3123,0.6875 0.6923,1.1553 1.177,1.5681 0.752,0.5393 1.3851,0.473 1.9119,-0.239 0.4898,-0.5921 0.9097,-2.2999 1.2458,-5.1495 6.6806,7.0369 11.0621,11.3266 13.0318,12.8778 0.7794,0.5916 1.3487,0.9431 1.7865,1.0131 0.8893,0.1662 1.9919,-0.2142 3.3273,-1.135 1.3433,-0.8746 2.51,-1.9572 3.4299,-3.16 0.6056,-0.7531 0.9119,-1.8835 0.9147,-3.3049 0,-1.4674 -0.1708,-3.6849 -0.4936,-6.7387 -0.3279,-3.6024 -0.1853,-7.1684 0.4608,-10.6659 0.5725,-3.5422 1.3609,-5.9453 2.3653,-7.2094 1.3572,-1.7674 3.0814,-1.8238 5.2386,-0.1708 2.2182,1.7376 4.3742,7.0662 6.4015,15.9869 l 2.8748,-3.7696 c -0.6144,-5.5728 -1.1846,-10.0161 -1.7526,-13.4085 -0.5802,-3.3524 -1.3027,-6.2456 -2.1539,-8.6536 -0.8832,-2.3741 -1.9646,-4.1095 -3.3148,-5.1187 -1.5525,-1.2032 -3.3897,-1.488 -5.5114,-0.8546 -2.1754,0.5949 -4.2549,2.2916 -6.3254,5.0195 -1.2416,1.6063 -2.2153,3.6895 -3.0042,6.3769 -0.7571,2.6535 -1.2854,5.7719 -1.5463,9.3668 -0.3007,3.5826 -0.3864,7.3194 -0.2513,11.1902 -0.8676,-1.0127 -1.8765,-2.1348 -2.9604,-3.3678 -1.1236,-1.2454 -2.295,-2.5492 -3.5401,-3.8977 -1.2127,-1.3822 -2.18,-2.426 -2.8439,-3.1787 1.2989,-6.3803 1.2541,-13.155 -0.199,-20.2567" /><path
       inkscape:connector-curvature="0"
       id="path646"
       style="fill:#000000;fill-opacity:1;fill-rule:nonzero;stroke:none;stroke-width:0.32767996;stroke-miterlimit:10;stroke-dasharray:none"
       d="m 3275.3806,965.98639 c 0.051,-3.83517 0.053,-7.1603 0.07,-10.10887 0,-2.9087 0.1348,-5.16565 0.4053,-6.74468 0.2967,-1.59281 0.8892,-2.94079 1.7797,-3.97762 1.477,-1.73027 3.6557,-2.47731 6.5871,-2.33471 2.8793,0.17019 5.9986,1.6838 9.2917,4.54223 3.0495,2.58598 5.8639,5.93056 8.4096,10.00138 2.5119,4.03844 4.2343,7.94175 5.1209,11.71724 0.8669,3.76947 0.5356,6.53306 -0.9739,8.29699 -1.3152,1.56164 -3.2554,2.03258 -5.8696,1.57252 -2.5883,-0.47389 -6.0225,-1.88816 -10.216,-4.17226 -4.2055,-2.24406 -9.0875,-5.20096 -14.6042,-8.79222 z m -0.1555,11.65754 0.01,-5.53309 c 3.3894,2.40685 6.5261,4.42907 9.4437,6.09899 2.9239,1.65006 5.6516,3.08599 8.275,4.29279 2.6174,1.22688 5.0186,2.2335 7.1622,2.94148 7.6287,2.49527 13.2157,1.62302 16.8151,-2.5784 2.1731,-2.56488 3.1698,-6.06307 2.9036,-10.49964 -0.2537,-4.4765 -1.4134,-9.27752 -3.5314,-14.37538 -2.0994,-5.15787 -4.6803,-9.96169 -7.7231,-14.40535 -3.0304,-4.4836 -6.1808,-8.08547 -9.3866,-10.87303 -5.4193,-4.61127 -10.4788,-7.2075 -15.2239,-7.78086 -4.7253,-0.56723 -8.5881,0.88323 -11.5683,4.35752 -2.0576,2.40368 -3.5738,6.02539 -4.5086,10.87747 -0.9808,4.85974 -1.6099,11.33812 -1.9057,19.49517 -3.0441,-2.32174 -5.4846,-3.62504 -7.2695,-3.93744 -1.8309,-0.30483 -3.3071,0.22232 -4.4161,1.54155 -0.7099,0.80833 -1.0357,1.64819 -0.9328,2.44589 0.1229,0.80387 0.4515,1.64955 1.0721,2.54208 0.6129,0.84627 1.8945,2.35931 3.8769,4.50524 1.9776,2.23191 4.535,4.99359 7.635,8.40484 -0.1989,8.05583 0.2383,14.62395 1.2499,19.61977 1.0394,5.0481 3.1839,9.21337 6.4023,12.59567 0.2238,0.2662 0.5275,0.5573 0.8572,0.8345 0.3698,0.2896 0.6292,0.37 0.751,0.1889 0.1804,-0.2286 0.2735,-1.0967 0.2591,-2.7422 0,-1.6195 -0.036,-4.1902 -0.092,-7.75201 -0.076,-3.56812 -0.1197,-7.80451 -0.2298,-12.67408 5.9439,6.58988 10.5407,12.30277 13.7824,17.09259 3.248,4.7699 5.2927,8.9042 6.1062,12.3508 0.7613,3.4741 0.3424,6.1668 -1.3347,8.1196 -2.0377,2.4098 -4.6666,3.1267 -7.8916,2.2367 -3.2387,-0.9161 -7.2256,-3.4425 -11.9717,-7.4732 -2.6462,-2.264 -5.4031,-5.0875 -8.3587,-8.5415 -2.9618,-3.434 -5.5028,-6.672 -7.6633,-9.72642 -2.2127,-3.02684 -4.0572,-5.83014 -5.5271,-8.42988 -1.5097,-2.612 -2.1229,-4.09293 -1.7995,-4.43034 0.089,-0.14758 0.3013,-0.12539 0.5808,-0.0391 2.331,0.80982 3.6442,1.01994 3.9862,0.62263 0.5097,-0.58597 -1.2076,-3.9406 -5.1335,-10.12399 -3.9319,-6.16322 -6.8298,-10.01508 -8.675,-11.61528 -1.3131,-1.12885 -2.5072,-1.0175 -3.6362,0.29547 -1.3552,1.54917 -2.333,5.62224 -2.9483,12.12677 -0.6477,6.53823 -0.2609,11.36228 1.108,14.49961 0.4865,1.11343 1.8556,3.33192 4.0967,6.76134 2.2797,3.37578 4.8293,7.01018 7.7333,10.84208 2.9304,3.8181 5.9851,7.5873 9.2168,11.2799 3.2317,3.6926 6.2586,6.7749 9.1195,9.193 6.7187,5.7141 12.7741,8.8378 18.2049,9.3173 5.4183,0.5194 9.6886,-1.0454 12.7843,-4.6809 2.0762,-2.4635 3.3347,-5.465 3.7337,-9.0828 0.3729,-3.604 -0.1857,-7.803 -1.7097,-12.6294 -1.5761,-4.7987 -4.2756,-10.2082 -8.2186,-16.26541 -3.9216,-5.98501 -9.1023,-12.42595 -15.5083,-19.29028" /><path
       inkscape:connector-curvature="0"
       id="path648"
       style="fill:#000000;fill-opacity:1;fill-rule:nonzero;stroke:none;stroke-width:0.32767996;stroke-miterlimit:10;stroke-dasharray:none"
       d="m 3333.9002,1019.041 c -1.4266,-4.2929 -2.6176,-8.0753 -3.4992,-11.3022 -0.8494,-3.2608 -1.3752,-6.2244 -1.5787,-8.95678 -0.1896,-2.70623 0.092,-5.02582 0.8637,-6.95265 2.5096,-4.77979 3.9036,-7.30167 4.1486,-7.59767 2.0253,-2.36988 4.6877,-2.13568 7.9733,0.67671 1.5155,1.3229 2.9914,4.82152 4.3365,10.57708 -2.012,1.12694 -3.7219,2.47868 -5.0187,3.98042 -1.9021,2.25499 -3.3917,4.94409 -4.4626,8.04729 -1.0774,3.1232 -2.0072,6.9704 -2.7629,11.5278 z m 22.9517,-4.6589 3.057,-3.5818 c -0.4972,-4.1144 -1.1642,-7.1874 -1.9977,-9.0866 -0.7814,-1.92686 -2.6027,-3.95721 -5.378,-6.08634 0.057,-9.43439 -1.6881,-15.66395 -5.2561,-18.69501 -1.9664,-1.70341 -4.3525,-2.61781 -7.1242,-2.71098 -2.7641,-0.0465 -5.6126,0.60192 -8.5367,2.05877 -2.9251,1.39093 -5.597,3.51679 -8.0027,6.33773 -1.922,2.24871 -3.316,5.40506 -4.1677,9.49524 -0.8393,4.05026 -1.106,8.29979 -0.74,12.76729 0.346,4.4613 1.2796,8.5795 2.7686,12.3886 1.4828,3.829 3.4224,6.7493 5.7525,8.7622 1.6565,1.4324 3.2342,2.2714 4.6227,2.5923 1.3946,0.3008 2.4862,0.026 3.2992,-0.9031 0.567,-0.6994 0.8859,-1.8697 0.8384,-3.4816 1.5978,0.8452 2.9201,1.1674 3.9731,0.9467 1.0529,-0.2207 2.3272,-1.2261 3.798,-2.9364 1.4708,-1.7104 2.9051,-4.2197 4.3296,-7.476 1.4173,-3.3022 2.3843,-6.6345 2.972,-10.0846 l 1.7288,-0.1425 0.8408,0.6763 c 0.5735,0.5497 1.0763,1.1869 1.365,2.0202 0.3272,0.7797 0.5746,1.5346 0.7622,2.271 0.1614,0.7502 0.5194,2.349 1.0952,4.8686" /><path
       inkscape:connector-curvature="0"
       id="path650"
       style="fill:#000000;fill-opacity:1;fill-rule:nonzero;stroke:none;stroke-width:0.32767996;stroke-miterlimit:10;stroke-dasharray:none"
       d="m 3374.1086,1051.2585 c -2.2357,-3.7997 -4.4678,-8.6705 -6.7036,-14.6582 -2.3022,-5.9865 -3.4808,-9.8088 -3.5819,-11.4592 -0.1877,-1.3709 0.254,-3.2908 1.3315,-5.7794 1.0451,-2.4549 2.0059,-4.2138 2.8514,-5.1771 0.5221,-0.6259 1.1235,-0.9427 1.8091,-1.0366 0.6793,-0.074 1.3182,0.124 1.8427,0.5491 0.4986,0.4389 0.8967,1.1312 1.1483,2.0843 0.2655,0.9794 0.5324,2.6594 0.8887,5.1109 0.3561,2.4515 0.5681,4.0269 0.6958,4.7448 0.1409,1.0282 0.5203,3.3337 1.0971,6.8383 0.5845,3.5505 0.9586,6.2264 1.0503,8.049 0.1578,1.8212 0,3.6093 -0.3735,5.4417 -0.3523,1.7725 -1.0556,3.5456 -2.0559,5.2924 z m 7.0825,-16.3593 c -0.059,-6.2324 -0.287,-11.6415 -0.6157,-16.2288 -0.3029,-4.601 -0.7414,-8.1284 -1.2263,-10.7292 -0.4634,-2.5284 -1.0046,-4.0308 -1.5629,-4.4883 -0.9096,-0.807 -2.5657,-0.9701 -5.0407,-0.468 -2.3949,0.5268 -5.0167,1.5742 -7.7918,3.1866 -2.8214,1.62 -5.2316,3.6081 -7.2371,5.9842 -2.9278,3.4468 -4.2178,8.3858 -3.8983,14.6987 0.3592,6.3251 1.6604,12.5046 3.9611,18.425 2.2882,5.9603 4.4931,9.8599 6.6069,11.6526 1.7704,1.4894 4.4155,1.8497 7.9495,1.1069 -2.1749,8.0779 -3.9106,15.3731 -5.2391,21.9192 -1.3083,6.5524 -2.0854,11.6722 -2.2415,15.2121 -0.1808,3.6197 0.075,5.69 0.7557,6.3167 0.8144,0.6901 1.8236,0.8934 3.1423,0.7332 1.3172,-0.2264 2.3756,-0.8174 3.195,-1.7668 1.5739,-1.8316 2.9563,-6.1511 4.0878,-12.9771 1.1184,-6.7862 2.2057,-13.4727 3.2115,-19.9657 1.0116,-6.5131 2.3686,-12.6564 4.0056,-18.3631 1.6619,-5.7864 3.9837,-10.3838 7.0023,-13.9117 2.7415,-3.1983 5.126,-3.9035 7.1861,-2.1491 1.2455,1.0642 2.2279,3.119 2.8996,6.1058 0.6717,2.9869 1.3598,7.6856 2.0018,13.9453 l 3.3346,-3.9116 c 0.8134,-16.4642 -0.8798,-26.4628 -5.0674,-30.0359 -1.6706,-1.4586 -3.4369,-1.8309 -5.2943,-1.203 -1.8174,0.6401 -3.7997,2.2358 -5.9742,4.7344 -2.9478,3.4406 -5.645,7.484 -8.1498,12.1778" /><path
       inkscape:connector-curvature="0"
       id="path652"
       style="fill:#000000;fill-opacity:1;fill-rule:nonzero;stroke:none;stroke-width:0.32767996;stroke-miterlimit:10;stroke-dasharray:none"
       d="m 3428.7824,1072.0301 -2.5907,-16.1406 c -1.163,-7.7558 -2.4706,-12.3619 -4.0184,-13.6511 -1.3804,-1.1936 -4.2283,-0.829 -8.5053,1.0402 -4.2306,1.8615 -7.3788,3.971 -9.4103,6.3609 -1.742,2.0201 -2.8892,4.0277 -3.4569,5.9304 -0.5668,1.9685 -1.0434,4.7089 -1.4576,8.2345 -0.405,4.9069 -0.498,9.2321 -0.3119,13.0094 0.1936,3.8233 0.5577,6.9556 1.1059,9.4229 0.5482,2.4672 1.1276,3.9157 1.741,4.4778 0.9357,0.7933 2.2781,1.1217 4.0579,0.8856 1.7599,-0.2423 3.0949,-0.8789 3.9974,-1.9558 0.5744,-0.6533 1.0184,-2.1568 1.3122,-4.5163 0.295,-2.2935 0.3982,-5.5216 0.2451,-9.6168 -0.1408,-4.1352 -0.7479,-9.3776 -1.7569,-15.7948 l 1.5121,-3.8198 c 0.1604,-0.8036 0.4391,-1.4174 0.8271,-1.8223 0.8317,-0.9895 1.6893,-1.0738 2.6787,-0.242 0.9894,0.8317 2.229,4.1039 3.7772,9.7692 1.5221,5.6792 2.6118,12.4715 3.2827,20.4028 0.2382,3.1152 0.3604,5.7568 0.3682,7.9909 -0.011,2.2081 -0.049,4.2516 -0.081,6.1231 -0.1057,1.8928 -0.054,3.3526 0.054,4.4146 0.076,1.0956 0.3299,1.8307 0.7885,2.2572 0.7987,0.8821 1.7942,1.0593 2.9888,0.6636 1.2471,-0.423 2.5999,-1.4698 4.0184,-3.1526 0.8192,-0.9495 1.394,-2.5218 1.7578,-4.6845 0.4102,-2.1703 0.8909,-5.9816 1.5288,-11.4289 0.5781,-5.4658 1.3374,-11.0943 2.1431,-16.7304 0.8567,-5.7296 2.0737,-11.9165 3.6299,-18.6327 -0.011,0.172 0.1846,2.1578 0.5304,5.9845 0.3456,3.8266 0.7541,7.8041 1.1791,11.9398 0.4603,4.2342 0.8224,7.5846 1.1888,10.2143 0.3192,2.5713 0.8891,5.7455 1.5884,9.4193 l 3.0649,-3.5357 c -0.3886,-9.2662 -0.5651,-17.8759 -0.5153,-25.8028 0.07,-7.9209 0.2067,-14.2235 0.4538,-18.7636 0.2659,-4.5999 0.4081,-7.2471 0.4573,-8.0414 0.1086,-2.0449 0.2399,-3.9515 0.4078,-5.6936 0.1416,-1.7285 0.2306,-3.145 0.2234,-4.1098 -0.049,-1.0435 -0.2149,-1.7077 -0.5186,-1.9987 -0.7471,-0.6253 -2.0457,-0.4589 -3.8885,0.5454 -1.8441,0.9383 -3.2369,1.9726 -4.2102,3.1369 -0.8779,0.997 -1.4824,2.1006 -1.7629,3.2171 -2.3498,7.9362 -5.1732,22.8367 -8.4236,44.6939" /><path
       inkscape:connector-curvature="0"
       id="path654"
       style="fill:#000000;fill-opacity:1;fill-rule:nonzero;stroke:none;stroke-width:0.32767996;stroke-miterlimit:10;stroke-dasharray:none"
       d="m 3117.2697,1131.369 c -2.1725,2.915 -4.4587,5.1385 -6.8526,6.6503 -2.4199,1.5256 -4.7846,2.237 -7.1325,2.1876 -2.334,-0.023 -4.5051,-0.7835 -6.4598,-2.2424 -1.4038,-1.0478 -2.4629,-2.3605 -3.2144,-3.8186 -0.753,-1.5243 -1.1109,-3.1231 -1.1166,-4.9408 0.015,-1.8116 0.4487,-3.7775 1.2551,-5.9563 0.8663,-2.1602 2.1352,-4.3488 3.7931,-6.5919 1.6902,-2.2769 3.4426,-4.1187 5.3092,-5.5532 1.8392,-1.4868 3.6697,-2.4511 5.4898,-2.9592 1.7928,-0.5604 3.4896,-0.6691 5.1283,-0.38 1.5991,0.2767 3.1267,0.9251 4.5181,2.0127 1.7997,1.3235 3.073,3.0747 3.8265,5.2336 0.7392,2.1326 0.7651,4.5911 0.045,7.4093 -0.7063,2.8443 -2.2366,5.8052 -4.5891,8.9489 z m -25.2332,13.0102 c 3.5932,2.667 7.3333,4.1542 11.1326,4.3907 3.8195,0.2428 7.5551,-0.6563 11.1856,-2.7695 3.6244,-2.0932 6.9694,-5.1919 10.0663,-9.3958 2.3017,-3.0501 4.0412,-6.1213 5.1858,-9.1798 1.1447,-3.0585 1.6763,-6.0445 1.6008,-8.9779 -0.081,-2.9135 -0.8077,-5.6547 -2.204,-8.2098 -1.3763,-2.5487 -3.4214,-4.8454 -6.1616,-6.876 -2.7204,-2.0246 -5.5311,-3.3331 -8.4125,-3.9197 -2.8951,-0.6127 -5.7425,-0.5324 -8.5421,0.241 -2.7874,0.7335 -5.5145,2.1202 -8.1753,4.14 -2.6469,2.046 -5.0858,4.5503 -7.3167,7.5129 -2.2618,3.0625 -3.975,6.1199 -5.1045,9.2707 -1.1432,3.1245 -1.6487,6.0968 -1.5346,8.9765 0.108,2.8997 0.8586,5.561 2.2335,8.0437 1.4022,2.535 3.4001,4.7732 6.0467,6.753" /><path
       inkscape:connector-curvature="0"
       id="path656"
       style="fill:#000000;fill-opacity:1;fill-rule:nonzero;stroke:none;stroke-width:0.32767996;stroke-miterlimit:10;stroke-dasharray:none"
       d="m 3133.6421,1164.8864 -6.4883,-4.8331 8.1302,-10.9148 6.2997,4.6653 c 1.66,1.2802 2.9883,2.5014 3.8725,3.6724 0.8919,1.2172 1.3536,2.4105 1.3541,3.6797 0.02,1.2754 -0.5199,2.5958 -1.5539,4.0258 -0.8565,1.0692 -1.8047,1.8693 -2.9181,2.3558 -1.1272,0.4603 -2.2751,0.564 -3.4363,0.3573 -1.1152,-0.2144 -2.8817,-1.2212 -5.2599,-3.0084 z m 8.4261,-19.7064 -2.4718,-1.8381 9.5185,-12.7819 c 1.254,-1.6463 1.8639,-3.1201 1.8035,-4.4078 -0.06,-1.2878 -0.6039,-2.2876 -1.6256,-3.0856 -1.1216,-0.8289 -2.2965,-1.0618 -3.5313,-0.6786 -1.2284,0.3633 -2.4566,1.3611 -3.6384,2.9859 l -22.8176,30.5626 c -1.305,1.7398 -1.8749,3.2261 -1.7945,4.52 0.1004,1.3001 0.9186,2.4727 2.4174,3.6372 l 11.4183,8.4833 c 1.5586,1.1831 2.9734,2.1247 4.2167,2.7726 1.2311,0.6878 2.4701,1.1374 3.7034,1.3227 1.487,0.2858 3.0066,0.2534 4.5592,-0.097 1.5788,-0.3641 3.0323,-1.0295 4.44,-1.9717 1.4142,-0.9622 2.6505,-2.1981 3.7242,-3.6158 2.211,-2.9688 3.2463,-5.8862 3.0999,-8.7322 -0.1403,-2.8659 -1.4251,-5.7803 -3.8347,-8.7369 1.8282,0.1728 3.8522,-0.075 6.1,-0.6915 2.2338,-0.6423 4.4312,-1.4493 6.5583,-2.453 2.1271,-1.0037 3.976,-2.028 5.45,-2.9716 1.5124,-0.9972 2.4359,-1.7175 2.8148,-2.2346 0.4051,-0.5308 0.6369,-1.1373 0.7337,-1.8732 0.097,-0.7357 -0.011,-1.4474 -0.2893,-2.1025 -0.2859,-0.7012 -0.7672,-1.2662 -1.4192,-1.7745 -0.7857,-0.5716 -1.5918,-0.8653 -2.4508,-0.8469 -0.865,0.038 -1.7138,0.2347 -2.5719,0.6033 -0.8919,0.3363 -2.0961,0.904 -3.7385,1.6859 l -6.7923,3.2776 c -2.5054,1.2366 -4.5107,2.0592 -6.082,2.4694 -1.5635,0.4563 -2.8836,0.5505 -3.9725,0.3224 -1.1289,-0.2404 -2.3048,-0.8236 -3.5276,-1.7495" /><path
       inkscape:connector-curvature="0"
       id="path658"
       style="fill:#000000;fill-opacity:1;fill-rule:nonzero;stroke:none;stroke-width:0.32767996;stroke-miterlimit:10;stroke-dasharray:none"
       d="m 3177.2794,1151.5842 -23.3431,31.3406 c -1.2019,1.6186 -1.798,3.1186 -1.7575,4.4001 0.015,1.2954 0.5717,2.3215 1.6056,3.0795 1.0281,0.7781 2.203,1.0108 3.4327,0.7136 1.2624,-0.3308 2.5105,-1.3224 3.7446,-2.9749 l 23.357,-31.3143 c 1.2077,-1.6386 1.7978,-3.1187 1.7435,-4.4264 -0.015,-1.2953 -0.5716,-2.3214 -1.6395,-3.1118 -1.0017,-0.7917 -2.1292,-0.9661 -3.4114,-0.6414 -1.2682,0.3509 -2.4903,1.3288 -3.7319,2.935" /><path
       inkscape:connector-curvature="0"
       id="path660"
       style="fill:#000000;fill-opacity:1;fill-rule:nonzero;stroke:none;stroke-width:0.32767996;stroke-miterlimit:10;stroke-dasharray:none"
       d="m 3214.9468,1198.2865 5.6943,-7.6437 c 0.752,-1.0142 1.2824,-1.8783 1.5833,-2.6382 0.2682,-0.7265 0.3579,-1.5083 0.2475,-2.352 -0.1105,-0.8438 -0.3544,-1.7509 -0.7257,-2.7411 -1.1391,-2.891 -2.4664,-5.3153 -3.945,-7.3926 -1.5173,-2.0236 -3.4079,-3.9004 -5.7048,-5.5968 -2.6605,-2.006 -5.4389,-3.3483 -8.3492,-4.0532 -2.8967,-0.6789 -5.7531,-0.7108 -8.6615,-0.08 -2.8746,0.6626 -5.6905,1.9124 -8.4127,3.8476 -2.722,1.9352 -5.2793,4.4685 -7.6119,7.6184 -2.308,3.0699 -4.006,6.2196 -5.1218,9.3965 -1.1158,3.1769 -1.5398,6.24 -1.3184,9.1967 0.2215,2.9568 1.1073,5.7474 2.6508,8.3918 1.5161,2.5923 3.7146,4.9583 6.5561,7.086 2.3443,1.7547 4.676,2.9149 6.9964,3.5465 2.3144,0.6517 4.4728,0.8172 6.3849,0.5782 1.9379,-0.2528 3.6463,-0.7517 5.123,-1.5631 1.4642,-0.7716 2.5632,-1.6344 3.2564,-2.601 0.7657,-0.9881 1.0661,-2.0984 0.9349,-3.2987 -0.1175,-1.1741 -0.641,-2.1678 -1.554,-2.8227 -0.5171,-0.3789 -1.1035,-0.6045 -1.7794,-0.6826 -0.6297,-0.086 -1.3353,0 -1.9981,0.2341 -2.0301,0.9025 -3.6231,1.5246 -4.8255,1.8741 -1.1884,0.3756 -2.5098,0.4037 -3.9154,0.2088 -1.4195,-0.221 -2.9147,-0.9032 -4.5134,-2.0987 -1.6125,-1.2217 -2.8251,-2.604 -3.6331,-4.2328 -0.8005,-1.5828 -1.2011,-3.326 -1.2081,-5.2098 0.025,-1.9176 0.4257,-3.9158 1.266,-6.0622 0.854,-2.1203 2.0645,-4.2614 3.6713,-6.4109 3.4574,-4.6611 7.0911,-7.561 10.8149,-8.7045 3.7514,-1.091 7.2964,-0.3863 10.661,2.1004 1.6448,1.188 2.9635,2.5811 4.0281,4.1582 1.071,1.5572 1.9941,3.3092 2.8044,5.3544 l -4.847,6.4623 -5.4605,-4.0552 c -1.3164,-0.9767 -2.4709,-1.4877 -3.4635,-1.5327 -1.0063,-0.071 -1.9139,0.4571 -2.7304,1.5387 -0.6548,0.913 -0.9133,1.8175 -0.7915,2.8399 0.1393,0.9621 0.6801,1.8298 1.6406,2.5432 l 7.9859,5.9317 c 0.962,0.7795 1.8782,1.2822 2.7043,1.5819 0.8136,0.3396 1.7111,0.2677 2.6291,-0.082 0.9304,-0.3899 1.9171,-1.2438 2.9386,-2.6339" /><path
       inkscape:connector-curvature="0"
       id="path662"
       style="fill:#000000;fill-opacity:1;fill-rule:nonzero;stroke:none;stroke-width:0.32767996;stroke-miterlimit:10;stroke-dasharray:none"
       d="m 3230.8467,1191.5298 -23.3568,31.3144 c -1.2281,1.6324 -1.8178,3.1125 -1.7774,4.394 0.06,1.2877 0.5778,2.3014 1.5994,3.0994 1.0541,0.7642 2.2092,0.9909 3.4712,0.6599 1.2301,-0.2971 2.4783,-1.2888 3.6998,-2.9012 l 23.3694,-31.3543 c 1.2279,-1.6324 1.8377,-3.1063 1.7834,-4.4141 -0.06,-1.2877 -0.6251,-2.3598 -1.6532,-3.1378 -1.0202,-0.7319 -2.1416,-0.9263 -3.4237,-0.6015 -1.2622,0.3309 -2.5104,1.3225 -3.7121,2.9412" /><path
       inkscape:connector-curvature="0"
       id="path664"
       style="fill:#000000;fill-opacity:1;fill-rule:nonzero;stroke:none;stroke-width:0.32767996;stroke-miterlimit:10;stroke-dasharray:none"
       d="m 3231.4779,1240.8238 31.0098,-13.3644 -17.6824,23.6645 c -1.1308,1.5312 -1.7036,2.8853 -1.6846,4.0946 -0.015,1.177 0.495,2.1445 1.4494,2.8778 1.0142,0.7518 2.1092,0.96 3.2456,0.6119 1.1498,-0.3219 2.2872,-1.2385 3.4642,-2.7773 l 23.3308,-31.3006 c 2.5839,-3.4658 2.626,-6.144 0.1003,-8.0206 -0.6321,-0.5022 -1.26,-0.8061 -1.9111,-0.9642 -0.6912,-0.1704 -1.4117,-0.1749 -2.1833,-0.086 -0.764,0.1352 -1.565,0.3902 -2.3984,0.679 -0.8458,0.3286 -1.6977,0.6772 -2.5298,1.032 l -30.4612,13.3593 17.4052,-23.3346 c 1.1047,-1.5175 1.6837,-2.8915 1.6048,-4.1193 -7e-4,-1.2693 -0.5104,-2.2368 -1.4845,-2.9763 -1.0004,-0.7257 -2.0957,-0.9338 -3.278,-0.5781 -1.196,0.3295 -2.3394,1.266 -3.4719,2.7311 l -22.8746,30.6762 c -0.957,1.3225 -1.6014,2.4138 -1.9121,3.3458 -0.3077,1.0643 -0.2931,2.0753 0.02,3.1132 0.313,1.0377 0.8922,1.8518 1.6853,2.4695 0.6383,0.4822 1.2722,0.7662 1.8758,0.8657 0.6437,0.112 1.277,0.045 1.9027,-0.066 0.6378,-0.1524 1.3727,-0.4061 2.2171,-0.8007 0.8058,-0.3411 1.664,-0.7097 2.5607,-1.132" /><path
       inkscape:connector-curvature="0"
       id="path666"
       style="fill:#000000;fill-opacity:1;fill-rule:nonzero;stroke:none;stroke-width:0.32767996;stroke-miterlimit:10;stroke-dasharray:none"
       d="m 3281.6923,1247.1075 10.3441,7.7127 -17.4374,12.4941 7.0933,-20.2068 z m 22.137,-0.6887 -5.3671,3.763 -14.1122,-10.5214 2.1655,-6.3524 c 0.8328,-2.4769 1.3053,-4.2121 1.3427,-5.2508 0.063,-1.0524 -0.4186,-1.9676 -1.4666,-2.7519 -0.8668,-0.6623 -1.922,-0.8581 -3.1594,-0.6071 -1.2251,0.2112 -2.1974,0.807 -2.8983,1.7275 -0.4051,0.5309 -0.7352,1.1725 -1.018,1.8726 -0.2822,0.7001 -0.6318,1.6858 -1.034,2.9834 l -10.3692,32.4728 c -0.2985,0.8921 -0.6641,2.004 -1.0787,3.3415 -0.4284,1.3114 -0.6869,2.4346 -0.7995,3.4281 -0.1112,0.9939 0.015,1.93 0.3384,2.8617 0.35,0.9181 1.0016,1.7107 1.962,2.4241 0.9805,0.7194 1.9613,1.1547 2.9339,1.1936 0.9603,0.078 1.8886,-0.093 2.8068,-0.4431 0.9042,-0.3762 1.7731,-0.8508 2.6271,-1.4175 0.834,-0.573 1.948,-1.3438 3.3359,-2.2921 l 28.2091,-18.8708 c 2.157,-1.454 3.5868,-2.608 4.2293,-3.481 0.701,-0.9206 0.9814,-2.0371 0.8747,-3.3174 -0.093,-1.2539 -0.6024,-2.2214 -1.5367,-2.9485 -0.5569,-0.3914 -1.1111,-0.6507 -1.7011,-0.7241 -0.5499,-0.061 -1.0971,0.011 -1.6753,0.181 -0.5504,0.2233 -1.2964,0.5829 -2.1964,1.1572 -0.9123,0.6144 -1.7015,1.1138 -2.4124,1.5718" /><path
       inkscape:connector-curvature="0"
       id="path668"
       style="fill:#000000;fill-opacity:1;fill-rule:nonzero;stroke:none;stroke-width:0.32767996;stroke-miterlimit:10;stroke-dasharray:none"
       d="m 3300.2638,1292.0274 21.5435,-28.9225 14.2396,10.6047 c 1.1153,0.8488 2.2595,1.1815 3.314,1.0269 1.0666,-0.1946 1.9867,-0.7627 2.68,-1.7294 0.7395,-0.9742 1.035,-1.9986 0.8858,-3.0731 -0.1269,-1.0021 -0.7888,-1.973 -1.9703,-2.8204 l -16.9535,-12.6491 c -1.5252,-1.1509 -2.9027,-1.5778 -4.1662,-1.313 -1.2236,0.2772 -2.4841,1.3088 -3.8029,3.0224 l -22.8039,30.5888 c -1.214,1.6586 -1.8177,3.1125 -1.7634,4.4202 0.011,1.2491 0.5577,2.2952 1.6056,3.0794 1.0341,0.7581 2.1892,0.9847 3.4589,0.6999 1.2361,-0.3172 2.4642,-1.315 3.7321,-2.9351" /><g
       id="g5748"
       transform="matrix(5.2904153,1.6394222,1.6394222,-5.2904153,705.99007,1086.5438)"><g
         id="g5708"><path
           id="path5710"
           d="M 82.334,41.167 C 82.334,18.467 63.867,0 41.167,0 40.697,0 40.233,0.02 39.766,0.036 l 0,-0.01 c -0.135,0 -0.266,0.017 -0.401,0.02 -0.21,0.01 -0.421,0.021 -0.631,0.033 C 38.231,0.103 37.73,0.134 37.237,0.193 16.375,2.178 0,19.794 0,41.167 c 0,22.7 18.467,41.167 41.167,41.167 22.7,0 41.167,-18.467 41.167,-41.167 z M 46.359,22.072 c 0,2.868 -2.325,5.193 -5.192,5.193 -2.868,0 -5.193,-2.325 -5.193,-5.193 0,-2.868 2.325,-5.193 5.193,-5.193 2.867,0 5.192,2.326 5.192,5.193 z M 58.712,60.85 c 0,10.053 -8.497,18.231 -18.941,18.231 l 0,0.034 C 19.472,78.378 3.183,61.645 3.183,41.167 c 0,-16.67 10.8,-30.857 25.768,-35.957 -5.579,3.616 -9.291,9.911 -9.291,17.072 0,11.177 9.017,20.271 20.112,20.305 l 0,0.032 c 10.444,0 18.94,8.178 18.94,18.231 z m -17.545,5.838 c -2.868,0 -5.193,-2.326 -5.193,-5.193 0,-2.868 2.325,-5.193 5.193,-5.193 2.867,0 5.192,2.325 5.192,5.193 0,2.866 -2.325,5.193 -5.192,5.193 z"
           inkscape:connector-curvature="0" /></g><g
         id="g5712" /><g
         id="g5714" /><g
         id="g5716" /><g
         id="g5718" /><g
         id="g5720" /><g
         id="g5722" /><g
         id="g5724" /><g
         id="g5726" /><g
         id="g5728" /><g
         id="g5730" /><g
         id="g5732" /><g
         id="g5734" /><g
         id="g5736" /><g
         id="g5738" /><g
         id="g5740" /></g></g><style
     id="style4951"
     type="text/css"><![CDATA[
	.st0{fill-rule:evenodd;clip-rule:evenodd;fill:#0A723B;}
	.st1{fill-rule:evenodd;clip-rule:evenodd;fill:#FFFFFF;}
	.st2{display:none;}
	.st3{display:inline;fill-rule:evenodd;clip-rule:evenodd;fill:#076233;}
]]></style></svg>